SplineFontDB: 3.2
FontName: Gewtymol
FullName: Gewtymol Regular
FamilyName: Gewtymol
Weight: Regular
Copyright: Copyright Bryndan W Meyerholt 2021
Version: 1.0.0
ItalicAngle: 0
UnderlinePosition: 300
UnderlineWidth: 200
Ascent: 1600
Descent: 400
InvalidEm: 0
sfntRevision: 0x00010000
LayerCount: 2
Layer: 0 0 "Back" 1
Layer: 1 0 "Fore" 0
XUID: [1021 312 -1533724894 26463]
StyleMap: 0x0040
FSType: 4
OS2Version: 2
OS2_WeightWidthSlopeOnly: 0
OS2_UseTypoMetrics: 0
CreationTime: 1637254477
ModificationTime: 1637368978
PfmFamily: 81
TTFWeight: 400
TTFWidth: 5
LineGap: 0
VLineGap: 0
OS2TypoAscent: 1600
OS2TypoAOffset: 0
OS2TypoDescent: -400
OS2TypoDOffset: 0
OS2TypoLinegap: 0
OS2WinAscent: 1600
OS2WinAOffset: 0
OS2WinDescent: 400
OS2WinDOffset: 0
HheadAscent: 1600
HheadAOffset: 0
HheadDescent: -400
HheadDOffset: 0
OS2SubXSize: 500
OS2SubYSize: 1000
OS2SubXOff: 0
OS2SubYOff: -200
OS2SupXSize: 500
OS2SupYSize: 1000
OS2SupXOff: 0
OS2SupYOff: 1000
OS2StrikeYSize: 100
OS2StrikeYPos: 400
OS2CapHeight: 1200
OS2XHeight: 800
OS2Vendor: 'FSTR'
OS2CodePages: e000009f.dfd70000
OS2UnicodeRanges: a00002af.500078fb.00000020.00000000
Lookup: 4 0 0 "'ccmp' Glyph Composition/Decomposition lookup 4" { "'ccmp' Glyph Composition/Decomposition lookup 4-1"  } ['ccmp' ('DFLT' <'dflt' > 'cyrl' <'dflt' > 'grek' <'dflt' > 'latn' <'dflt' > ) ]
Lookup: 1 0 0 "'smcp' Lowercase to Small Capitals lookup 5" { "'smcp' Lowercase to Small Capitals lookup 5-1" ("sc") } ['smcp' ('DFLT' <'dflt' > 'cyrl' <'dflt' > 'grek' <'dflt' > 'latn' <'dflt' > ) ]
Lookup: 1 0 0 "'locl' Localized Forms in Latin lookup 2" { "'locl' Localized Forms in Latin lookup 2-1"  } ['locl' ('latn' <'LTH ' > ) ]
Lookup: 1 0 0 "'locl' Localized Forms in Latin lookup 1" { "'locl' Localized Forms in Latin lookup 1-1"  } ['locl' ('latn' <'TRK ' > ) ]
Lookup: 1 0 0 "'locl' Localized Forms in Latin lookup 3" { "'locl' Localized Forms in Latin lookup 3-1"  } ['locl' ('latn' <'ROM ' > ) ]

StartChar: .notdef
Encoding: 903 -1 0
Width: 800
VWidth: 1000
Flags: HMW
LayerCount: 2
Fore
SplineSet
300 200 m 1
 500 200 l 1
 500 1000 l 1
 300 1000 l 1
 300 200 l 1
100 0 m 1
 100 1200 l 1
 700 1200 l 1
 700 0 l 1
 100 0 l 1
EndSplineSet
Validated: 1
EndChar

StartChar: exclam
Encoding: 1 33 2
Width: 400
VWidth: 1000
Flags: HMW
LayerCount: 2
Fore
SplineSet
100 0 m 1
 100 200 l 1
 300 200 l 1
 300 0 l 1
 100 0 l 1
100 400 m 1
 100 1200 l 1
 300 1200 l 1
 300 400 l 1
 100 400 l 1
EndSplineSet
Validated: 1
EndChar

StartChar: quotedbl
Encoding: 2 34 3
Width: 800
VWidth: 1000
Flags: HMW
LayerCount: 2
Fore
SplineSet
100 800 m 1
 100 1200 l 1
 300 1200 l 1
 300 800 l 1
 100 800 l 1
500 800 m 1
 500 1200 l 1
 700 1200 l 1
 700 800 l 1
 500 800 l 1
EndSplineSet
Validated: 1
EndChar

StartChar: numbersign
Encoding: 3 35 4
Width: 1000
VWidth: 1000
Flags: HMW
LayerCount: 2
Fore
SplineSet
400 500 m 1
 600 500 l 1
 600 700 l 1
 400 700 l 1
 400 500 l 1
100 300 m 1
 100 500 l 1
 200 500 l 1
 200 700 l 1
 100 700 l 1
 100 900 l 1
 200 900 l 1
 200 1200 l 1
 400 1200 l 1
 400 900 l 1
 600 900 l 1
 600 1200 l 1
 800 1200 l 1
 800 900 l 1
 900 900 l 1
 900 700 l 1
 800 700 l 1
 800 500 l 1
 900 500 l 1
 900 300 l 1
 800 300 l 1
 800 0 l 1
 600 0 l 1
 600 300 l 1
 400 300 l 1
 400 0 l 1
 200 0 l 1
 200 300 l 1
 100 300 l 1
EndSplineSet
Validated: 1
EndChar

StartChar: dollar
Encoding: 4 36 5
Width: 1000
VWidth: 1000
Flags: HMW
LayerCount: 2
Fore
SplineSet
100 200 m 1
 100 400 l 1
 650 400 l 1
 700 450 l 1
 650 500 l 1
 250 500 l 1
 100 650 l 1
 100 850 l 1
 250 1000 l 1
 400 1000 l 1
 400 1200 l 1
 600 1200 l 1
 600 1000 l 1
 900 1000 l 1
 900 800 l 1
 350 800 l 1
 300 750 l 1
 350 700 l 1
 750 700 l 1
 900 550 l 1
 900 350 l 1
 750 200 l 1
 600 200 l 1
 600 0 l 1
 400 0 l 1
 400 200 l 1
 100 200 l 1
EndSplineSet
Validated: 1
EndChar

StartChar: percent
Encoding: 5 37 6
Width: 1000
VWidth: 1000
Flags: HMW
LayerCount: 2
Fore
SplineSet
700 0 m 1
 700 400 l 1
 900 400 l 1
 900 0 l 1
 700 0 l 1
100 200 m 1
 100 350 l 1
 750 1000 l 1
 900 1000 l 1
 900 850 l 1
 250 200 l 1
 100 200 l 1
100 800 m 1
 100 1200 l 1
 300 1200 l 1
 300 800 l 1
 100 800 l 1
EndSplineSet
Validated: 1
EndChar

StartChar: ampersand
Encoding: 6 38 7
Width: 1000
VWidth: 1000
Flags: HMW
LayerCount: 2
Fore
SplineSet
300 250 m 1
 350 200 l 1
 600 200 l 1
 600 250 l 1
 400 450 l 1
 300 350 l 1
 300 250 l 1
300 850 m 1
 400 750 l 1
 500 850 l 1
 500 950 l 1
 450 1000 l 1
 350 1000 l 1
 300 950 l 1
 300 850 l 1
100 150 m 1
 100 450 l 1
 250 600 l 1
 100 750 l 1
 100 1050 l 1
 250 1200 l 1
 550 1200 l 1
 700 1050 l 1
 700 750 l 1
 550 600 l 1
 700 450 l 1
 800 550 l 1
 900 550 l 1
 900 350 l 1
 750 200 l 1
 900 200 l 1
 900 0 l 1
 250 0 l 1
 100 150 l 1
EndSplineSet
Validated: 1
EndChar

StartChar: quotesingle
Encoding: 7 39 8
Width: 400
VWidth: 1000
Flags: HMW
LayerCount: 2
Fore
SplineSet
100 800 m 1
 100 1200 l 1
 300 1200 l 1
 300 800 l 1
 100 800 l 1
EndSplineSet
Validated: 1
EndChar

StartChar: parenleft
Encoding: 8 40 9
Width: 600
VWidth: 1000
Flags: HMW
LayerCount: 2
Fore
SplineSet
100 100 m 1
 100 900 l 1
 400 1200 l 1
 500 1200 l 1
 500 1000 l 1
 300 800 l 1
 300 200 l 1
 500 0 l 1
 500 -200 l 1
 400 -200 l 1
 100 100 l 1
EndSplineSet
Validated: 1
EndChar

StartChar: parenright
Encoding: 9 41 10
Width: 600
VWidth: 1000
Flags: HMW
LayerCount: 2
Fore
SplineSet
100 0 m 1
 300 200 l 1
 300 800 l 1
 100 1000 l 1
 100 1200 l 1
 200 1200 l 1
 500 900 l 1
 500 100 l 1
 200 -200 l 1
 100 -200 l 1
 100 0 l 1
EndSplineSet
Validated: 1
EndChar

StartChar: asterisk
Encoding: 10 42 11
Width: 1000
VWidth: 1000
Flags: HMW
LayerCount: 2
Fore
SplineSet
100 300 m 1
 100 450 l 1
 250 600 l 1
 100 750 l 1
 100 900 l 1
 250 900 l 1
 400 750 l 1
 400 1100 l 1
 600 1100 l 1
 600 750 l 1
 750 900 l 1
 900 900 l 1
 900 750 l 1
 750 600 l 1
 900 450 l 1
 900 300 l 1
 750 300 l 1
 600 450 l 1
 600 100 l 1
 400 100 l 1
 400 450 l 1
 250 300 l 1
 100 300 l 1
EndSplineSet
Validated: 1
EndChar

StartChar: plus
Encoding: 11 43 12
Width: 800
VWidth: 1000
Flags: HMW
LayerCount: 2
Fore
SplineSet
100 500 m 1
 100 700 l 1
 300 700 l 1
 300 900 l 1
 500 900 l 1
 500 700 l 1
 700 700 l 1
 700 500 l 1
 500 500 l 1
 500 300 l 1
 300 300 l 1
 300 500 l 1
 100 500 l 1
EndSplineSet
Validated: 1
EndChar

StartChar: comma
Encoding: 12 44 13
Width: 400
VWidth: 1000
Flags: HMW
LayerCount: 2
Fore
SplineSet
100 -200 m 1
 100 200 l 1
 300 200 l 1
 300 -50 l 1
 150 -200 l 1
 100 -200 l 1
EndSplineSet
Validated: 1
EndChar

StartChar: hyphen
Encoding: 13 45 14
Width: 800
VWidth: 1000
Flags: HMW
LayerCount: 2
Fore
SplineSet
100 500 m 1
 100 700 l 1
 700 700 l 1
 700 500 l 1
 100 500 l 1
EndSplineSet
Validated: 1
EndChar

StartChar: period
Encoding: 14 46 15
Width: 400
VWidth: 1000
Flags: HMW
LayerCount: 2
Fore
SplineSet
100 0 m 1
 100 200 l 1
 300 200 l 1
 300 0 l 1
 100 0 l 1
EndSplineSet
Validated: 1
EndChar

StartChar: slash
Encoding: 15 47 16
Width: 1000
VWidth: 1000
Flags: HMW
LayerCount: 2
Fore
SplineSet
100 200 m 1
 100 350 l 1
 750 1000 l 1
 900 1000 l 1
 900 850 l 1
 250 200 l 1
 100 200 l 1
EndSplineSet
Validated: 1
EndChar

StartChar: zero
Encoding: 16 48 17
Width: 1000
VWidth: 1000
Flags: HMW
LayerCount: 2
Fore
SplineSet
325 275 m 1
 400 200 l 1
 600 200 l 1
 700 300 l 1
 700 650 l 1
 325 275 l 1
300 550 m 1
 675 925 l 1
 600 1000 l 1
 400 1000 l 1
 300 900 l 1
 300 550 l 1
100 200 m 1
 100 1000 l 1
 300 1200 l 1
 700 1200 l 1
 900 1000 l 1
 900 200 l 1
 700 0 l 1
 300 0 l 1
 100 200 l 1
EndSplineSet
Validated: 1
Substitution2: "'onum' Oldstyle Figures lookup 0-1" zero.onum
EndChar

StartChar: one
Encoding: 17 49 18
Width: 1000
VWidth: 1000
Flags: HMW
LayerCount: 2
Fore
SplineSet
200 0 m 1
 200 200 l 1
 400 200 l 1
 400 800 l 1
 200 800 l 1
 200 900 l 1
 500 1200 l 1
 600 1200 l 1
 600 200 l 1
 800 200 l 1
 800 0 l 1
 200 0 l 1
EndSplineSet
Validated: 1
Substitution2: "'onum' Oldstyle Figures lookup 0-1" one.onum
EndChar

StartChar: two
Encoding: 18 50 19
Width: 1000
VWidth: 1000
Flags: HMW
LayerCount: 2
Fore
SplineSet
100 0 m 1
 100 250 l 1
 700 850 l 1
 700 900 l 1
 600 1000 l 1
 400 1000 l 1
 300 900 l 1
 100 900 l 1
 100 1000 l 1
 300 1200 l 1
 700 1200 l 1
 900 1000 l 1
 900 750 l 1
 350 200 l 1
 900 200 l 1
 900 0 l 1
 100 0 l 1
EndSplineSet
Validated: 1
Substitution2: "'onum' Oldstyle Figures lookup 0-1" two.onum
EndChar

StartChar: three
Encoding: 19 51 20
Width: 1000
VWidth: 1000
Flags: HMW
LayerCount: 2
Fore
SplineSet
100 200 m 1
 100 300 l 1
 300 300 l 1
 400 200 l 1
 600 200 l 1
 700 300 l 1
 700 350 l 1
 550 500 l 1
 400 500 l 1
 400 700 l 1
 550 700 l 1
 700 850 l 1
 700 900 l 1
 600 1000 l 1
 400 1000 l 1
 300 900 l 1
 100 900 l 1
 100 1000 l 1
 300 1200 l 1
 700 1200 l 1
 900 1000 l 1
 900 750 l 1
 750 600 l 1
 900 450 l 1
 900 200 l 1
 700 0 l 1
 300 0 l 1
 100 200 l 1
EndSplineSet
Validated: 1
Substitution2: "'onum' Oldstyle Figures lookup 0-1" three.onum
EndChar

StartChar: four
Encoding: 20 52 21
Width: 1000
VWidth: 1000
Flags: HMW
LayerCount: 2
Fore
SplineSet
300 500 m 1
 600 500 l 1
 600 900 l 1
 300 600 l 1
 300 500 l 1
100 300 m 1
 100 700 l 1
 600 1200 l 1
 800 1200 l 1
 800 500 l 1
 900 500 l 1
 900 300 l 1
 800 300 l 1
 800 0 l 1
 600 0 l 1
 600 300 l 1
 100 300 l 1
EndSplineSet
Validated: 1
Substitution2: "'onum' Oldstyle Figures lookup 0-1" four.onum
EndChar

StartChar: five
Encoding: 21 53 22
Width: 1000
VWidth: 1000
Flags: HMW
LayerCount: 2
Fore
SplineSet
100 200 m 1
 100 300 l 1
 300 300 l 1
 400 200 l 1
 600 200 l 1
 700 300 l 1
 700 500 l 1
 600 600 l 1
 100 600 l 1
 100 1200 l 1
 900 1200 l 1
 900 1000 l 1
 300 1000 l 1
 300 800 l 1
 700 800 l 1
 900 600 l 1
 900 200 l 1
 700 0 l 1
 300 0 l 1
 100 200 l 1
EndSplineSet
Validated: 1
Substitution2: "'onum' Oldstyle Figures lookup 0-1" five.onum
EndChar

StartChar: six
Encoding: 22 54 23
Width: 1000
VWidth: 1000
Flags: HMW
LayerCount: 2
Fore
SplineSet
300 300 m 1
 400 200 l 1
 600 200 l 1
 700 300 l 1
 700 400 l 1
 600 500 l 1
 300 500 l 1
 300 300 l 1
100 200 m 1
 100 1000 l 1
 300 1200 l 1
 700 1200 l 1
 900 1000 l 1
 900 900 l 1
 700 900 l 1
 600 1000 l 1
 400 1000 l 1
 300 900 l 1
 300 700 l 1
 700 700 l 1
 900 500 l 1
 900 200 l 1
 700 0 l 1
 300 0 l 1
 100 200 l 1
EndSplineSet
Validated: 1
Substitution2: "'onum' Oldstyle Figures lookup 0-1" six.onum
EndChar

StartChar: seven
Encoding: 23 55 24
Width: 1000
VWidth: 1000
Flags: HMW
LayerCount: 2
Fore
SplineSet
100 1000 m 1
 100 1200 l 1
 900 1200 l 1
 900 700 l 1
 600 400 l 1
 600 0 l 1
 400 0 l 1
 400 500 l 1
 700 800 l 1
 700 1000 l 1
 100 1000 l 1
EndSplineSet
Validated: 1
Substitution2: "'onum' Oldstyle Figures lookup 0-1" seven.onum
EndChar

StartChar: eight
Encoding: 24 56 25
Width: 1000
VWidth: 1000
Flags: HMW
LayerCount: 2
Fore
SplineSet
300 300 m 1
 400 200 l 1
 600 200 l 1
 700 300 l 1
 700 350 l 1
 550 500 l 1
 450 500 l 1
 300 350 l 1
 300 300 l 1
300 850 m 1
 450 700 l 1
 550 700 l 1
 700 850 l 1
 700 900 l 1
 600 1000 l 1
 400 1000 l 1
 300 900 l 1
 300 850 l 1
100 200 m 1
 100 450 l 1
 250 600 l 1
 100 750 l 1
 100 1000 l 1
 300 1200 l 1
 700 1200 l 1
 900 1000 l 1
 900 750 l 1
 750 600 l 1
 900 450 l 1
 900 200 l 1
 700 0 l 1
 300 0 l 1
 100 200 l 1
EndSplineSet
Validated: 1
Substitution2: "'onum' Oldstyle Figures lookup 0-1" eight.onum
EndChar

StartChar: nine
Encoding: 25 57 26
Width: 1000
VWidth: 1000
Flags: HMW
LayerCount: 2
Fore
SplineSet
300 800 m 1
 400 700 l 1
 700 700 l 1
 700 900 l 1
 600 1000 l 1
 400 1000 l 1
 300 900 l 1
 300 800 l 1
100 200 m 1
 100 300 l 1
 300 300 l 1
 400 200 l 1
 600 200 l 1
 700 300 l 1
 700 500 l 1
 300 500 l 1
 100 700 l 1
 100 1000 l 1
 300 1200 l 1
 700 1200 l 1
 900 1000 l 1
 900 200 l 1
 700 0 l 1
 300 0 l 1
 100 200 l 1
EndSplineSet
Validated: 1
Substitution2: "'onum' Oldstyle Figures lookup 0-1" nine.onum
EndChar

StartChar: colon
Encoding: 26 58 27
Width: 400
VWidth: 1000
Flags: HMW
LayerCount: 2
Fore
SplineSet
100 0 m 1
 100 200 l 1
 300 200 l 1
 300 0 l 1
 100 0 l 1
100 700 m 1
 100 900 l 1
 300 900 l 1
 300 700 l 1
 100 700 l 1
EndSplineSet
Validated: 1
EndChar

StartChar: semicolon
Encoding: 27 59 28
Width: 400
VWidth: 1000
Flags: HMW
LayerCount: 2
Fore
SplineSet
100 -200 m 1
 100 200 l 1
 300 200 l 1
 300 -50 l 1
 150 -200 l 1
 100 -200 l 1
100 700 m 1
 100 900 l 1
 300 900 l 1
 300 700 l 1
 100 700 l 1
EndSplineSet
Validated: 1
EndChar

StartChar: less
Encoding: 28 60 29
Width: 800
VWidth: 1000
Flags: HMW
LayerCount: 2
Fore
SplineSet
100 500 m 1
 100 700 l 1
 600 1200 l 1
 700 1200 l 1
 700 1000 l 1
 300 600 l 1
 700 200 l 1
 700 0 l 1
 600 0 l 1
 100 500 l 1
EndSplineSet
Validated: 1
EndChar

StartChar: equal
Encoding: 29 61 30
Width: 800
VWidth: 1000
Flags: HMW
LayerCount: 2
Fore
SplineSet
100 300 m 1
 100 500 l 1
 700 500 l 1
 700 300 l 1
 100 300 l 1
100 700 m 1
 100 900 l 1
 700 900 l 1
 700 700 l 1
 100 700 l 1
EndSplineSet
Validated: 1
EndChar

StartChar: greater
Encoding: 30 62 31
Width: 800
VWidth: 1000
Flags: HMW
LayerCount: 2
Fore
SplineSet
100 0 m 1
 100 200 l 1
 500 600 l 1
 100 1000 l 1
 100 1200 l 1
 200 1200 l 1
 700 700 l 1
 700 500 l 1
 200 0 l 1
 100 0 l 1
EndSplineSet
Validated: 1
EndChar

StartChar: question
Encoding: 31 63 32
Width: 1000
VWidth: 1000
Flags: HMW
LayerCount: 2
Fore
SplineSet
400 0 m 1
 400 200 l 1
 600 200 l 1
 600 0 l 1
 400 0 l 1
100 900 m 1
 100 1000 l 1
 300 1200 l 1
 700 1200 l 1
 900 1000 l 1
 900 700 l 1
 600 400 l 1
 400 400 l 1
 400 500 l 1
 700 800 l 1
 700 900 l 1
 600 1000 l 1
 400 1000 l 1
 300 900 l 1
 100 900 l 1
EndSplineSet
Validated: 1
EndChar

StartChar: at
Encoding: 32 64 33
Width: 1100
VWidth: 1000
Flags: HMW
LayerCount: 2
Fore
SplineSet
600 550 m 1
 650 500 l 1
 800 500 l 1
 800 700 l 1
 650 700 l 1
 600 650 l 1
 600 550 l 1
100 250 m 1
 100 950 l 1
 350 1200 l 1
 1000 1200 l 1
 1000 300 l 1
 550 300 l 1
 400 450 l 1
 400 750 l 1
 550 900 l 1
 800 900 l 1
 800 1000 l 1
 450 1000 l 1
 300 850 l 1
 300 350 l 1
 450 200 l 1
 1000 200 l 1
 1000 0 l 1
 350 0 l 1
 100 250 l 1
EndSplineSet
Validated: 1
EndChar

StartChar: A
Encoding: 33 65 34
Width: 1000
VWidth: 1000
Flags: HMW
LayerCount: 2
Fore
SplineSet
300 600 m 1
 700 600 l 1
 700 800 l 1
 500 1000 l 1
 300 800 l 1
 300 600 l 1
100 0 m 1
 100 900 l 1
 400 1200 l 1
 600 1200 l 1
 900 900 l 1
 900 0 l 1
 700 0 l 1
 700 400 l 1
 300 400 l 1
 300 0 l 1
 100 0 l 1
EndSplineSet
Validated: 1
EndChar

StartChar: B
Encoding: 34 66 35
Width: 1000
VWidth: 1000
Flags: HMW
LayerCount: 2
Fore
SplineSet
300 200 m 1
 600 200 l 1
 700 300 l 1
 700 350 l 1
 550 500 l 1
 300 500 l 1
 300 200 l 1
300 700 m 1
 550 700 l 1
 700 850 l 1
 700 900 l 1
 600 1000 l 1
 300 1000 l 1
 300 700 l 1
100 0 m 1
 100 1200 l 1
 700 1200 l 1
 900 1000 l 1
 900 750 l 1
 750 600 l 1
 900 450 l 1
 900 200 l 1
 700 0 l 1
 100 0 l 1
EndSplineSet
Validated: 1
EndChar

StartChar: C
Encoding: 35 67 36
Width: 1000
VWidth: 1000
Flags: HMW
LayerCount: 2
Fore
SplineSet
100 300 m 1
 100 900 l 1
 400 1200 l 1
 700 1200 l 1
 900 1000 l 1
 900 900 l 1
 700 900 l 1
 600 1000 l 1
 500 1000 l 1
 300 800 l 1
 300 400 l 1
 500 200 l 1
 600 200 l 1
 700 300 l 1
 900 300 l 1
 900 200 l 1
 700 0 l 1
 400 0 l 1
 100 300 l 1
EndSplineSet
Validated: 1
EndChar

StartChar: D
Encoding: 36 68 37
Width: 1000
VWidth: 1000
Flags: HMW
LayerCount: 2
Fore
SplineSet
300 200 m 1
 550 200 l 1
 700 350 l 1
 700 850 l 1
 550 1000 l 1
 300 1000 l 1
 300 200 l 1
100 0 m 1
 100 1200 l 1
 650 1200 l 1
 900 950 l 1
 900 250 l 1
 650 0 l 1
 100 0 l 1
EndSplineSet
Validated: 1
EndChar

StartChar: E
Encoding: 37 69 38
Width: 1000
VWidth: 1000
Flags: HMW
LayerCount: 2
Fore
SplineSet
100 0 m 1
 100 1200 l 1
 900 1200 l 1
 900 1000 l 1
 300 1000 l 1
 300 700 l 1
 700 700 l 1
 700 500 l 1
 300 500 l 1
 300 200 l 1
 900 200 l 1
 900 0 l 1
 100 0 l 1
EndSplineSet
Validated: 1
EndChar

StartChar: F
Encoding: 38 70 39
Width: 1000
VWidth: 1000
Flags: HMW
LayerCount: 2
Fore
SplineSet
100 0 m 1
 100 1200 l 1
 900 1200 l 1
 900 1000 l 1
 300 1000 l 1
 300 700 l 1
 700 700 l 1
 700 500 l 1
 300 500 l 1
 300 0 l 1
 100 0 l 1
EndSplineSet
Validated: 1
EndChar

StartChar: G
Encoding: 39 71 40
Width: 1000
VWidth: 1000
Flags: HMW
LayerCount: 2
Fore
SplineSet
100 300 m 1
 100 900 l 1
 400 1200 l 1
 700 1200 l 1
 900 1000 l 1
 900 900 l 1
 700 900 l 1
 600 1000 l 1
 500 1000 l 1
 300 800 l 1
 300 400 l 1
 500 200 l 1
 700 200 l 1
 700 500 l 1
 500 500 l 1
 500 700 l 1
 900 700 l 1
 900 0 l 1
 400 0 l 1
 100 300 l 1
EndSplineSet
Validated: 1
EndChar

StartChar: H
Encoding: 40 72 41
Width: 1000
VWidth: 1000
Flags: HMW
LayerCount: 2
Fore
SplineSet
100 0 m 1
 100 1200 l 1
 300 1200 l 1
 300 700 l 1
 700 700 l 1
 700 1200 l 1
 900 1200 l 1
 900 0 l 1
 700 0 l 1
 700 500 l 1
 300 500 l 1
 300 0 l 1
 100 0 l 1
EndSplineSet
Validated: 1
EndChar

StartChar: I
Encoding: 41 73 42
Width: 800
VWidth: 1000
Flags: HMW
LayerCount: 2
Fore
SplineSet
100 0 m 1
 100 200 l 1
 300 200 l 1
 300 1000 l 1
 100 1000 l 1
 100 1200 l 1
 700 1200 l 1
 700 1000 l 1
 500 1000 l 1
 500 200 l 1
 700 200 l 1
 700 0 l 1
 100 0 l 1
EndSplineSet
Validated: 1
EndChar

StartChar: J
Encoding: 42 74 43
Width: 1000
VWidth: 1000
Flags: HMW
LayerCount: 2
Fore
SplineSet
100 200 m 1
 100 300 l 1
 300 300 l 1
 400 200 l 1
 500 200 l 1
 600 300 l 1
 600 1000 l 1
 400 1000 l 1
 400 1200 l 1
 900 1200 l 1
 900 1000 l 1
 800 1000 l 1
 800 200 l 1
 600 0 l 1
 300 0 l 1
 100 200 l 1
EndSplineSet
Validated: 1
EndChar

StartChar: K
Encoding: 43 75 44
Width: 1000
VWidth: 1000
Flags: HMW
LayerCount: 2
Fore
SplineSet
100 0 m 1
 100 1200 l 1
 300 1200 l 1
 300 800 l 1
 700 1200 l 1
 900 1200 l 1
 900 1100 l 1
 400 600 l 1
 900 100 l 1
 900 0 l 1
 700 0 l 1
 300 400 l 1
 300 0 l 1
 100 0 l 1
EndSplineSet
Validated: 1
EndChar

StartChar: L
Encoding: 44 76 45
Width: 1000
VWidth: 1000
Flags: HMW
LayerCount: 2
Fore
SplineSet
100 0 m 1
 100 1200 l 1
 300 1200 l 1
 300 200 l 1
 900 200 l 1
 900 0 l 1
 100 0 l 1
EndSplineSet
Validated: 1
EndChar

StartChar: M
Encoding: 45 77 46
Width: 1200
VWidth: 1000
Flags: HMW
LayerCount: 2
Fore
SplineSet
100 0 m 1
 100 1200 l 1
 300 1200 l 1
 600 900 l 1
 900 1200 l 1
 1100 1200 l 1
 1100 0 l 1
 900 0 l 1
 900 900 l 1
 700 700 l 1
 700 500 l 1
 500 500 l 1
 500 700 l 1
 300 900 l 1
 300 0 l 1
 100 0 l 1
EndSplineSet
Validated: 1
EndChar

StartChar: N
Encoding: 46 78 47
Width: 1000
VWidth: 1000
Flags: HMW
LayerCount: 2
Fore
SplineSet
100 0 m 1
 100 1200 l 1
 300 1200 l 1
 300 950 l 1
 700 550 l 1
 700 1200 l 1
 900 1200 l 1
 900 0 l 1
 700 0 l 1
 700 250 l 1
 300 650 l 1
 300 0 l 1
 100 0 l 1
EndSplineSet
Validated: 1
EndChar

StartChar: O
Encoding: 47 79 48
Width: 1000
VWidth: 1000
Flags: HMW
LayerCount: 2
Fore
SplineSet
300 300 m 1
 400 200 l 1
 600 200 l 1
 700 300 l 1
 700 900 l 1
 600 1000 l 1
 400 1000 l 1
 300 900 l 1
 300 300 l 1
100 200 m 1
 100 1000 l 1
 300 1200 l 1
 700 1200 l 1
 900 1000 l 1
 900 200 l 1
 700 0 l 1
 300 0 l 1
 100 200 l 1
EndSplineSet
Validated: 1
EndChar

StartChar: P
Encoding: 48 80 49
Width: 1000
VWidth: 1000
Flags: HMW
LayerCount: 2
Fore
SplineSet
300 700 m 1
 600 700 l 1
 700 800 l 1
 700 900 l 1
 600 1000 l 1
 300 1000 l 1
 300 700 l 1
100 0 m 1
 100 1200 l 1
 700 1200 l 1
 900 1000 l 1
 900 700 l 1
 700 500 l 1
 300 500 l 1
 300 0 l 1
 100 0 l 1
EndSplineSet
Validated: 1
EndChar

StartChar: Q
Encoding: 49 81 50
Width: 1000
VWidth: 1000
Flags: HMW
LayerCount: 2
Fore
SplineSet
300 300 m 1
 400 200 l 1
 500 200 l 1
 400 300 l 1
 400 400 l 1
 600 400 l 1
 650 350 l 1
 700 400 l 1
 700 900 l 1
 600 1000 l 1
 400 1000 l 1
 300 900 l 1
 300 300 l 1
100 200 m 1
 100 1000 l 1
 300 1200 l 1
 700 1200 l 1
 900 1000 l 1
 900 300 l 1
 800 200 l 1
 900 100 l 1
 900 0 l 1
 700 0 l 1
 650 50 l 1
 600 0 l 1
 300 0 l 1
 100 200 l 1
EndSplineSet
Validated: 1
EndChar

StartChar: R
Encoding: 50 82 51
Width: 1000
VWidth: 1000
Flags: HMW
LayerCount: 2
Fore
SplineSet
300 700 m 1
 600 700 l 1
 700 800 l 1
 700 900 l 1
 600 1000 l 1
 300 1000 l 1
 300 700 l 1
100 0 m 1
 100 1200 l 1
 700 1200 l 1
 900 1000 l 1
 900 700 l 1
 700 500 l 1
 500 500 l 1
 900 100 l 1
 900 0 l 1
 700 0 l 1
 300 400 l 1
 300 0 l 1
 100 0 l 1
EndSplineSet
Validated: 1
EndChar

StartChar: S
Encoding: 51 83 52
Width: 1000
VWidth: 1000
Flags: HMW
LayerCount: 2
Fore
SplineSet
100 200 m 1
 100 300 l 1
 300 300 l 1
 400 200 l 1
 600 200 l 1
 700 300 l 1
 700 400 l 1
 600 500 l 1
 300 500 l 1
 100 700 l 1
 100 1000 l 1
 300 1200 l 1
 700 1200 l 1
 900 1000 l 1
 900 900 l 1
 700 900 l 1
 600 1000 l 1
 400 1000 l 1
 300 900 l 1
 300 800 l 1
 400 700 l 1
 700 700 l 1
 900 500 l 1
 900 200 l 1
 700 0 l 1
 300 0 l 1
 100 200 l 1
EndSplineSet
Validated: 1
EndChar

StartChar: T
Encoding: 52 84 53
Width: 1000
VWidth: 1000
Flags: HMW
LayerCount: 2
Fore
SplineSet
100 1000 m 1
 100 1200 l 1
 900 1200 l 1
 900 1000 l 1
 600 1000 l 1
 600 0 l 1
 400 0 l 1
 400 1000 l 1
 100 1000 l 1
EndSplineSet
Validated: 1
EndChar

StartChar: U
Encoding: 53 85 54
Width: 1000
VWidth: 1000
Flags: HMW
LayerCount: 2
Fore
SplineSet
100 200 m 1
 100 1200 l 1
 300 1200 l 1
 300 300 l 1
 400 200 l 1
 600 200 l 1
 700 300 l 1
 700 1200 l 1
 900 1200 l 1
 900 200 l 1
 700 0 l 1
 300 0 l 1
 100 200 l 1
EndSplineSet
Validated: 1
EndChar

StartChar: V
Encoding: 54 86 55
Width: 1000
VWidth: 1000
Flags: HMW
LayerCount: 2
Fore
SplineSet
100 300 m 1
 100 1200 l 1
 300 1200 l 1
 300 400 l 1
 500 200 l 1
 700 400 l 1
 700 1200 l 1
 900 1200 l 1
 900 300 l 1
 600 0 l 1
 400 0 l 1
 100 300 l 1
EndSplineSet
Validated: 1
EndChar

StartChar: W
Encoding: 55 87 56
Width: 1200
VWidth: 1000
Flags: HMW
LayerCount: 2
Fore
SplineSet
100 0 m 1
 100 1200 l 1
 300 1200 l 1
 300 300 l 1
 500 500 l 1
 500 700 l 1
 700 700 l 1
 700 500 l 1
 900 300 l 1
 900 1200 l 1
 1100 1200 l 1
 1100 0 l 1
 900 0 l 1
 600 300 l 1
 300 0 l 1
 100 0 l 1
EndSplineSet
Validated: 1
EndChar

StartChar: X
Encoding: 56 88 57
Width: 1000
VWidth: 1000
Flags: HMW
LayerCount: 2
Fore
SplineSet
100 0 m 1
 100 350 l 1
 350 600 l 1
 100 850 l 1
 100 1200 l 1
 300 1200 l 1
 300 950 l 1
 500 750 l 1
 700 950 l 1
 700 1200 l 1
 900 1200 l 1
 900 850 l 1
 650 600 l 1
 900 350 l 1
 900 0 l 1
 700 0 l 1
 700 250 l 1
 500 450 l 1
 300 250 l 1
 300 0 l 1
 100 0 l 1
EndSplineSet
Validated: 1
EndChar

StartChar: Y
Encoding: 57 89 58
Width: 1000
VWidth: 1000
Flags: HMW
LayerCount: 2
Fore
SplineSet
100 750 m 1
 100 1200 l 1
 300 1200 l 1
 300 850 l 1
 500 650 l 1
 700 850 l 1
 700 1200 l 1
 900 1200 l 1
 900 750 l 1
 600 450 l 1
 600 0 l 1
 400 0 l 1
 400 450 l 1
 100 750 l 1
EndSplineSet
Validated: 1
EndChar

StartChar: Z
Encoding: 58 90 59
Width: 1000
VWidth: 1000
Flags: HMW
LayerCount: 2
Fore
SplineSet
100 0 m 1
 100 350 l 1
 700 950 l 1
 700 1000 l 1
 100 1000 l 1
 100 1200 l 1
 900 1200 l 1
 900 850 l 1
 300 250 l 1
 300 200 l 1
 900 200 l 1
 900 0 l 1
 100 0 l 1
EndSplineSet
Validated: 1
EndChar

StartChar: bracketleft
Encoding: 59 91 60
Width: 600
VWidth: 1000
Flags: HMW
LayerCount: 2
Fore
SplineSet
100 -200 m 1
 100 1200 l 1
 500 1200 l 1
 500 1000 l 1
 300 1000 l 1
 300 0 l 1
 500 0 l 1
 500 -200 l 1
 100 -200 l 1
EndSplineSet
Validated: 1
EndChar

StartChar: backslash
Encoding: 60 92 61
Width: 1000
VWidth: 1000
Flags: HMW
LayerCount: 2
Fore
SplineSet
100 850 m 1
 100 1000 l 1
 250 1000 l 1
 900 350 l 1
 900 200 l 1
 750 200 l 1
 100 850 l 1
EndSplineSet
Validated: 1
EndChar

StartChar: bracketright
Encoding: 61 93 62
Width: 600
VWidth: 1000
Flags: HMW
LayerCount: 2
Fore
SplineSet
100 0 m 1
 300 0 l 1
 300 1000 l 1
 100 1000 l 1
 100 1200 l 1
 500 1200 l 1
 500 -200 l 1
 100 -200 l 1
 100 0 l 1
EndSplineSet
Validated: 1
EndChar

StartChar: asciicircum
Encoding: 62 94 63
Width: 1000
VWidth: 1000
Flags: HMW
LayerCount: 2
Fore
SplineSet
100 800 m 1
 100 900 l 1
 400 1200 l 1
 600 1200 l 1
 900 900 l 1
 900 800 l 1
 700 800 l 1
 500 1000 l 1
 300 800 l 1
 100 800 l 1
EndSplineSet
Validated: 1
EndChar

StartChar: underscore
Encoding: 63 95 64
Width: 800
VWidth: 1000
Flags: HMW
LayerCount: 2
Fore
SplineSet
100 0 m 1
 700 0 l 1
 700 -200 l 1
 100 -200 l 1
 100 0 l 1
EndSplineSet
Validated: 1
EndChar

StartChar: grave
Encoding: 64 96 65
Width: 700
VWidth: 1000
Flags: HMW
LayerCount: 2
Fore
SplineSet
100 1100 m 1
 100 1200 l 1
 300 1200 l 1
 600 900 l 1
 600 800 l 1
 400 800 l 1
 100 1100 l 1
EndSplineSet
Validated: 1
EndChar

StartChar: a
Encoding: 65 97 66
Width: 1000
VWidth: 1000
Flags: HMW
LayerCount: 2
Fore
SplineSet
300 250 m 1
 350 200 l 1
 700 200 l 1
 700 300 l 1
 350 300 l 1
 300 250 l 1
100 150 m 1
 100 350 l 1
 250 500 l 1
 700 500 l 1
 600 600 l 1
 300 600 l 1
 300 800 l 1
 700 800 l 1
 900 600 l 1
 900 0 l 1
 250 0 l 1
 100 150 l 1
EndSplineSet
Validated: 1
Substitution2: "'smcp' Lowercase to Small Capitals lookup 5-1" a.sc
EndChar

StartChar: b
Encoding: 66 98 67
Width: 1000
VWidth: 1000
Flags: HMW
LayerCount: 2
Fore
SplineSet
300 200 m 1
 600 200 l 1
 700 300 l 1
 700 500 l 1
 600 600 l 1
 300 600 l 1
 300 200 l 1
100 0 m 1
 100 1200 l 1
 300 1200 l 1
 300 800 l 1
 700 800 l 1
 900 600 l 1
 900 200 l 1
 700 0 l 1
 100 0 l 1
EndSplineSet
Validated: 1
Substitution2: "'smcp' Lowercase to Small Capitals lookup 5-1" b.sc
EndChar

StartChar: c
Encoding: 67 99 68
Width: 1000
VWidth: 1000
Flags: HMW
LayerCount: 2
Fore
SplineSet
100 200 m 1
 100 600 l 1
 300 800 l 1
 700 800 l 1
 900 600 l 1
 900 500 l 1
 700 500 l 1
 600 600 l 1
 400 600 l 1
 300 500 l 1
 300 300 l 1
 400 200 l 1
 600 200 l 1
 700 300 l 1
 900 300 l 1
 900 200 l 1
 700 0 l 1
 300 0 l 1
 100 200 l 1
EndSplineSet
Validated: 1
Substitution2: "'smcp' Lowercase to Small Capitals lookup 5-1" c.sc
EndChar

StartChar: d
Encoding: 68 100 69
Width: 1000
VWidth: 1000
Flags: HMW
LayerCount: 2
Fore
SplineSet
300 300 m 1
 400 200 l 1
 700 200 l 1
 700 600 l 1
 400 600 l 1
 300 500 l 1
 300 300 l 1
100 200 m 1
 100 600 l 1
 300 800 l 1
 700 800 l 1
 700 1200 l 1
 900 1200 l 1
 900 0 l 1
 300 0 l 1
 100 200 l 1
EndSplineSet
Validated: 1
Substitution2: "'smcp' Lowercase to Small Capitals lookup 5-1" d.sc
EndChar

StartChar: e
Encoding: 69 101 70
Width: 1000
VWidth: 1000
Flags: HMW
LayerCount: 2
Fore
SplineSet
300 500 m 1
 700 500 l 1
 600 600 l 1
 400 600 l 1
 300 500 l 1
100 200 m 1
 100 600 l 1
 300 800 l 1
 700 800 l 1
 900 600 l 1
 900 300 l 1
 300 300 l 1
 400 200 l 1
 900 200 l 1
 900 0 l 1
 300 0 l 1
 100 200 l 1
EndSplineSet
Validated: 1
Substitution2: "'smcp' Lowercase to Small Capitals lookup 5-1" e.sc
EndChar

StartChar: f
Encoding: 70 102 71
Width: 800
VWidth: 1000
Flags: HMW
LayerCount: 2
Fore
SplineSet
100 600 m 1
 100 800 l 1
 300 800 l 1
 300 1000 l 1
 500 1200 l 1
 700 1200 l 1
 700 1000 l 1
 600 1000 l 1
 500 900 l 1
 500 800 l 1
 700 800 l 1
 700 600 l 1
 500 600 l 1
 500 0 l 1
 300 0 l 1
 300 600 l 1
 100 600 l 1
EndSplineSet
Validated: 1
Substitution2: "'smcp' Lowercase to Small Capitals lookup 5-1" f.sc
EndChar

StartChar: g
Encoding: 71 103 72
Width: 1200
VWidth: 1000
Flags: HMW
LayerCount: 2
Fore
SplineSet
300 550 m 1
 350 500 l 1
 600 500 l 1
 600 550 l 1
 550 600 l 1
 350 600 l 1
 300 550 l 1
100 -50 m 1
 250 100 l 1
 400 100 l 1
 400 -100 l 1
 350 -100 l 1
 300 -150 l 1
 350 -200 l 1
 850 -200 l 1
 900 -150 l 1
 850 -100 l 1
 500 -100 l 1
 500 100 l 1
 600 100 l 1
 600 300 l 1
 250 300 l 1
 100 450 l 1
 100 650 l 1
 250 800 l 1
 650 800 l 1
 800 650 l 1
 800 500 l 1
 850 500 l 1
 900 550 l 1
 900 800 l 1
 1100 800 l 1
 1100 450 l 1
 950 300 l 1
 800 300 l 1
 800 100 l 1
 950 100 l 1
 1100 -50 l 1
 1100 -250 l 1
 950 -400 l 1
 250 -400 l 1
 100 -250 l 1
 100 -50 l 1
EndSplineSet
Validated: 1
Substitution2: "'smcp' Lowercase to Small Capitals lookup 5-1" g.sc
EndChar

StartChar: h
Encoding: 72 104 73
Width: 1000
VWidth: 1000
Flags: HMW
LayerCount: 2
Fore
SplineSet
100 0 m 1
 100 1200 l 1
 300 1200 l 1
 300 800 l 1
 700 800 l 1
 900 600 l 1
 900 0 l 1
 700 0 l 1
 700 500 l 1
 600 600 l 1
 300 600 l 1
 300 0 l 1
 100 0 l 1
EndSplineSet
Validated: 1
Substitution2: "'smcp' Lowercase to Small Capitals lookup 5-1" h.sc
EndChar

StartChar: i
Encoding: 73 105 74
Width: 400
VWidth: 1000
Flags: HMW
LayerCount: 2
Fore
SplineSet
100 0 m 1
 100 800 l 1
 300 800 l 1
 300 0 l 1
 100 0 l 1
100 1000 m 1
 100 1200 l 1
 300 1200 l 1
 300 1000 l 1
 100 1000 l 1
EndSplineSet
Validated: 1
Substitution2: "'smcp' Lowercase to Small Capitals lookup 5-1" i.sc
Substitution2: "'locl' Localized Forms in Latin lookup 1-1" i.locl
EndChar

StartChar: j
Encoding: 74 106 75
Width: 400
VWidth: 1000
Flags: HMW
LayerCount: 2
Fore
SplineSet
100 -400 m 1
 100 800 l 1
 300 800 l 1
 300 -400 l 1
 100 -400 l 1
100 1000 m 1
 100 1200 l 1
 300 1200 l 1
 300 1000 l 1
 100 1000 l 1
EndSplineSet
Validated: 1
Substitution2: "'smcp' Lowercase to Small Capitals lookup 5-1" j.sc
EndChar

StartChar: k
Encoding: 75 107 76
Width: 1000
VWidth: 1000
Flags: HMW
LayerCount: 2
Fore
SplineSet
100 0 m 1
 100 1200 l 1
 300 1200 l 1
 300 500 l 1
 400 500 l 1
 700 800 l 1
 900 800 l 1
 900 700 l 1
 600 400 l 1
 900 100 l 1
 900 0 l 1
 700 0 l 1
 400 300 l 1
 300 300 l 1
 300 0 l 1
 100 0 l 1
EndSplineSet
Validated: 1
Substitution2: "'smcp' Lowercase to Small Capitals lookup 5-1" k.sc
EndChar

StartChar: l
Encoding: 76 108 77
Width: 400
VWidth: 1000
Flags: HMW
LayerCount: 2
Fore
SplineSet
100 0 m 1
 100 1200 l 1
 300 1200 l 1
 300 0 l 1
 100 0 l 1
EndSplineSet
Validated: 1
Substitution2: "'smcp' Lowercase to Small Capitals lookup 5-1" l.sc
EndChar

StartChar: m
Encoding: 77 109 78
Width: 1200
VWidth: 1000
Flags: HMW
LayerCount: 2
Fore
SplineSet
100 0 m 1
 100 800 l 1
 900 800 l 1
 1100 600 l 1
 1100 0 l 1
 900 0 l 1
 900 500 l 1
 800 600 l 1
 700 600 l 1
 700 200 l 1
 500 200 l 1
 500 600 l 1
 300 600 l 1
 300 0 l 1
 100 0 l 1
EndSplineSet
Validated: 1
Substitution2: "'smcp' Lowercase to Small Capitals lookup 5-1" m.sc
EndChar

StartChar: n
Encoding: 78 110 79
Width: 1000
VWidth: 1000
Flags: HMW
LayerCount: 2
Fore
SplineSet
100 0 m 1
 100 800 l 1
 700 800 l 1
 900 600 l 1
 900 0 l 1
 700 0 l 1
 700 500 l 1
 600 600 l 1
 300 600 l 1
 300 0 l 1
 100 0 l 1
EndSplineSet
Validated: 1
Substitution2: "'smcp' Lowercase to Small Capitals lookup 5-1" n.sc
EndChar

StartChar: o
Encoding: 79 111 80
Width: 1000
VWidth: 1000
Flags: HMW
LayerCount: 2
Fore
SplineSet
300 300 m 1
 400 200 l 1
 600 200 l 1
 700 300 l 1
 700 500 l 1
 600 600 l 1
 400 600 l 1
 300 500 l 1
 300 300 l 1
100 200 m 1
 100 600 l 1
 300 800 l 1
 700 800 l 1
 900 600 l 1
 900 200 l 1
 700 0 l 1
 300 0 l 1
 100 200 l 1
EndSplineSet
Validated: 1
Substitution2: "'smcp' Lowercase to Small Capitals lookup 5-1" o.sc
EndChar

StartChar: p
Encoding: 80 112 81
Width: 1000
VWidth: 1000
Flags: HMW
LayerCount: 2
Fore
SplineSet
300 200 m 1
 600 200 l 1
 700 300 l 1
 700 500 l 1
 600 600 l 1
 300 600 l 1
 300 200 l 1
100 -400 m 1
 100 800 l 1
 700 800 l 1
 900 600 l 1
 900 200 l 1
 700 0 l 1
 300 0 l 1
 300 -400 l 1
 100 -400 l 1
EndSplineSet
Validated: 1
Substitution2: "'smcp' Lowercase to Small Capitals lookup 5-1" p.sc
EndChar

StartChar: q
Encoding: 81 113 82
Width: 1000
VWidth: 1000
Flags: HMW
LayerCount: 2
Fore
SplineSet
300 300 m 1
 400 200 l 1
 700 200 l 1
 700 600 l 1
 400 600 l 1
 300 500 l 1
 300 300 l 1
100 200 m 1
 100 600 l 1
 300 800 l 1
 900 800 l 1
 900 -400 l 1
 700 -400 l 1
 700 0 l 1
 300 0 l 1
 100 200 l 1
EndSplineSet
Validated: 1
Substitution2: "'smcp' Lowercase to Small Capitals lookup 5-1" q.sc
EndChar

StartChar: r
Encoding: 82 114 83
Width: 600
VWidth: 1000
Flags: HMW
LayerCount: 2
Fore
SplineSet
100 0 m 1
 100 800 l 1
 500 800 l 1
 500 600 l 1
 300 600 l 1
 300 0 l 1
 100 0 l 1
EndSplineSet
Validated: 1
Substitution2: "'smcp' Lowercase to Small Capitals lookup 5-1" r.sc
EndChar

StartChar: s
Encoding: 83 115 84
Width: 800
VWidth: 1000
Flags: HMW
LayerCount: 2
Fore
SplineSet
100 0 m 1
 100 200 l 1
 450 200 l 1
 500 250 l 1
 450 300 l 1
 250 300 l 1
 100 450 l 1
 100 650 l 1
 250 800 l 1
 700 800 l 1
 700 600 l 1
 350 600 l 1
 300 550 l 1
 350 500 l 1
 550 500 l 1
 700 350 l 1
 700 150 l 1
 550 0 l 1
 100 0 l 1
EndSplineSet
Validated: 1
Substitution2: "'smcp' Lowercase to Small Capitals lookup 5-1" s.sc
EndChar

StartChar: t
Encoding: 84 116 85
Width: 800
VWidth: 1000
Flags: HMW
LayerCount: 2
Fore
SplineSet
100 600 m 1
 100 800 l 1
 300 800 l 1
 300 1200 l 1
 500 1200 l 1
 500 800 l 1
 700 800 l 1
 700 600 l 1
 500 600 l 1
 500 0 l 1
 300 0 l 1
 300 600 l 1
 100 600 l 1
EndSplineSet
Validated: 1
Substitution2: "'smcp' Lowercase to Small Capitals lookup 5-1" t.sc
EndChar

StartChar: u
Encoding: 85 117 86
Width: 1000
VWidth: 1000
Flags: HMW
LayerCount: 2
Fore
SplineSet
100 200 m 1
 100 800 l 1
 300 800 l 1
 300 300 l 1
 400 200 l 1
 700 200 l 1
 700 800 l 1
 900 800 l 1
 900 0 l 1
 300 0 l 1
 100 200 l 1
EndSplineSet
Validated: 1
Substitution2: "'smcp' Lowercase to Small Capitals lookup 5-1" u.sc
EndChar

StartChar: v
Encoding: 86 118 87
Width: 1000
VWidth: 1000
Flags: HMW
LayerCount: 2
Fore
SplineSet
100 300 m 1
 100 800 l 1
 300 800 l 1
 300 400 l 1
 500 200 l 1
 700 400 l 1
 700 800 l 1
 900 800 l 1
 900 300 l 1
 600 0 l 1
 400 0 l 1
 100 300 l 1
EndSplineSet
Validated: 1
Substitution2: "'smcp' Lowercase to Small Capitals lookup 5-1" v.sc
EndChar

StartChar: w
Encoding: 87 119 88
Width: 1200
VWidth: 1000
Flags: HMW
LayerCount: 2
Fore
SplineSet
100 200 m 1
 100 800 l 1
 300 800 l 1
 300 300 l 1
 400 200 l 1
 500 200 l 1
 500 800 l 1
 700 800 l 1
 700 200 l 1
 800 200 l 1
 900 300 l 1
 900 800 l 1
 1100 800 l 1
 1100 200 l 1
 900 0 l 1
 300 0 l 1
 100 200 l 1
EndSplineSet
Validated: 1
Substitution2: "'smcp' Lowercase to Small Capitals lookup 5-1" w.sc
EndChar

StartChar: x
Encoding: 88 120 89
Width: 1000
VWidth: 1000
Flags: HMW
LayerCount: 2
Fore
SplineSet
100 0 m 1
 100 150 l 1
 350 400 l 1
 100 650 l 1
 100 800 l 1
 250 800 l 1
 500 550 l 1
 750 800 l 1
 900 800 l 1
 900 650 l 1
 650 400 l 1
 900 150 l 1
 900 0 l 1
 750 0 l 1
 500 250 l 1
 250 0 l 1
 100 0 l 1
EndSplineSet
Validated: 1
Substitution2: "'smcp' Lowercase to Small Capitals lookup 5-1" x.sc
EndChar

StartChar: y
Encoding: 89 121 90
Width: 1000
VWidth: 1000
Flags: HMW
LayerCount: 2
Fore
SplineSet
100 200 m 1
 100 800 l 1
 300 800 l 1
 300 300 l 1
 400 200 l 1
 700 200 l 1
 700 800 l 1
 900 800 l 1
 900 -200 l 1
 700 -400 l 1
 300 -400 l 1
 300 -200 l 1
 600 -200 l 1
 700 -100 l 1
 700 0 l 1
 300 0 l 1
 100 200 l 1
EndSplineSet
Validated: 1
Substitution2: "'smcp' Lowercase to Small Capitals lookup 5-1" y.sc
EndChar

StartChar: z
Encoding: 90 122 91
Width: 1000
VWidth: 1000
Flags: HMW
LayerCount: 2
Fore
SplineSet
100 0 m 1
 100 150 l 1
 550 600 l 1
 100 600 l 1
 100 800 l 1
 900 800 l 1
 900 650 l 1
 450 200 l 1
 900 200 l 1
 900 0 l 1
 100 0 l 1
EndSplineSet
Validated: 1
Substitution2: "'smcp' Lowercase to Small Capitals lookup 5-1" z.sc
EndChar

StartChar: braceleft
Encoding: 91 123 92
Width: 600
VWidth: 1000
Flags: HMW
LayerCount: 2
Fore
SplineSet
100 0 m 1
 100 250 l 1
 200 350 l 1
 150 400 l 1
 100 400 l 1
 100 600 l 1
 150 600 l 1
 200 650 l 1
 100 750 l 1
 100 1000 l 1
 300 1200 l 1
 500 1200 l 1
 500 1000 l 1
 400 1000 l 1
 300 900 l 1
 300 850 l 1
 400 750 l 1
 400 600 l 1
 300 500 l 1
 400 400 l 1
 400 250 l 1
 300 150 l 1
 300 100 l 1
 400 0 l 1
 500 0 l 1
 500 -200 l 1
 300 -200 l 1
 100 0 l 1
EndSplineSet
Validated: 1
EndChar

StartChar: bar
Encoding: 92 124 93
Width: 400
VWidth: 1000
Flags: HMW
LayerCount: 2
Fore
SplineSet
100 -200 m 1
 100 1200 l 1
 300 1200 l 1
 300 -200 l 1
 100 -200 l 1
EndSplineSet
Validated: 1
EndChar

StartChar: braceright
Encoding: 93 125 94
Width: 600
VWidth: 1000
Flags: HMW
LayerCount: 2
Fore
SplineSet
100 0 m 1
 200 0 l 1
 300 100 l 1
 300 150 l 1
 200 250 l 1
 200 400 l 1
 300 500 l 1
 200 600 l 1
 200 750 l 1
 300 850 l 1
 300 900 l 1
 200 1000 l 1
 100 1000 l 1
 100 1200 l 1
 300 1200 l 1
 500 1000 l 1
 500 750 l 1
 400 650 l 1
 450 600 l 1
 500 600 l 1
 500 400 l 1
 450 400 l 1
 400 350 l 1
 500 250 l 1
 500 0 l 1
 300 -200 l 1
 100 -200 l 1
 100 0 l 1
EndSplineSet
Validated: 1
EndChar

StartChar: asciitilde
Encoding: 94 126 95
Width: 1100
VWidth: 1000
Flags: HMW
LayerCount: 2
Fore
SplineSet
100 500 m 1
 100 600 l 1
 300 800 l 1
 500 800 l 1
 700 600 l 1
 800 700 l 1
 1000 700 l 1
 1000 600 l 1
 800 400 l 1
 600 400 l 1
 400 600 l 1
 300 500 l 1
 100 500 l 1
EndSplineSet
Validated: 1
EndChar

StartChar: exclamdown
Encoding: 96 161 97
Width: 400
VWidth: 1000
Flags: HMW
LayerCount: 2
Fore
SplineSet
100 -400 m 1
 100 400 l 1
 300 400 l 1
 300 -400 l 1
 100 -400 l 1
100 600 m 1
 100 800 l 1
 300 800 l 1
 300 600 l 1
 100 600 l 1
EndSplineSet
Validated: 1
EndChar

StartChar: cent
Encoding: 97 162 98
Width: 1000
VWidth: 1000
Flags: HMW
LayerCount: 2
Fore
SplineSet
100 400 m 1
 100 800 l 1
 300 1000 l 1
 400 1000 l 1
 400 1200 l 1
 600 1200 l 1
 600 1000 l 1
 700 1000 l 1
 900 800 l 1
 900 700 l 1
 700 700 l 1
 600 800 l 1
 400 800 l 1
 300 700 l 1
 300 500 l 1
 400 400 l 1
 600 400 l 1
 700 500 l 1
 900 500 l 1
 900 400 l 1
 700 200 l 1
 600 200 l 1
 600 0 l 1
 400 0 l 1
 400 200 l 1
 300 200 l 1
 100 400 l 1
EndSplineSet
Validated: 1
EndChar

StartChar: sterling
Encoding: 98 163 99
Width: 1400
VWidth: 1000
Flags: HMW
LayerCount: 2
Fore
SplineSet
300 250 m 1
 350 200 l 1
 550 200 l 1
 600 250 l 1
 600 300 l 1
 350 300 l 1
 300 250 l 1
100 150 m 1
 100 350 l 1
 250 500 l 1
 600 500 l 1
 600 600 l 1
 400 600 l 1
 400 800 l 1
 600 800 l 1
 600 1000 l 1
 800 1200 l 1
 1100 1200 l 1
 1300 1000 l 1
 1300 900 l 1
 1100 900 l 1
 1000 1000 l 1
 900 1000 l 1
 800 900 l 1
 800 800 l 1
 1000 800 l 1
 1000 600 l 1
 800 600 l 1
 800 500 l 1
 900 500 l 1
 1300 100 l 1
 1300 0 l 1
 1100 0 l 1
 800 300 l 1
 800 150 l 1
 650 0 l 1
 250 0 l 1
 100 150 l 1
EndSplineSet
Validated: 1
EndChar

StartChar: currency
Encoding: 99 164 100
Width: 1200
VWidth: 1000
Flags: HMW
LayerCount: 2
Fore
SplineSet
400 500 m 1
 500 400 l 1
 700 400 l 1
 800 500 l 1
 800 700 l 1
 700 800 l 1
 500 800 l 1
 400 700 l 1
 400 500 l 1
100 100 m 1
 100 250 l 1
 225 375 l 1
 200 400 l 1
 200 800 l 1
 225 825 l 1
 100 950 l 1
 100 1100 l 1
 250 1100 l 1
 375 975 l 1
 400 1000 l 1
 800 1000 l 1
 825 975 l 1
 950 1100 l 1
 1100 1100 l 1
 1100 950 l 1
 975 825 l 1
 1000 800 l 1
 1000 400 l 1
 975 375 l 1
 1100 250 l 1
 1100 100 l 1
 950 100 l 1
 825 225 l 1
 800 200 l 1
 400 200 l 1
 375 225 l 1
 250 100 l 1
 100 100 l 1
EndSplineSet
Validated: 1
EndChar

StartChar: yen
Encoding: 100 165 101
Width: 1000
VWidth: 1000
Flags: HMW
LayerCount: 2
Fore
SplineSet
100 750 m 1
 100 1200 l 1
 300 1200 l 1
 300 850 l 1
 500 650 l 1
 700 850 l 1
 700 1200 l 1
 900 1200 l 1
 900 750 l 1
 600 450 l 1
 600 400 l 1
 800 400 l 1
 800 300 l 1
 600 300 l 1
 600 200 l 1
 800 200 l 1
 800 100 l 1
 600 100 l 1
 600 0 l 1
 400 0 l 1
 400 100 l 1
 200 100 l 1
 200 200 l 1
 400 200 l 1
 400 300 l 1
 200 300 l 1
 200 400 l 1
 400 400 l 1
 400 450 l 1
 100 750 l 1
EndSplineSet
Validated: 1
EndChar

StartChar: brokenbar
Encoding: 101 166 102
Width: 400
VWidth: 1000
Flags: HMW
LayerCount: 2
Fore
SplineSet
100 -200 m 1
 100 400 l 1
 300 400 l 1
 300 -200 l 1
 100 -200 l 1
100 600 m 1
 100 1200 l 1
 300 1200 l 1
 300 600 l 1
 100 600 l 1
EndSplineSet
Validated: 1
EndChar

StartChar: section
Encoding: 102 167 103
Width: 1000
VWidth: 1000
Flags: HMW
LayerCount: 2
Fore
SplineSet
300 450 m 1
 350 400 l 1
 600 400 l 1
 700 500 l 1
 700 550 l 1
 650 600 l 1
 400 600 l 1
 300 500 l 1
 300 450 l 1
100 0 m 1
 650 0 l 1
 700 50 l 1
 700 100 l 1
 600 200 l 1
 250 200 l 1
 100 350 l 1
 100 600 l 1
 200 700 l 1
 100 800 l 1
 100 1050 l 1
 250 1200 l 1
 900 1200 l 1
 900 1000 l 1
 350 1000 l 1
 300 950 l 1
 300 900 l 1
 400 800 l 1
 750 800 l 1
 900 650 l 1
 900 400 l 1
 800 300 l 1
 900 200 l 1
 900 -50 l 1
 750 -200 l 1
 100 -200 l 1
 100 0 l 1
EndSplineSet
Validated: 1
EndChar

StartChar: dieresis
Encoding: 103 168 104
Width: 800
VWidth: 1000
Flags: HMW
LayerCount: 2
Fore
SplineSet
100 1000 m 1
 100 1200 l 1
 300 1200 l 1
 300 1000 l 1
 100 1000 l 1
500 1000 m 1
 500 1200 l 1
 700 1200 l 1
 700 1000 l 1
 500 1000 l 1
EndSplineSet
Validated: 1
EndChar

StartChar: copyright
Encoding: 104 169 105
Width: 1400
VWidth: 1000
Flags: HMW
LayerCount: 2
Fore
SplineSet
400 350 m 1
 400 850 l 1
 550 1000 l 1
 850 1000 l 1
 1000 850 l 1
 1000 700 l 1
 800 700 l 1
 800 750 l 1
 750 800 l 1
 650 800 l 1
 600 750 l 1
 600 450 l 1
 650 400 l 1
 750 400 l 1
 800 450 l 1
 800 500 l 1
 1000 500 l 1
 1000 350 l 1
 850 200 l 1
 550 200 l 1
 400 350 l 1
200 300 m 1
 400 100 l 1
 1000 100 l 1
 1200 300 l 1
 1200 900 l 1
 1000 1100 l 1
 400 1100 l 1
 200 900 l 1
 200 300 l 1
100 250 m 1
 100 950 l 1
 350 1200 l 1
 1050 1200 l 1
 1300 950 l 1
 1300 250 l 1
 1050 0 l 1
 350 0 l 1
 100 250 l 1
EndSplineSet
Validated: 1
EndChar

StartChar: ordfeminine
Encoding: 105 170 106
Width: 800
VWidth: 1000
Flags: HMW
LayerCount: 2
Fore
SplineSet
200 300 m 1
 200 500 l 1
 600 500 l 1
 600 300 l 1
 200 300 l 1
300 850 m 1
 350 800 l 1
 500 800 l 1
 500 900 l 1
 350 900 l 1
 300 850 l 1
100 750 m 1
 100 950 l 1
 250 1100 l 1
 500 1100 l 1
 500 1150 l 1
 450 1200 l 1
 200 1200 l 1
 200 1400 l 1
 550 1400 l 1
 700 1250 l 1
 700 600 l 1
 250 600 l 1
 100 750 l 1
EndSplineSet
Validated: 1
EndChar

StartChar: guillemotleft
Encoding: 106 171 107
Width: 1200
VWidth: 1000
Flags: HMW
LayerCount: 2
Fore
SplineSet
100 500 m 1
 100 700 l 1
 400 1000 l 1
 500 1000 l 1
 500 800 l 1
 300 600 l 1
 500 400 l 1
 500 200 l 1
 400 200 l 1
 100 500 l 1
700 500 m 1
 700 700 l 1
 1000 1000 l 1
 1100 1000 l 1
 1100 800 l 1
 900 600 l 1
 1100 400 l 1
 1100 200 l 1
 1000 200 l 1
 700 500 l 1
EndSplineSet
Validated: 1
EndChar

StartChar: logicalnot
Encoding: 107 172 108
Width: 800
VWidth: 1000
Flags: HMW
LayerCount: 2
Fore
SplineSet
100 600 m 1
 100 800 l 1
 700 800 l 1
 700 400 l 1
 500 400 l 1
 500 600 l 1
 100 600 l 1
EndSplineSet
Validated: 1
EndChar

StartChar: uniAD
Encoding: 108 173 109
Width: 800
VWidth: 1000
Flags: HMW
LayerCount: 2
Fore
SplineSet
100 500 m 1
 100 700 l 1
 700 700 l 1
 700 500 l 1
 100 500 l 1
EndSplineSet
Validated: 1
EndChar

StartChar: registered
Encoding: 109 174 110
Width: 1400
VWidth: 1000
Flags: HMW
LayerCount: 2
Fore
SplineSet
600 700 m 1
 800 700 l 1
 800 750 l 1
 750 800 l 1
 600 800 l 1
 600 700 l 1
400 200 m 1
 400 1000 l 1
 850 1000 l 1
 1000 850 l 1
 1000 600 l 1
 900 600 l 1
 1000 500 l 1
 1000 200 l 1
 800 200 l 1
 800 400 l 1
 700 500 l 1
 600 500 l 1
 600 200 l 1
 400 200 l 1
200 300 m 1
 400 100 l 1
 1000 100 l 1
 1200 300 l 1
 1200 900 l 1
 1000 1100 l 1
 400 1100 l 1
 200 900 l 1
 200 300 l 1
100 250 m 1
 100 950 l 1
 350 1200 l 1
 1050 1200 l 1
 1300 950 l 1
 1300 250 l 1
 1050 0 l 1
 350 0 l 1
 100 250 l 1
EndSplineSet
Validated: 1
EndChar

StartChar: macron
Encoding: 110 175 111
Width: 800
VWidth: 1000
Flags: HMW
LayerCount: 2
Fore
SplineSet
100 1000 m 1
 100 1200 l 1
 700 1200 l 1
 700 1000 l 1
 100 1000 l 1
EndSplineSet
Validated: 1
EndChar

StartChar: degree
Encoding: 111 176 112
Width: 800
VWidth: 1000
Flags: HMW
LayerCount: 2
Fore
SplineSet
300 850 m 1
 350 800 l 1
 450 800 l 1
 500 850 l 1
 500 950 l 1
 450 1000 l 1
 350 1000 l 1
 300 950 l 1
 300 850 l 1
100 750 m 1
 100 1050 l 1
 250 1200 l 1
 550 1200 l 1
 700 1050 l 1
 700 750 l 1
 550 600 l 1
 250 600 l 1
 100 750 l 1
EndSplineSet
Validated: 1
EndChar

StartChar: plusminus
Encoding: 112 177 113
Width: 800
VWidth: 1000
Flags: HMW
LayerCount: 2
Fore
SplineSet
100 0 m 1
 100 200 l 1
 700 200 l 1
 700 0 l 1
 100 0 l 1
100 500 m 1
 100 700 l 1
 300 700 l 1
 300 900 l 1
 500 900 l 1
 500 700 l 1
 700 700 l 1
 700 500 l 1
 500 500 l 1
 500 300 l 1
 300 300 l 1
 300 500 l 1
 100 500 l 1
EndSplineSet
Validated: 1
EndChar

StartChar: uniB2
Encoding: 113 178 114
Width: 800
VWidth: 1000
Flags: HMW
LayerCount: 2
Fore
SplineSet
100 600 m 1
 100 950 l 1
 250 1100 l 1
 450 1100 l 1
 500 1150 l 1
 450 1200 l 1
 100 1200 l 1
 100 1400 l 1
 550 1400 l 1
 700 1250 l 1
 700 1050 l 1
 550 900 l 1
 350 900 l 1
 300 850 l 1
 300 800 l 1
 700 800 l 1
 700 600 l 1
 100 600 l 1
EndSplineSet
Validated: 1
EndChar

StartChar: uniB3
Encoding: 114 179 115
Width: 800
VWidth: 1000
Flags: HMW
LayerCount: 2
Fore
SplineSet
100 600 m 1
 100 800 l 1
 450 800 l 1
 500 850 l 1
 500 900 l 1
 300 900 l 1
 300 1100 l 1
 500 1100 l 1
 500 1150 l 1
 450 1200 l 1
 100 1200 l 1
 100 1400 l 1
 550 1400 l 1
 700 1250 l 1
 700 750 l 1
 550 600 l 1
 100 600 l 1
EndSplineSet
Validated: 1
EndChar

StartChar: acute
Encoding: 115 180 116
Width: 700
VWidth: 1000
Flags: HMW
LayerCount: 2
Fore
SplineSet
100 800 m 1
 100 900 l 1
 400 1200 l 1
 600 1200 l 1
 600 1100 l 1
 300 800 l 1
 100 800 l 1
EndSplineSet
Validated: 1
EndChar

StartChar: mu
Encoding: 116 181 117
Width: 1000
VWidth: 1000
Flags: HMW
LayerCount: 2
Fore
SplineSet
100 -400 m 1
 100 800 l 1
 300 800 l 1
 300 200 l 1
 500 200 l 1
 700 400 l 1
 700 800 l 1
 900 800 l 1
 900 0 l 1
 700 0 l 1
 700 100 l 1
 600 0 l 1
 300 0 l 1
 300 -400 l 1
 100 -400 l 1
EndSplineSet
Validated: 1
EndChar

StartChar: paragraph
Encoding: 117 182 118
Width: 1300
VWidth: 1000
Flags: HMW
LayerCount: 2
Fore
SplineSet
300 700 m 1
 400 600 l 1
 600 600 l 1
 600 1000 l 1
 400 1000 l 1
 300 900 l 1
 300 700 l 1
100 600 m 1
 100 1000 l 1
 300 1200 l 1
 1200 1200 l 1
 1200 1000 l 1
 1100 1000 l 1
 1100 0 l 1
 900 0 l 1
 900 1000 l 1
 800 1000 l 1
 800 0 l 1
 600 0 l 1
 600 400 l 1
 300 400 l 1
 100 600 l 1
EndSplineSet
Validated: 1
EndChar

StartChar: periodcentered
Encoding: 118 183 119
Width: 400
VWidth: 1000
Flags: HMW
LayerCount: 2
Fore
SplineSet
100 500 m 1
 100 700 l 1
 300 700 l 1
 300 500 l 1
 100 500 l 1
EndSplineSet
Validated: 1
EndChar

StartChar: cedilla
Encoding: 119 184 120
Width: 600
VWidth: 1000
Flags: HMW
LayerCount: 2
Fore
SplineSet
100 -200 m 1
 250 -200 l 1
 300 -150 l 1
 200 -50 l 1
 200 0 l 1
 400 0 l 1
 500 -100 l 1
 500 -250 l 1
 350 -400 l 1
 100 -400 l 1
 100 -200 l 1
EndSplineSet
Validated: 1
EndChar

StartChar: uniB9
Encoding: 120 185 121
Width: 800
VWidth: 1000
Flags: HMW
LayerCount: 2
Fore
SplineSet
100 600 m 1
 100 800 l 1
 300 800 l 1
 300 1100 l 1
 200 1100 l 1
 200 1200 l 1
 400 1400 l 1
 500 1400 l 1
 500 800 l 1
 700 800 l 1
 700 600 l 1
 100 600 l 1
EndSplineSet
Validated: 1
EndChar

StartChar: ordmasculine
Encoding: 121 186 122
Width: 800
VWidth: 1000
Flags: HMW
LayerCount: 2
Fore
SplineSet
200 300 m 1
 200 500 l 1
 600 500 l 1
 600 300 l 1
 200 300 l 1
300 850 m 1
 350 800 l 1
 450 800 l 1
 500 850 l 1
 500 1150 l 1
 450 1200 l 1
 350 1200 l 1
 300 1150 l 1
 300 850 l 1
100 750 m 1
 100 1250 l 1
 250 1400 l 1
 550 1400 l 1
 700 1250 l 1
 700 750 l 1
 550 600 l 1
 250 600 l 1
 100 750 l 1
EndSplineSet
Validated: 1
EndChar

StartChar: guillemotright
Encoding: 122 187 123
Width: 1200
VWidth: 1000
Flags: HMW
LayerCount: 2
Fore
SplineSet
100 200 m 1
 100 400 l 1
 300 600 l 1
 100 800 l 1
 100 1000 l 1
 200 1000 l 1
 500 700 l 1
 500 500 l 1
 200 200 l 1
 100 200 l 1
700 200 m 1
 700 400 l 1
 900 600 l 1
 700 800 l 1
 700 1000 l 1
 800 1000 l 1
 1100 700 l 1
 1100 500 l 1
 800 200 l 1
 700 200 l 1
EndSplineSet
Validated: 1
EndChar

StartChar: onequarter
Encoding: 123 188 124
Width: 1600
VWidth: 1000
Flags: HMW
LayerCount: 2
Fore
SplineSet
1100 0 m 1
 1100 -100 l 1
 1300 -100 l 1
 1300 200 l 1
 1100 0 l 1
900 100 m 1
 1200 400 l 1
 1500 400 l 1
 1500 -400 l 1
 1300 -400 l 1
 1300 -300 l 1
 900 -300 l 1
 900 100 l 1
400 200 m 1
 400 350 l 1
 1050 1000 l 1
 1200 1000 l 1
 1200 850 l 1
 550 200 l 1
 400 200 l 1
100 800 m 1
 100 1000 l 1
 300 1000 l 1
 300 1300 l 1
 200 1300 l 1
 200 1400 l 1
 400 1600 l 1
 500 1600 l 1
 500 1000 l 1
 700 1000 l 1
 700 800 l 1
 100 800 l 1
EndSplineSet
Validated: 1
EndChar

StartChar: onehalf
Encoding: 124 189 125
Width: 1600
VWidth: 1000
Flags: HMW
LayerCount: 2
Fore
SplineSet
900 -50 m 1
 1050 100 l 1
 1250 100 l 1
 1300 150 l 1
 1250 200 l 1
 900 200 l 1
 900 400 l 1
 1350 400 l 1
 1500 250 l 1
 1500 50 l 1
 1350 -100 l 1
 1150 -100 l 1
 1100 -150 l 1
 1100 -200 l 1
 1500 -200 l 1
 1500 -400 l 1
 900 -400 l 1
 900 -50 l 1
400 200 m 1
 400 350 l 1
 1050 1000 l 1
 1200 1000 l 1
 1200 850 l 1
 550 200 l 1
 400 200 l 1
100 800 m 1
 100 1000 l 1
 300 1000 l 1
 300 1300 l 1
 200 1300 l 1
 200 1400 l 1
 400 1600 l 1
 500 1600 l 1
 500 1000 l 1
 700 1000 l 1
 700 800 l 1
 100 800 l 1
EndSplineSet
Validated: 1
EndChar

StartChar: threequarters
Encoding: 125 190 126
Width: 1600
VWidth: 1000
Flags: HMW
LayerCount: 2
Fore
SplineSet
1100 0 m 1
 1100 -100 l 1
 1300 -100 l 1
 1300 200 l 1
 1100 0 l 1
900 100 m 1
 1200 400 l 1
 1500 400 l 1
 1500 -400 l 1
 1300 -400 l 1
 1300 -300 l 1
 900 -300 l 1
 900 100 l 1
400 200 m 1
 400 350 l 1
 1050 1000 l 1
 1200 1000 l 1
 1200 850 l 1
 550 200 l 1
 400 200 l 1
100 800 m 1
 100 1000 l 1
 450 1000 l 1
 500 1050 l 1
 500 1100 l 1
 300 1100 l 1
 300 1300 l 1
 500 1300 l 1
 500 1350 l 1
 450 1400 l 1
 100 1400 l 1
 100 1600 l 1
 550 1600 l 1
 700 1450 l 1
 700 950 l 1
 550 800 l 1
 100 800 l 1
EndSplineSet
Validated: 1
EndChar

StartChar: questiondown
Encoding: 126 191 127
Width: 1000
VWidth: 1000
Flags: HMW
LayerCount: 2
Fore
SplineSet
100 100 m 1
 400 400 l 1
 600 400 l 1
 600 300 l 1
 300 0 l 1
 300 -100 l 1
 400 -200 l 1
 600 -200 l 1
 700 -100 l 1
 900 -100 l 1
 900 -200 l 1
 700 -400 l 1
 300 -400 l 1
 100 -200 l 1
 100 100 l 1
400 600 m 1
 400 800 l 1
 600 800 l 1
 600 600 l 1
 400 600 l 1
EndSplineSet
Validated: 1
EndChar

StartChar: Agrave
Encoding: 127 192 128
Width: 1000
VWidth: 1000
Flags: HMW
LayerCount: 2
Fore
SplineSet
300 600 m 1
 700 600 l 1
 700 800 l 1
 500 1000 l 1
 300 800 l 1
 300 600 l 1
100 0 m 1
 100 900 l 1
 400 1200 l 1
 600 1200 l 1
 900 900 l 1
 900 0 l 1
 700 0 l 1
 700 400 l 1
 300 400 l 1
 300 0 l 1
 100 0 l 1
200 1500 m 1
 200 1600 l 1
 400 1600 l 1
 600 1400 l 1
 600 1300 l 1
 400 1300 l 1
 200 1500 l 1
EndSplineSet
Validated: 1
EndChar

StartChar: Aacute
Encoding: 128 193 129
Width: 1000
VWidth: 1000
Flags: HMW
LayerCount: 2
Fore
SplineSet
300 600 m 1
 700 600 l 1
 700 800 l 1
 500 1000 l 1
 300 800 l 1
 300 600 l 1
100 0 m 1
 100 900 l 1
 400 1200 l 1
 600 1200 l 1
 900 900 l 1
 900 0 l 1
 700 0 l 1
 700 400 l 1
 300 400 l 1
 300 0 l 1
 100 0 l 1
400 1300 m 1
 400 1400 l 1
 600 1600 l 1
 800 1600 l 1
 800 1500 l 1
 600 1300 l 1
 400 1300 l 1
EndSplineSet
Validated: 1
EndChar

StartChar: Acircumflex
Encoding: 129 194 130
Width: 1000
VWidth: 1000
Flags: HMW
LayerCount: 2
Fore
SplineSet
300 600 m 1
 700 600 l 1
 700 800 l 1
 500 1000 l 1
 300 800 l 1
 300 600 l 1
100 0 m 1
 100 900 l 1
 400 1200 l 1
 600 1200 l 1
 900 900 l 1
 900 0 l 1
 700 0 l 1
 700 400 l 1
 300 400 l 1
 300 0 l 1
 100 0 l 1
200 1300 m 1
 200 1400 l 1
 400 1600 l 1
 600 1600 l 1
 800 1400 l 1
 800 1300 l 1
 600 1300 l 1
 500 1400 l 1
 400 1300 l 1
 200 1300 l 1
EndSplineSet
Validated: 1
EndChar

StartChar: Atilde
Encoding: 130 195 131
Width: 1000
VWidth: 1000
Flags: HMW
LayerCount: 2
Fore
SplineSet
300 600 m 1
 700 600 l 1
 700 800 l 1
 500 1000 l 1
 300 800 l 1
 300 600 l 1
100 0 m 1
 100 900 l 1
 400 1200 l 1
 600 1200 l 1
 900 900 l 1
 900 0 l 1
 700 0 l 1
 700 400 l 1
 300 400 l 1
 300 0 l 1
 100 0 l 1
100 1300 m 1
 100 1400 l 1
 300 1600 l 1
 500 1600 l 1
 600 1500 l 1
 700 1600 l 1
 900 1600 l 1
 900 1500 l 1
 700 1300 l 1
 500 1300 l 1
 400 1400 l 1
 300 1300 l 1
 100 1300 l 1
EndSplineSet
Validated: 1
EndChar

StartChar: Adieresis
Encoding: 131 196 132
Width: 1000
VWidth: 1000
Flags: HMW
LayerCount: 2
Fore
SplineSet
300 600 m 1
 700 600 l 1
 700 800 l 1
 500 1000 l 1
 300 800 l 1
 300 600 l 1
100 0 m 1
 100 900 l 1
 400 1200 l 1
 600 1200 l 1
 900 900 l 1
 900 0 l 1
 700 0 l 1
 700 400 l 1
 300 400 l 1
 300 0 l 1
 100 0 l 1
200 1400 m 1
 200 1600 l 1
 400 1600 l 1
 400 1400 l 1
 200 1400 l 1
600 1400 m 1
 600 1600 l 1
 800 1600 l 1
 800 1400 l 1
 600 1400 l 1
EndSplineSet
Validated: 1
EndChar

StartChar: Aring
Encoding: 132 197 133
Width: 1000
VWidth: 1000
Flags: HMW
LayerCount: 2
Fore
SplineSet
300 600 m 1
 700 600 l 1
 700 800 l 1
 500 1000 l 1
 300 800 l 1
 300 600 l 1
400 1400 m 1
 500 1300 l 1
 600 1400 l 1
 500 1500 l 1
 400 1400 l 1
100 0 m 1
 100 900 l 1
 400 1200 l 1
 300 1200 l 1
 200 1300 l 1
 200 1500 l 1
 300 1600 l 1
 700 1600 l 1
 800 1500 l 1
 800 1300 l 1
 700 1200 l 1
 600 1200 l 1
 900 900 l 1
 900 0 l 1
 700 0 l 1
 700 400 l 1
 300 400 l 1
 300 0 l 1
 100 0 l 1
EndSplineSet
Validated: 1
EndChar

StartChar: AE
Encoding: 133 198 134
Width: 1200
VWidth: 1000
Flags: HMW
LayerCount: 2
Fore
SplineSet
300 600 m 1
 500 600 l 1
 500 1000 l 1
 300 800 l 1
 300 600 l 1
100 0 m 1
 100 900 l 1
 400 1200 l 1
 1100 1200 l 1
 1100 1000 l 1
 700 1000 l 1
 700 700 l 1
 900 700 l 1
 900 500 l 1
 700 500 l 1
 700 200 l 1
 1100 200 l 1
 1100 0 l 1
 500 0 l 1
 500 400 l 1
 300 400 l 1
 300 0 l 1
 100 0 l 1
EndSplineSet
Validated: 1
EndChar

StartChar: Ccedilla
Encoding: 134 199 135
Width: 1000
VWidth: 1000
Flags: HMW
LayerCount: 2
Fore
SplineSet
100 300 m 1
 100 900 l 1
 400 1200 l 1
 700 1200 l 1
 900 1000 l 1
 900 900 l 1
 700 900 l 1
 600 1000 l 1
 500 1000 l 1
 300 800 l 1
 300 400 l 1
 500 200 l 1
 600 200 l 1
 700 300 l 1
 900 300 l 1
 900 200 l 1
 700 0 l 1
 600 0 l 1
 700 -100 l 1
 700 -250 l 1
 550 -400 l 1
 300 -400 l 1
 300 -200 l 1
 450 -200 l 1
 500 -150 l 1
 400 -50 l 1
 400 0 l 1
 100 300 l 1
EndSplineSet
Validated: 1
EndChar

StartChar: Egrave
Encoding: 135 200 136
Width: 1000
VWidth: 1000
Flags: HMW
LayerCount: 2
Fore
SplineSet
100 0 m 1
 100 1200 l 1
 900 1200 l 1
 900 1000 l 1
 300 1000 l 1
 300 700 l 1
 700 700 l 1
 700 500 l 1
 300 500 l 1
 300 200 l 1
 900 200 l 1
 900 0 l 1
 100 0 l 1
200 1500 m 1
 200 1600 l 1
 400 1600 l 1
 600 1400 l 1
 600 1300 l 1
 400 1300 l 1
 200 1500 l 1
EndSplineSet
Validated: 1
EndChar

StartChar: Eacute
Encoding: 136 201 137
Width: 1000
VWidth: 1000
Flags: HMW
LayerCount: 2
Fore
SplineSet
100 0 m 1
 100 1200 l 1
 900 1200 l 1
 900 1000 l 1
 300 1000 l 1
 300 700 l 1
 700 700 l 1
 700 500 l 1
 300 500 l 1
 300 200 l 1
 900 200 l 1
 900 0 l 1
 100 0 l 1
400 1300 m 1
 400 1400 l 1
 600 1600 l 1
 800 1600 l 1
 800 1500 l 1
 600 1300 l 1
 400 1300 l 1
EndSplineSet
Validated: 1
EndChar

StartChar: Ecircumflex
Encoding: 137 202 138
Width: 1000
VWidth: 1000
Flags: HMW
LayerCount: 2
Fore
SplineSet
100 0 m 1
 100 1200 l 1
 900 1200 l 1
 900 1000 l 1
 300 1000 l 1
 300 700 l 1
 700 700 l 1
 700 500 l 1
 300 500 l 1
 300 200 l 1
 900 200 l 1
 900 0 l 1
 100 0 l 1
200 1300 m 1
 200 1400 l 1
 400 1600 l 1
 600 1600 l 1
 800 1400 l 1
 800 1300 l 1
 600 1300 l 1
 500 1400 l 1
 400 1300 l 1
 200 1300 l 1
EndSplineSet
Validated: 1
EndChar

StartChar: Edieresis
Encoding: 138 203 139
Width: 1000
VWidth: 1000
Flags: HMW
LayerCount: 2
Fore
SplineSet
100 0 m 1
 100 1200 l 1
 900 1200 l 1
 900 1000 l 1
 300 1000 l 1
 300 700 l 1
 700 700 l 1
 700 500 l 1
 300 500 l 1
 300 200 l 1
 900 200 l 1
 900 0 l 1
 100 0 l 1
200 1400 m 1
 200 1600 l 1
 400 1600 l 1
 400 1400 l 1
 200 1400 l 1
600 1400 m 1
 600 1600 l 1
 800 1600 l 1
 800 1400 l 1
 600 1400 l 1
EndSplineSet
Validated: 1
EndChar

StartChar: Igrave
Encoding: 139 204 140
Width: 800
VWidth: 1000
Flags: HMW
LayerCount: 2
Fore
SplineSet
100 0 m 1
 100 200 l 1
 300 200 l 1
 300 1000 l 1
 100 1000 l 1
 100 1200 l 1
 700 1200 l 1
 700 1000 l 1
 500 1000 l 1
 500 200 l 1
 700 200 l 1
 700 0 l 1
 100 0 l 1
100 1500 m 1
 100 1600 l 1
 300 1600 l 1
 500 1400 l 1
 500 1300 l 1
 300 1300 l 1
 100 1500 l 1
EndSplineSet
Validated: 1
EndChar

StartChar: Iacute
Encoding: 140 205 141
Width: 800
VWidth: 1000
Flags: HMW
LayerCount: 2
Fore
SplineSet
100 0 m 1
 100 200 l 1
 300 200 l 1
 300 1000 l 1
 100 1000 l 1
 100 1200 l 1
 700 1200 l 1
 700 1000 l 1
 500 1000 l 1
 500 200 l 1
 700 200 l 1
 700 0 l 1
 100 0 l 1
300 1300 m 1
 300 1400 l 1
 500 1600 l 1
 700 1600 l 1
 700 1500 l 1
 500 1300 l 1
 300 1300 l 1
EndSplineSet
Validated: 1
EndChar

StartChar: Icircumflex
Encoding: 141 206 142
Width: 800
VWidth: 1000
Flags: HMW
LayerCount: 2
Fore
SplineSet
100 0 m 1
 100 200 l 1
 300 200 l 1
 300 1000 l 1
 100 1000 l 1
 100 1200 l 1
 700 1200 l 1
 700 1000 l 1
 500 1000 l 1
 500 200 l 1
 700 200 l 1
 700 0 l 1
 100 0 l 1
100 1300 m 1
 100 1400 l 1
 300 1600 l 1
 500 1600 l 1
 700 1400 l 1
 700 1300 l 1
 500 1300 l 1
 400 1400 l 1
 300 1300 l 1
 100 1300 l 1
EndSplineSet
Validated: 1
EndChar

StartChar: Idieresis
Encoding: 142 207 143
Width: 800
VWidth: 1000
Flags: HMW
LayerCount: 2
Fore
SplineSet
100 0 m 1
 100 200 l 1
 300 200 l 1
 300 1000 l 1
 100 1000 l 1
 100 1200 l 1
 700 1200 l 1
 700 1000 l 1
 500 1000 l 1
 500 200 l 1
 700 200 l 1
 700 0 l 1
 100 0 l 1
100 1400 m 1
 100 1600 l 1
 300 1600 l 1
 300 1400 l 1
 100 1400 l 1
500 1400 m 1
 500 1600 l 1
 700 1600 l 1
 700 1400 l 1
 500 1400 l 1
EndSplineSet
Validated: 1
EndChar

StartChar: Eth
Encoding: 143 208 144
Width: 1100
VWidth: 1000
Flags: HMW
LayerCount: 2
Fore
SplineSet
400 200 m 1
 650 200 l 1
 800 350 l 1
 800 850 l 1
 650 1000 l 1
 400 1000 l 1
 400 700 l 1
 600 700 l 1
 600 500 l 1
 400 500 l 1
 400 200 l 1
100 500 m 1
 100 700 l 1
 200 700 l 1
 200 1200 l 1
 750 1200 l 1
 1000 950 l 1
 1000 250 l 1
 750 0 l 1
 200 0 l 1
 200 500 l 1
 100 500 l 1
EndSplineSet
Validated: 1
EndChar

StartChar: Ntilde
Encoding: 144 209 145
Width: 1000
VWidth: 1000
Flags: HMW
LayerCount: 2
Fore
SplineSet
100 0 m 1
 100 1200 l 1
 300 1200 l 1
 300 950 l 1
 700 550 l 1
 700 1200 l 1
 900 1200 l 1
 900 0 l 1
 700 0 l 1
 700 250 l 1
 300 650 l 1
 300 0 l 1
 100 0 l 1
100 1300 m 1
 100 1400 l 1
 300 1600 l 1
 500 1600 l 1
 600 1500 l 1
 700 1600 l 1
 900 1600 l 1
 900 1500 l 1
 700 1300 l 1
 500 1300 l 1
 400 1400 l 1
 300 1300 l 1
 100 1300 l 1
EndSplineSet
Validated: 1
EndChar

StartChar: Ograve
Encoding: 145 210 146
Width: 1000
VWidth: 1000
Flags: HMW
LayerCount: 2
Fore
SplineSet
300 300 m 1
 400 200 l 1
 600 200 l 1
 700 300 l 1
 700 900 l 1
 600 1000 l 1
 400 1000 l 1
 300 900 l 1
 300 300 l 1
100 200 m 1
 100 1000 l 1
 300 1200 l 1
 700 1200 l 1
 900 1000 l 1
 900 200 l 1
 700 0 l 1
 300 0 l 1
 100 200 l 1
200 1500 m 1
 200 1600 l 1
 400 1600 l 1
 600 1400 l 1
 600 1300 l 1
 400 1300 l 1
 200 1500 l 1
EndSplineSet
Validated: 1
EndChar

StartChar: Oacute
Encoding: 146 211 147
Width: 1000
VWidth: 1000
Flags: HMW
LayerCount: 2
Fore
SplineSet
300 300 m 1
 400 200 l 1
 600 200 l 1
 700 300 l 1
 700 900 l 1
 600 1000 l 1
 400 1000 l 1
 300 900 l 1
 300 300 l 1
100 200 m 1
 100 1000 l 1
 300 1200 l 1
 700 1200 l 1
 900 1000 l 1
 900 200 l 1
 700 0 l 1
 300 0 l 1
 100 200 l 1
400 1300 m 1
 400 1400 l 1
 600 1600 l 1
 800 1600 l 1
 800 1500 l 1
 600 1300 l 1
 400 1300 l 1
EndSplineSet
Validated: 1
EndChar

StartChar: Ocircumflex
Encoding: 147 212 148
Width: 1000
VWidth: 1000
Flags: HMW
LayerCount: 2
Fore
SplineSet
300 300 m 1
 400 200 l 1
 600 200 l 1
 700 300 l 1
 700 900 l 1
 600 1000 l 1
 400 1000 l 1
 300 900 l 1
 300 300 l 1
100 200 m 1
 100 1000 l 1
 300 1200 l 1
 700 1200 l 1
 900 1000 l 1
 900 200 l 1
 700 0 l 1
 300 0 l 1
 100 200 l 1
200 1300 m 1
 200 1400 l 1
 400 1600 l 1
 600 1600 l 1
 800 1400 l 1
 800 1300 l 1
 600 1300 l 1
 500 1400 l 1
 400 1300 l 1
 200 1300 l 1
EndSplineSet
Validated: 1
EndChar

StartChar: Otilde
Encoding: 148 213 149
Width: 1000
VWidth: 1000
Flags: HMW
LayerCount: 2
Fore
SplineSet
300 300 m 1
 400 200 l 1
 600 200 l 1
 700 300 l 1
 700 900 l 1
 600 1000 l 1
 400 1000 l 1
 300 900 l 1
 300 300 l 1
100 200 m 1
 100 1000 l 1
 300 1200 l 1
 700 1200 l 1
 900 1000 l 1
 900 200 l 1
 700 0 l 1
 300 0 l 1
 100 200 l 1
100 1300 m 1
 100 1400 l 1
 300 1600 l 1
 500 1600 l 1
 600 1500 l 1
 700 1600 l 1
 900 1600 l 1
 900 1500 l 1
 700 1300 l 1
 500 1300 l 1
 400 1400 l 1
 300 1300 l 1
 100 1300 l 1
EndSplineSet
Validated: 1
EndChar

StartChar: Odieresis
Encoding: 149 214 150
Width: 1000
VWidth: 1000
Flags: HMW
LayerCount: 2
Fore
SplineSet
300 300 m 1
 400 200 l 1
 600 200 l 1
 700 300 l 1
 700 900 l 1
 600 1000 l 1
 400 1000 l 1
 300 900 l 1
 300 300 l 1
100 200 m 1
 100 1000 l 1
 300 1200 l 1
 700 1200 l 1
 900 1000 l 1
 900 200 l 1
 700 0 l 1
 300 0 l 1
 100 200 l 1
200 1400 m 1
 200 1600 l 1
 400 1600 l 1
 400 1400 l 1
 200 1400 l 1
600 1400 m 1
 600 1600 l 1
 800 1600 l 1
 800 1400 l 1
 600 1400 l 1
EndSplineSet
Validated: 1
EndChar

StartChar: multiply
Encoding: 150 215 151
Width: 800
VWidth: 1000
Flags: HMW
LayerCount: 2
Fore
SplineSet
100 300 m 1
 100 450 l 1
 250 600 l 1
 100 750 l 1
 100 900 l 1
 250 900 l 1
 400 750 l 1
 550 900 l 1
 700 900 l 1
 700 750 l 1
 550 600 l 1
 700 450 l 1
 700 300 l 1
 550 300 l 1
 400 450 l 1
 250 300 l 1
 100 300 l 1
EndSplineSet
Validated: 1
EndChar

StartChar: Oslash
Encoding: 151 216 152
Width: 1000
VWidth: 1000
Flags: HMW
LayerCount: 2
Fore
SplineSet
325 275 m 1
 400 200 l 1
 600 200 l 1
 700 300 l 1
 700 650 l 1
 325 275 l 1
300 550 m 1
 675 925 l 1
 600 1000 l 1
 400 1000 l 1
 300 900 l 1
 300 550 l 1
100 200 m 1
 100 1000 l 1
 300 1200 l 1
 700 1200 l 1
 900 1000 l 1
 900 200 l 1
 700 0 l 1
 300 0 l 1
 100 200 l 1
EndSplineSet
Validated: 1
EndChar

StartChar: Ugrave
Encoding: 152 217 153
Width: 1000
VWidth: 1000
Flags: HMW
LayerCount: 2
Fore
SplineSet
100 200 m 1
 100 1200 l 1
 300 1200 l 1
 300 300 l 1
 400 200 l 1
 600 200 l 1
 700 300 l 1
 700 1200 l 1
 900 1200 l 1
 900 200 l 1
 700 0 l 1
 300 0 l 1
 100 200 l 1
200 1500 m 1
 200 1600 l 1
 400 1600 l 1
 600 1400 l 1
 600 1300 l 1
 400 1300 l 1
 200 1500 l 1
EndSplineSet
Validated: 1
EndChar

StartChar: Uacute
Encoding: 153 218 154
Width: 1000
VWidth: 1000
Flags: HMW
LayerCount: 2
Fore
SplineSet
100 200 m 1
 100 1200 l 1
 300 1200 l 1
 300 300 l 1
 400 200 l 1
 600 200 l 1
 700 300 l 1
 700 1200 l 1
 900 1200 l 1
 900 200 l 1
 700 0 l 1
 300 0 l 1
 100 200 l 1
400 1300 m 1
 400 1400 l 1
 600 1600 l 1
 800 1600 l 1
 800 1500 l 1
 600 1300 l 1
 400 1300 l 1
EndSplineSet
Validated: 1
EndChar

StartChar: Ucircumflex
Encoding: 154 219 155
Width: 1000
VWidth: 1000
Flags: HMW
LayerCount: 2
Fore
SplineSet
100 200 m 1
 100 1200 l 1
 300 1200 l 1
 300 300 l 1
 400 200 l 1
 600 200 l 1
 700 300 l 1
 700 1200 l 1
 900 1200 l 1
 900 200 l 1
 700 0 l 1
 300 0 l 1
 100 200 l 1
200 1300 m 1
 200 1400 l 1
 400 1600 l 1
 600 1600 l 1
 800 1400 l 1
 800 1300 l 1
 600 1300 l 1
 500 1400 l 1
 400 1300 l 1
 200 1300 l 1
EndSplineSet
Validated: 1
EndChar

StartChar: Udieresis
Encoding: 155 220 156
Width: 1000
VWidth: 1000
Flags: HMW
LayerCount: 2
Fore
SplineSet
100 200 m 1
 100 1200 l 1
 300 1200 l 1
 300 300 l 1
 400 200 l 1
 600 200 l 1
 700 300 l 1
 700 1200 l 1
 900 1200 l 1
 900 200 l 1
 700 0 l 1
 300 0 l 1
 100 200 l 1
200 1400 m 1
 200 1600 l 1
 400 1600 l 1
 400 1400 l 1
 200 1400 l 1
600 1400 m 1
 600 1600 l 1
 800 1600 l 1
 800 1400 l 1
 600 1400 l 1
EndSplineSet
Validated: 1
EndChar

StartChar: Yacute
Encoding: 156 221 157
Width: 1000
VWidth: 1000
Flags: HMW
LayerCount: 2
Fore
SplineSet
100 750 m 1
 100 1200 l 1
 300 1200 l 1
 300 850 l 1
 500 650 l 1
 700 850 l 1
 700 1200 l 1
 900 1200 l 1
 900 750 l 1
 600 450 l 1
 600 0 l 1
 400 0 l 1
 400 450 l 1
 100 750 l 1
400 1300 m 1
 400 1400 l 1
 600 1600 l 1
 800 1600 l 1
 800 1500 l 1
 600 1300 l 1
 400 1300 l 1
EndSplineSet
Validated: 1
EndChar

StartChar: Thorn
Encoding: 157 222 158
Width: 1000
VWidth: 1000
Flags: HMW
LayerCount: 2
Fore
SplineSet
300 450 m 1
 600 450 l 1
 700 550 l 1
 700 650 l 1
 600 750 l 1
 300 750 l 1
 300 450 l 1
100 0 m 1
 100 1200 l 1
 300 1200 l 1
 300 950 l 1
 700 950 l 1
 900 750 l 1
 900 450 l 1
 700 250 l 1
 300 250 l 1
 300 0 l 1
 100 0 l 1
EndSplineSet
Validated: 1
EndChar

StartChar: germandbls
Encoding: 158 223 159
Width: 1000
VWidth: 1000
Flags: HMW
LayerCount: 2
Fore
SplineSet
100 0 m 1
 100 1000 l 1
 300 1200 l 1
 700 1200 l 1
 900 1000 l 1
 900 750 l 1
 750 600 l 1
 900 450 l 1
 900 200 l 1
 700 0 l 1
 400 0 l 1
 400 200 l 1
 600 200 l 1
 700 300 l 1
 700 350 l 1
 550 500 l 1
 500 500 l 1
 500 650 l 1
 700 850 l 1
 700 900 l 1
 600 1000 l 1
 400 1000 l 1
 300 900 l 1
 300 0 l 1
 100 0 l 1
EndSplineSet
Validated: 1
Substitution2: "'smcp' Lowercase to Small Capitals lookup 5-1" germandbls.sc
EndChar

StartChar: agrave
Encoding: 159 224 160
Width: 1000
VWidth: 1000
Flags: HMW
LayerCount: 2
Fore
SplineSet
300 250 m 1
 350 200 l 1
 700 200 l 1
 700 300 l 1
 350 300 l 1
 300 250 l 1
100 150 m 1
 100 350 l 1
 250 500 l 1
 700 500 l 1
 600 600 l 1
 300 600 l 1
 300 800 l 1
 700 800 l 1
 900 600 l 1
 900 0 l 1
 250 0 l 1
 100 150 l 1
200 1100 m 1
 200 1200 l 1
 400 1200 l 1
 600 1000 l 1
 600 900 l 1
 400 900 l 1
 200 1100 l 1
EndSplineSet
Validated: 1
Substitution2: "'smcp' Lowercase to Small Capitals lookup 5-1" agrave.sc
EndChar

StartChar: aacute
Encoding: 160 225 161
Width: 1000
VWidth: 1000
Flags: HMW
LayerCount: 2
Fore
SplineSet
300 250 m 1
 350 200 l 1
 700 200 l 1
 700 300 l 1
 350 300 l 1
 300 250 l 1
100 150 m 1
 100 350 l 1
 250 500 l 1
 700 500 l 1
 600 600 l 1
 300 600 l 1
 300 800 l 1
 700 800 l 1
 900 600 l 1
 900 0 l 1
 250 0 l 1
 100 150 l 1
400 900 m 1
 400 1000 l 1
 600 1200 l 1
 800 1200 l 1
 800 1100 l 1
 600 900 l 1
 400 900 l 1
EndSplineSet
Validated: 1
Substitution2: "'smcp' Lowercase to Small Capitals lookup 5-1" aacute.sc
EndChar

StartChar: acircumflex
Encoding: 161 226 162
Width: 1000
VWidth: 1000
Flags: HMW
LayerCount: 2
Fore
SplineSet
300 250 m 1
 350 200 l 1
 700 200 l 1
 700 300 l 1
 350 300 l 1
 300 250 l 1
100 150 m 1
 100 350 l 1
 250 500 l 1
 700 500 l 1
 600 600 l 1
 300 600 l 1
 300 800 l 1
 700 800 l 1
 900 600 l 1
 900 0 l 1
 250 0 l 1
 100 150 l 1
200 900 m 1
 200 1000 l 1
 400 1200 l 1
 600 1200 l 1
 800 1000 l 1
 800 900 l 1
 600 900 l 1
 500 1000 l 1
 400 900 l 1
 200 900 l 1
EndSplineSet
Validated: 1
Substitution2: "'smcp' Lowercase to Small Capitals lookup 5-1" acircumflex.sc
EndChar

StartChar: atilde
Encoding: 162 227 163
Width: 1000
VWidth: 1000
Flags: HMW
LayerCount: 2
Fore
SplineSet
300 250 m 1
 350 200 l 1
 700 200 l 1
 700 300 l 1
 350 300 l 1
 300 250 l 1
100 150 m 1
 100 350 l 1
 250 500 l 1
 700 500 l 1
 600 600 l 1
 300 600 l 1
 300 800 l 1
 700 800 l 1
 900 600 l 1
 900 0 l 1
 250 0 l 1
 100 150 l 1
100 900 m 1
 100 1000 l 1
 300 1200 l 1
 500 1200 l 1
 600 1100 l 1
 700 1200 l 1
 900 1200 l 1
 900 1100 l 1
 700 900 l 1
 500 900 l 1
 400 1000 l 1
 300 900 l 1
 100 900 l 1
EndSplineSet
Validated: 1
Substitution2: "'smcp' Lowercase to Small Capitals lookup 5-1" atilde.sc
EndChar

StartChar: adieresis
Encoding: 163 228 164
Width: 1000
VWidth: 1000
Flags: HMW
LayerCount: 2
Fore
SplineSet
300 250 m 1
 350 200 l 1
 700 200 l 1
 700 300 l 1
 350 300 l 1
 300 250 l 1
100 150 m 1
 100 350 l 1
 250 500 l 1
 700 500 l 1
 600 600 l 1
 300 600 l 1
 300 800 l 1
 700 800 l 1
 900 600 l 1
 900 0 l 1
 250 0 l 1
 100 150 l 1
200 1000 m 1
 200 1200 l 1
 400 1200 l 1
 400 1000 l 1
 200 1000 l 1
600 1000 m 1
 600 1200 l 1
 800 1200 l 1
 800 1000 l 1
 600 1000 l 1
EndSplineSet
Validated: 1
Substitution2: "'smcp' Lowercase to Small Capitals lookup 5-1" adieresis.sc
EndChar

StartChar: aring
Encoding: 164 229 165
Width: 1000
VWidth: 1000
Flags: HMW
LayerCount: 2
Fore
SplineSet
300 250 m 1
 350 200 l 1
 700 200 l 1
 700 300 l 1
 350 300 l 1
 300 250 l 1
400 1000 m 1
 500 900 l 1
 600 1000 l 1
 500 1100 l 1
 400 1000 l 1
100 150 m 1
 100 350 l 1
 250 500 l 1
 700 500 l 1
 600 600 l 1
 300 600 l 1
 300 800 l 1
 200 900 l 1
 200 1100 l 1
 300 1200 l 1
 700 1200 l 1
 800 1100 l 1
 800 900 l 1
 700 800 l 1
 900 600 l 1
 900 0 l 1
 250 0 l 1
 100 150 l 1
EndSplineSet
Validated: 1
Substitution2: "'smcp' Lowercase to Small Capitals lookup 5-1" aring.sc
EndChar

StartChar: ae
Encoding: 165 230 166
Width: 1200
VWidth: 1000
Flags: HMW
LayerCount: 2
Fore
SplineSet
300 250 m 1
 350 200 l 1
 500 200 l 1
 500 300 l 1
 350 300 l 1
 300 250 l 1
700 500 m 1
 900 500 l 1
 800 600 l 1
 700 600 l 1
 700 500 l 1
100 150 m 1
 100 350 l 1
 250 500 l 1
 500 500 l 1
 500 600 l 1
 300 600 l 1
 300 800 l 1
 900 800 l 1
 1100 600 l 1
 1100 300 l 1
 700 300 l 1
 700 200 l 1
 1100 200 l 1
 1100 0 l 1
 250 0 l 1
 100 150 l 1
EndSplineSet
Validated: 1
Substitution2: "'smcp' Lowercase to Small Capitals lookup 5-1" ae.sc
EndChar

StartChar: ccedilla
Encoding: 166 231 167
Width: 1000
VWidth: 1000
Flags: HMW
LayerCount: 2
Fore
SplineSet
100 200 m 1
 100 600 l 1
 300 800 l 1
 700 800 l 1
 900 600 l 1
 900 500 l 1
 700 500 l 1
 600 600 l 1
 400 600 l 1
 300 500 l 1
 300 300 l 1
 400 200 l 1
 600 200 l 1
 700 300 l 1
 900 300 l 1
 900 200 l 1
 700 0 l 1
 600 0 l 1
 700 -100 l 1
 700 -250 l 1
 550 -400 l 1
 300 -400 l 1
 300 -200 l 1
 450 -200 l 1
 500 -150 l 1
 400 -50 l 1
 400 0 l 1
 300 0 l 1
 100 200 l 1
EndSplineSet
Validated: 1
Substitution2: "'smcp' Lowercase to Small Capitals lookup 5-1" ccedilla.sc
EndChar

StartChar: egrave
Encoding: 167 232 168
Width: 1000
VWidth: 1000
Flags: HMW
LayerCount: 2
Fore
SplineSet
300 500 m 1
 700 500 l 1
 600 600 l 1
 400 600 l 1
 300 500 l 1
100 200 m 1
 100 600 l 1
 300 800 l 1
 700 800 l 1
 900 600 l 1
 900 300 l 1
 300 300 l 1
 400 200 l 1
 900 200 l 1
 900 0 l 1
 300 0 l 1
 100 200 l 1
200 1100 m 1
 200 1200 l 1
 400 1200 l 1
 600 1000 l 1
 600 900 l 1
 400 900 l 1
 200 1100 l 1
EndSplineSet
Validated: 1
Substitution2: "'smcp' Lowercase to Small Capitals lookup 5-1" egrave.sc
EndChar

StartChar: eacute
Encoding: 168 233 169
Width: 1000
VWidth: 1000
Flags: HMW
LayerCount: 2
Fore
SplineSet
300 500 m 1
 700 500 l 1
 600 600 l 1
 400 600 l 1
 300 500 l 1
100 200 m 1
 100 600 l 1
 300 800 l 1
 700 800 l 1
 900 600 l 1
 900 300 l 1
 300 300 l 1
 400 200 l 1
 900 200 l 1
 900 0 l 1
 300 0 l 1
 100 200 l 1
400 900 m 1
 400 1000 l 1
 600 1200 l 1
 800 1200 l 1
 800 1100 l 1
 600 900 l 1
 400 900 l 1
EndSplineSet
Validated: 1
Substitution2: "'smcp' Lowercase to Small Capitals lookup 5-1" eacute.sc
EndChar

StartChar: ecircumflex
Encoding: 169 234 170
Width: 1000
VWidth: 1000
Flags: HMW
LayerCount: 2
Fore
SplineSet
300 500 m 1
 700 500 l 1
 600 600 l 1
 400 600 l 1
 300 500 l 1
100 200 m 1
 100 600 l 1
 300 800 l 1
 700 800 l 1
 900 600 l 1
 900 300 l 1
 300 300 l 1
 400 200 l 1
 900 200 l 1
 900 0 l 1
 300 0 l 1
 100 200 l 1
200 900 m 1
 200 1000 l 1
 400 1200 l 1
 600 1200 l 1
 800 1000 l 1
 800 900 l 1
 600 900 l 1
 500 1000 l 1
 400 900 l 1
 200 900 l 1
EndSplineSet
Validated: 1
Substitution2: "'smcp' Lowercase to Small Capitals lookup 5-1" ecircumflex.sc
EndChar

StartChar: edieresis
Encoding: 170 235 171
Width: 1000
VWidth: 1000
Flags: HMW
LayerCount: 2
Fore
SplineSet
300 500 m 1
 700 500 l 1
 600 600 l 1
 400 600 l 1
 300 500 l 1
100 200 m 1
 100 600 l 1
 300 800 l 1
 700 800 l 1
 900 600 l 1
 900 300 l 1
 300 300 l 1
 400 200 l 1
 900 200 l 1
 900 0 l 1
 300 0 l 1
 100 200 l 1
200 1000 m 1
 200 1200 l 1
 400 1200 l 1
 400 1000 l 1
 200 1000 l 1
600 1000 m 1
 600 1200 l 1
 800 1200 l 1
 800 1000 l 1
 600 1000 l 1
EndSplineSet
Validated: 1
Substitution2: "'smcp' Lowercase to Small Capitals lookup 5-1" edieresis.sc
EndChar

StartChar: igrave
Encoding: 171 236 172
Width: 600
VWidth: 1000
Flags: HMW
LayerCount: 2
Fore
SplineSet
300 0 m 1
 300 800 l 1
 500 800 l 1
 500 0 l 1
 300 0 l 1
100 1100 m 1
 100 1200 l 1
 300 1200 l 1
 500 1000 l 1
 500 900 l 1
 300 900 l 1
 100 1100 l 1
EndSplineSet
Validated: 1
Substitution2: "'smcp' Lowercase to Small Capitals lookup 5-1" igrave.sc
EndChar

StartChar: iacute
Encoding: 172 237 173
Width: 600
VWidth: 1000
Flags: HMW
LayerCount: 2
Fore
SplineSet
100 0 m 1
 100 800 l 1
 300 800 l 1
 300 0 l 1
 100 0 l 1
100 900 m 1
 100 1000 l 1
 300 1200 l 1
 500 1200 l 1
 500 1100 l 1
 300 900 l 1
 100 900 l 1
EndSplineSet
Validated: 1
Substitution2: "'smcp' Lowercase to Small Capitals lookup 5-1" iacute.sc
Substitution2: "'locl' Localized Forms in Latin lookup 2-1" iacute.locl
EndChar

StartChar: icircumflex
Encoding: 173 238 174
Width: 800
VWidth: 1000
Flags: HMW
LayerCount: 2
Fore
SplineSet
300 0 m 1
 300 800 l 1
 500 800 l 1
 500 0 l 1
 300 0 l 1
100 900 m 1
 100 1000 l 1
 300 1200 l 1
 500 1200 l 1
 700 1000 l 1
 700 900 l 1
 500 900 l 1
 400 1000 l 1
 300 900 l 1
 100 900 l 1
EndSplineSet
Validated: 1
Substitution2: "'smcp' Lowercase to Small Capitals lookup 5-1" icircumflex.sc
EndChar

StartChar: idieresis
Encoding: 174 239 175
Width: 800
VWidth: 1000
Flags: HMW
LayerCount: 2
Fore
SplineSet
300 0 m 1
 300 800 l 1
 500 800 l 1
 500 0 l 1
 300 0 l 1
100 1000 m 1
 100 1200 l 1
 300 1200 l 1
 300 1000 l 1
 100 1000 l 1
500 1000 m 1
 500 1200 l 1
 700 1200 l 1
 700 1000 l 1
 500 1000 l 1
EndSplineSet
Validated: 1
Substitution2: "'smcp' Lowercase to Small Capitals lookup 5-1" idieresis.sc
EndChar

StartChar: eth
Encoding: 175 240 176
Width: 1000
VWidth: 1000
Flags: HMW
LayerCount: 2
Fore
SplineSet
300 300 m 1
 400 200 l 1
 600 200 l 1
 700 300 l 1
 700 500 l 1
 400 500 l 1
 300 400 l 1
 300 300 l 1
100 200 m 1
 100 500 l 1
 300 700 l 1
 700 700 l 1
 500 900 l 1
 200 900 l 1
 200 1100 l 1
 300 1100 l 1
 300 1200 l 1
 500 1200 l 1
 600 1100 l 1
 900 1100 l 1
 900 900 l 1
 800 900 l 1
 900 800 l 1
 900 200 l 1
 700 0 l 1
 300 0 l 1
 100 200 l 1
EndSplineSet
Validated: 1
Substitution2: "'smcp' Lowercase to Small Capitals lookup 5-1" eth.sc
EndChar

StartChar: ntilde
Encoding: 176 241 177
Width: 1000
VWidth: 1000
Flags: HMW
LayerCount: 2
Fore
SplineSet
100 0 m 1
 100 800 l 1
 700 800 l 1
 900 600 l 1
 900 0 l 1
 700 0 l 1
 700 500 l 1
 600 600 l 1
 300 600 l 1
 300 0 l 1
 100 0 l 1
100 900 m 1
 100 1000 l 1
 300 1200 l 1
 500 1200 l 1
 600 1100 l 1
 700 1200 l 1
 900 1200 l 1
 900 1100 l 1
 700 900 l 1
 500 900 l 1
 400 1000 l 1
 300 900 l 1
 100 900 l 1
EndSplineSet
Validated: 1
Substitution2: "'smcp' Lowercase to Small Capitals lookup 5-1" ntilde.sc
EndChar

StartChar: ograve
Encoding: 177 242 178
Width: 1000
VWidth: 1000
Flags: HMW
LayerCount: 2
Fore
SplineSet
300 300 m 1
 400 200 l 1
 600 200 l 1
 700 300 l 1
 700 500 l 1
 600 600 l 1
 400 600 l 1
 300 500 l 1
 300 300 l 1
100 200 m 1
 100 600 l 1
 300 800 l 1
 700 800 l 1
 900 600 l 1
 900 200 l 1
 700 0 l 1
 300 0 l 1
 100 200 l 1
200 1100 m 1
 200 1200 l 1
 400 1200 l 1
 600 1000 l 1
 600 900 l 1
 400 900 l 1
 200 1100 l 1
EndSplineSet
Validated: 1
Substitution2: "'smcp' Lowercase to Small Capitals lookup 5-1" ograve.sc
EndChar

StartChar: oacute
Encoding: 178 243 179
Width: 1000
VWidth: 1000
Flags: HMW
LayerCount: 2
Fore
SplineSet
300 300 m 1
 400 200 l 1
 600 200 l 1
 700 300 l 1
 700 500 l 1
 600 600 l 1
 400 600 l 1
 300 500 l 1
 300 300 l 1
100 200 m 1
 100 600 l 1
 300 800 l 1
 700 800 l 1
 900 600 l 1
 900 200 l 1
 700 0 l 1
 300 0 l 1
 100 200 l 1
400 900 m 1
 400 1000 l 1
 600 1200 l 1
 800 1200 l 1
 800 1100 l 1
 600 900 l 1
 400 900 l 1
EndSplineSet
Validated: 1
Substitution2: "'smcp' Lowercase to Small Capitals lookup 5-1" oacute.sc
EndChar

StartChar: ocircumflex
Encoding: 179 244 180
Width: 1000
VWidth: 1000
Flags: HMW
LayerCount: 2
Fore
SplineSet
300 300 m 1
 400 200 l 1
 600 200 l 1
 700 300 l 1
 700 500 l 1
 600 600 l 1
 400 600 l 1
 300 500 l 1
 300 300 l 1
100 200 m 1
 100 600 l 1
 300 800 l 1
 700 800 l 1
 900 600 l 1
 900 200 l 1
 700 0 l 1
 300 0 l 1
 100 200 l 1
200 900 m 1
 200 1000 l 1
 400 1200 l 1
 600 1200 l 1
 800 1000 l 1
 800 900 l 1
 600 900 l 1
 500 1000 l 1
 400 900 l 1
 200 900 l 1
EndSplineSet
Validated: 1
Substitution2: "'smcp' Lowercase to Small Capitals lookup 5-1" ocircumflex.sc
EndChar

StartChar: otilde
Encoding: 180 245 181
Width: 1000
VWidth: 1000
Flags: HMW
LayerCount: 2
Fore
SplineSet
300 300 m 1
 400 200 l 1
 600 200 l 1
 700 300 l 1
 700 500 l 1
 600 600 l 1
 400 600 l 1
 300 500 l 1
 300 300 l 1
100 200 m 1
 100 600 l 1
 300 800 l 1
 700 800 l 1
 900 600 l 1
 900 200 l 1
 700 0 l 1
 300 0 l 1
 100 200 l 1
100 900 m 1
 100 1000 l 1
 300 1200 l 1
 500 1200 l 1
 600 1100 l 1
 700 1200 l 1
 900 1200 l 1
 900 1100 l 1
 700 900 l 1
 500 900 l 1
 400 1000 l 1
 300 900 l 1
 100 900 l 1
EndSplineSet
Validated: 1
Substitution2: "'smcp' Lowercase to Small Capitals lookup 5-1" otilde.sc
EndChar

StartChar: odieresis
Encoding: 181 246 182
Width: 1000
VWidth: 1000
Flags: HMW
LayerCount: 2
Fore
SplineSet
300 300 m 1
 400 200 l 1
 600 200 l 1
 700 300 l 1
 700 500 l 1
 600 600 l 1
 400 600 l 1
 300 500 l 1
 300 300 l 1
100 200 m 1
 100 600 l 1
 300 800 l 1
 700 800 l 1
 900 600 l 1
 900 200 l 1
 700 0 l 1
 300 0 l 1
 100 200 l 1
200 1000 m 1
 200 1200 l 1
 400 1200 l 1
 400 1000 l 1
 200 1000 l 1
600 1000 m 1
 600 1200 l 1
 800 1200 l 1
 800 1000 l 1
 600 1000 l 1
EndSplineSet
Validated: 1
Substitution2: "'smcp' Lowercase to Small Capitals lookup 5-1" odieresis.sc
EndChar

StartChar: divide
Encoding: 182 247 183
Width: 800
VWidth: 1000
Flags: HMW
LayerCount: 2
Fore
SplineSet
300 200 m 1
 300 400 l 1
 500 400 l 1
 500 200 l 1
 300 200 l 1
100 500 m 1
 100 700 l 1
 700 700 l 1
 700 500 l 1
 100 500 l 1
300 800 m 1
 300 1000 l 1
 500 1000 l 1
 500 800 l 1
 300 800 l 1
EndSplineSet
Validated: 1
EndChar

StartChar: oslash
Encoding: 183 248 184
Width: 1000
VWidth: 1000
Flags: HMW
LayerCount: 2
Fore
SplineSet
450 200 m 1
 600 200 l 1
 700 300 l 1
 700 450 l 1
 450 200 l 1
300 350 m 1
 550 600 l 1
 400 600 l 1
 300 500 l 1
 300 350 l 1
100 200 m 1
 100 600 l 1
 300 800 l 1
 700 800 l 1
 900 600 l 1
 900 200 l 1
 700 0 l 1
 300 0 l 1
 100 200 l 1
EndSplineSet
Validated: 1
Substitution2: "'smcp' Lowercase to Small Capitals lookup 5-1" oslash.sc
EndChar

StartChar: ugrave
Encoding: 184 249 185
Width: 1000
VWidth: 1000
Flags: HMW
LayerCount: 2
Fore
SplineSet
100 200 m 1
 100 800 l 1
 300 800 l 1
 300 300 l 1
 400 200 l 1
 700 200 l 1
 700 800 l 1
 900 800 l 1
 900 0 l 1
 300 0 l 1
 100 200 l 1
200 1100 m 1
 200 1200 l 1
 400 1200 l 1
 600 1000 l 1
 600 900 l 1
 400 900 l 1
 200 1100 l 1
EndSplineSet
Validated: 1
Substitution2: "'smcp' Lowercase to Small Capitals lookup 5-1" ugrave.sc
EndChar

StartChar: uacute
Encoding: 185 250 186
Width: 1000
VWidth: 1000
Flags: HMW
LayerCount: 2
Fore
SplineSet
100 200 m 1
 100 800 l 1
 300 800 l 1
 300 300 l 1
 400 200 l 1
 700 200 l 1
 700 800 l 1
 900 800 l 1
 900 0 l 1
 300 0 l 1
 100 200 l 1
400 900 m 1
 400 1000 l 1
 600 1200 l 1
 800 1200 l 1
 800 1100 l 1
 600 900 l 1
 400 900 l 1
EndSplineSet
Validated: 1
Substitution2: "'smcp' Lowercase to Small Capitals lookup 5-1" uacute.sc
EndChar

StartChar: ucircumflex
Encoding: 186 251 187
Width: 1000
VWidth: 1000
Flags: HMW
LayerCount: 2
Fore
SplineSet
100 200 m 1
 100 800 l 1
 300 800 l 1
 300 300 l 1
 400 200 l 1
 700 200 l 1
 700 800 l 1
 900 800 l 1
 900 0 l 1
 300 0 l 1
 100 200 l 1
200 900 m 1
 200 1000 l 1
 400 1200 l 1
 600 1200 l 1
 800 1000 l 1
 800 900 l 1
 600 900 l 1
 500 1000 l 1
 400 900 l 1
 200 900 l 1
EndSplineSet
Validated: 1
Substitution2: "'smcp' Lowercase to Small Capitals lookup 5-1" ucircumflex.sc
EndChar

StartChar: udieresis
Encoding: 187 252 188
Width: 1000
VWidth: 1000
Flags: HMW
LayerCount: 2
Fore
SplineSet
100 200 m 1
 100 800 l 1
 300 800 l 1
 300 300 l 1
 400 200 l 1
 700 200 l 1
 700 800 l 1
 900 800 l 1
 900 0 l 1
 300 0 l 1
 100 200 l 1
200 1000 m 1
 200 1200 l 1
 400 1200 l 1
 400 1000 l 1
 200 1000 l 1
600 1000 m 1
 600 1200 l 1
 800 1200 l 1
 800 1000 l 1
 600 1000 l 1
EndSplineSet
Validated: 1
Substitution2: "'smcp' Lowercase to Small Capitals lookup 5-1" udieresis.sc
EndChar

StartChar: yacute
Encoding: 188 253 189
Width: 1000
VWidth: 1000
Flags: HMW
LayerCount: 2
Fore
SplineSet
100 200 m 1
 100 800 l 1
 300 800 l 1
 300 300 l 1
 400 200 l 1
 700 200 l 1
 700 800 l 1
 900 800 l 1
 900 -200 l 1
 700 -400 l 1
 300 -400 l 1
 300 -200 l 1
 600 -200 l 1
 700 -100 l 1
 700 0 l 1
 300 0 l 1
 100 200 l 1
400 900 m 1
 400 1000 l 1
 600 1200 l 1
 800 1200 l 1
 800 1100 l 1
 600 900 l 1
 400 900 l 1
EndSplineSet
Validated: 1
Substitution2: "'smcp' Lowercase to Small Capitals lookup 5-1" yacute.sc
EndChar

StartChar: thorn
Encoding: 189 254 190
Width: 1000
VWidth: 1000
Flags: HMW
LayerCount: 2
Fore
SplineSet
300 200 m 1
 600 200 l 1
 700 300 l 1
 700 500 l 1
 600 600 l 1
 300 600 l 1
 300 200 l 1
100 -400 m 1
 100 1200 l 1
 300 1200 l 1
 300 800 l 1
 700 800 l 1
 900 600 l 1
 900 200 l 1
 700 0 l 1
 300 0 l 1
 300 -400 l 1
 100 -400 l 1
EndSplineSet
Validated: 1
Substitution2: "'smcp' Lowercase to Small Capitals lookup 5-1" thorn.sc
EndChar

StartChar: ydieresis
Encoding: 190 255 191
Width: 1000
VWidth: 1000
Flags: HMW
LayerCount: 2
Fore
SplineSet
100 200 m 1
 100 800 l 1
 300 800 l 1
 300 300 l 1
 400 200 l 1
 700 200 l 1
 700 800 l 1
 900 800 l 1
 900 -200 l 1
 700 -400 l 1
 300 -400 l 1
 300 -200 l 1
 600 -200 l 1
 700 -100 l 1
 700 0 l 1
 300 0 l 1
 100 200 l 1
200 1000 m 1
 200 1200 l 1
 400 1200 l 1
 400 1000 l 1
 200 1000 l 1
600 1000 m 1
 600 1200 l 1
 800 1200 l 1
 800 1000 l 1
 600 1000 l 1
EndSplineSet
Validated: 1
Substitution2: "'smcp' Lowercase to Small Capitals lookup 5-1" ydieresis.sc
EndChar

StartChar: Amacron
Encoding: 191 256 192
Width: 1000
VWidth: 1000
Flags: HMW
LayerCount: 2
Fore
SplineSet
300 600 m 1
 700 600 l 1
 700 800 l 1
 500 1000 l 1
 300 800 l 1
 300 600 l 1
100 0 m 1
 100 900 l 1
 400 1200 l 1
 600 1200 l 1
 900 900 l 1
 900 0 l 1
 700 0 l 1
 700 400 l 1
 300 400 l 1
 300 0 l 1
 100 0 l 1
200 1400 m 1
 200 1600 l 1
 800 1600 l 1
 800 1400 l 1
 200 1400 l 1
EndSplineSet
Validated: 1
EndChar

StartChar: amacron
Encoding: 192 257 193
Width: 1000
VWidth: 1000
Flags: HMW
LayerCount: 2
Fore
SplineSet
300 250 m 1
 350 200 l 1
 700 200 l 1
 700 300 l 1
 350 300 l 1
 300 250 l 1
100 150 m 1
 100 350 l 1
 250 500 l 1
 700 500 l 1
 600 600 l 1
 300 600 l 1
 300 800 l 1
 700 800 l 1
 900 600 l 1
 900 0 l 1
 250 0 l 1
 100 150 l 1
200 1000 m 1
 200 1200 l 1
 800 1200 l 1
 800 1000 l 1
 200 1000 l 1
EndSplineSet
Validated: 1
Substitution2: "'smcp' Lowercase to Small Capitals lookup 5-1" amacron.sc
EndChar

StartChar: Abreve
Encoding: 193 258 194
Width: 1000
VWidth: 1000
Flags: HMW
LayerCount: 2
Fore
SplineSet
300 600 m 1
 700 600 l 1
 700 800 l 1
 500 1000 l 1
 300 800 l 1
 300 600 l 1
100 0 m 1
 100 900 l 1
 400 1200 l 1
 600 1200 l 1
 900 900 l 1
 900 0 l 1
 700 0 l 1
 700 400 l 1
 300 400 l 1
 300 0 l 1
 100 0 l 1
100 1500 m 1
 100 1600 l 1
 300 1600 l 1
 400 1500 l 1
 600 1500 l 1
 700 1600 l 1
 900 1600 l 1
 900 1500 l 1
 700 1300 l 1
 300 1300 l 1
 100 1500 l 1
EndSplineSet
Validated: 1
EndChar

StartChar: abreve
Encoding: 194 259 195
Width: 1000
VWidth: 1000
Flags: HMW
LayerCount: 2
Fore
SplineSet
300 250 m 1
 350 200 l 1
 700 200 l 1
 700 300 l 1
 350 300 l 1
 300 250 l 1
100 150 m 1
 100 350 l 1
 250 500 l 1
 700 500 l 1
 600 600 l 1
 300 600 l 1
 300 800 l 1
 700 800 l 1
 900 600 l 1
 900 0 l 1
 250 0 l 1
 100 150 l 1
100 1100 m 1
 100 1200 l 1
 300 1200 l 1
 400 1100 l 1
 600 1100 l 1
 700 1200 l 1
 900 1200 l 1
 900 1100 l 1
 700 900 l 1
 300 900 l 1
 100 1100 l 1
EndSplineSet
Validated: 1
Substitution2: "'smcp' Lowercase to Small Capitals lookup 5-1" abreve.sc
EndChar

StartChar: Aogonek
Encoding: 195 260 196
Width: 1000
VWidth: 1000
Flags: HMW
LayerCount: 2
Fore
SplineSet
300 600 m 1
 700 600 l 1
 700 800 l 1
 500 1000 l 1
 300 800 l 1
 300 600 l 1
100 0 m 1
 100 900 l 1
 400 1200 l 1
 600 1200 l 1
 900 900 l 1
 900 0 l 1
 850 0 l 1
 700 -150 l 1
 750 -200 l 1
 900 -200 l 1
 900 -400 l 1
 650 -400 l 1
 500 -250 l 1
 500 -100 l 1
 700 100 l 1
 700 400 l 1
 300 400 l 1
 300 0 l 1
 100 0 l 1
EndSplineSet
Validated: 1
EndChar

StartChar: aogonek
Encoding: 196 261 197
Width: 1000
VWidth: 1000
Flags: HMW
LayerCount: 2
Fore
SplineSet
300 250 m 1
 350 200 l 1
 700 200 l 1
 700 300 l 1
 350 300 l 1
 300 250 l 1
100 150 m 1
 100 350 l 1
 250 500 l 1
 700 500 l 1
 600 600 l 1
 300 600 l 1
 300 800 l 1
 700 800 l 1
 900 600 l 1
 900 0 l 1
 850 0 l 1
 700 -150 l 1
 750 -200 l 1
 900 -200 l 1
 900 -400 l 1
 650 -400 l 1
 500 -250 l 1
 500 -100 l 1
 600 0 l 1
 250 0 l 1
 100 150 l 1
EndSplineSet
Validated: 1
Substitution2: "'smcp' Lowercase to Small Capitals lookup 5-1" aogonek.sc
EndChar

StartChar: Cacute
Encoding: 197 262 198
Width: 1000
VWidth: 1000
Flags: HMW
LayerCount: 2
Fore
SplineSet
100 300 m 1
 100 900 l 1
 400 1200 l 1
 700 1200 l 1
 900 1000 l 1
 900 900 l 1
 700 900 l 1
 600 1000 l 1
 500 1000 l 1
 300 800 l 1
 300 400 l 1
 500 200 l 1
 600 200 l 1
 700 300 l 1
 900 300 l 1
 900 200 l 1
 700 0 l 1
 400 0 l 1
 100 300 l 1
400 1300 m 1
 400 1400 l 1
 600 1600 l 1
 800 1600 l 1
 800 1500 l 1
 600 1300 l 1
 400 1300 l 1
EndSplineSet
Validated: 1
EndChar

StartChar: cacute
Encoding: 198 263 199
Width: 1000
VWidth: 1000
Flags: HMW
LayerCount: 2
Fore
SplineSet
100 200 m 1
 100 600 l 1
 300 800 l 1
 700 800 l 1
 900 600 l 1
 900 500 l 1
 700 500 l 1
 600 600 l 1
 400 600 l 1
 300 500 l 1
 300 300 l 1
 400 200 l 1
 600 200 l 1
 700 300 l 1
 900 300 l 1
 900 200 l 1
 700 0 l 1
 300 0 l 1
 100 200 l 1
400 900 m 1
 400 1000 l 1
 600 1200 l 1
 800 1200 l 1
 800 1100 l 1
 600 900 l 1
 400 900 l 1
EndSplineSet
Validated: 1
Substitution2: "'smcp' Lowercase to Small Capitals lookup 5-1" cacute.sc
EndChar

StartChar: Ccircumflex
Encoding: 199 264 200
Width: 1000
VWidth: 1000
Flags: HMW
LayerCount: 2
Fore
SplineSet
100 300 m 1
 100 900 l 1
 400 1200 l 1
 700 1200 l 1
 900 1000 l 1
 900 900 l 1
 700 900 l 1
 600 1000 l 1
 500 1000 l 1
 300 800 l 1
 300 400 l 1
 500 200 l 1
 600 200 l 1
 700 300 l 1
 900 300 l 1
 900 200 l 1
 700 0 l 1
 400 0 l 1
 100 300 l 1
200 1300 m 1
 200 1400 l 1
 400 1600 l 1
 600 1600 l 1
 800 1400 l 1
 800 1300 l 1
 600 1300 l 1
 500 1400 l 1
 400 1300 l 1
 200 1300 l 1
EndSplineSet
Validated: 1
EndChar

StartChar: ccircumflex
Encoding: 200 265 201
Width: 1000
VWidth: 1000
Flags: HMW
LayerCount: 2
Fore
SplineSet
100 200 m 1
 100 600 l 1
 300 800 l 1
 700 800 l 1
 900 600 l 1
 900 500 l 1
 700 500 l 1
 600 600 l 1
 400 600 l 1
 300 500 l 1
 300 300 l 1
 400 200 l 1
 600 200 l 1
 700 300 l 1
 900 300 l 1
 900 200 l 1
 700 0 l 1
 300 0 l 1
 100 200 l 1
200 900 m 1
 200 1000 l 1
 400 1200 l 1
 600 1200 l 1
 800 1000 l 1
 800 900 l 1
 600 900 l 1
 500 1000 l 1
 400 900 l 1
 200 900 l 1
EndSplineSet
Validated: 1
Substitution2: "'smcp' Lowercase to Small Capitals lookup 5-1" ccircumflex.sc
EndChar

StartChar: Cdotaccent
Encoding: 201 266 202
Width: 1000
VWidth: 1000
Flags: HMW
LayerCount: 2
Fore
SplineSet
100 300 m 1
 100 900 l 1
 400 1200 l 1
 700 1200 l 1
 900 1000 l 1
 900 900 l 1
 700 900 l 1
 600 1000 l 1
 500 1000 l 1
 300 800 l 1
 300 400 l 1
 500 200 l 1
 600 200 l 1
 700 300 l 1
 900 300 l 1
 900 200 l 1
 700 0 l 1
 400 0 l 1
 100 300 l 1
400 1400 m 1
 400 1600 l 1
 600 1600 l 1
 600 1400 l 1
 400 1400 l 1
EndSplineSet
Validated: 1
EndChar

StartChar: cdotaccent
Encoding: 202 267 203
Width: 1000
VWidth: 1000
Flags: HMW
LayerCount: 2
Fore
SplineSet
100 200 m 1
 100 600 l 1
 300 800 l 1
 700 800 l 1
 900 600 l 1
 900 500 l 1
 700 500 l 1
 600 600 l 1
 400 600 l 1
 300 500 l 1
 300 300 l 1
 400 200 l 1
 600 200 l 1
 700 300 l 1
 900 300 l 1
 900 200 l 1
 700 0 l 1
 300 0 l 1
 100 200 l 1
400 1000 m 1
 400 1200 l 1
 600 1200 l 1
 600 1000 l 1
 400 1000 l 1
EndSplineSet
Validated: 1
Substitution2: "'smcp' Lowercase to Small Capitals lookup 5-1" cdotaccent.sc
EndChar

StartChar: Ccaron
Encoding: 203 268 204
Width: 1000
VWidth: 1000
Flags: HMW
LayerCount: 2
Fore
SplineSet
100 300 m 1
 100 900 l 1
 400 1200 l 1
 700 1200 l 1
 900 1000 l 1
 900 900 l 1
 700 900 l 1
 600 1000 l 1
 500 1000 l 1
 300 800 l 1
 300 400 l 1
 500 200 l 1
 600 200 l 1
 700 300 l 1
 900 300 l 1
 900 200 l 1
 700 0 l 1
 400 0 l 1
 100 300 l 1
200 1500 m 1
 200 1600 l 1
 400 1600 l 1
 500 1500 l 1
 600 1600 l 1
 800 1600 l 1
 800 1500 l 1
 600 1300 l 1
 400 1300 l 1
 200 1500 l 1
EndSplineSet
Validated: 1
EndChar

StartChar: ccaron
Encoding: 204 269 205
Width: 1000
VWidth: 1000
Flags: HMW
LayerCount: 2
Fore
SplineSet
100 200 m 1
 100 600 l 1
 300 800 l 1
 700 800 l 1
 900 600 l 1
 900 500 l 1
 700 500 l 1
 600 600 l 1
 400 600 l 1
 300 500 l 1
 300 300 l 1
 400 200 l 1
 600 200 l 1
 700 300 l 1
 900 300 l 1
 900 200 l 1
 700 0 l 1
 300 0 l 1
 100 200 l 1
200 1100 m 1
 200 1200 l 1
 400 1200 l 1
 500 1100 l 1
 600 1200 l 1
 800 1200 l 1
 800 1100 l 1
 600 900 l 1
 400 900 l 1
 200 1100 l 1
EndSplineSet
Validated: 1
Substitution2: "'smcp' Lowercase to Small Capitals lookup 5-1" ccaron.sc
EndChar

StartChar: Dcaron
Encoding: 205 270 206
Width: 1000
VWidth: 1000
Flags: HMW
LayerCount: 2
Fore
SplineSet
300 200 m 1
 550 200 l 1
 700 350 l 1
 700 850 l 1
 550 1000 l 1
 300 1000 l 1
 300 200 l 1
100 0 m 1
 100 1200 l 1
 650 1200 l 1
 900 950 l 1
 900 250 l 1
 650 0 l 1
 100 0 l 1
200 1500 m 1
 200 1600 l 1
 400 1600 l 1
 500 1500 l 1
 600 1600 l 1
 800 1600 l 1
 800 1500 l 1
 600 1300 l 1
 400 1300 l 1
 200 1500 l 1
EndSplineSet
Validated: 1
EndChar

StartChar: dcaron
Encoding: 206 271 207
Width: 1400
VWidth: 1000
Flags: HMW
LayerCount: 2
Fore
SplineSet
300 300 m 1
 400 200 l 1
 700 200 l 1
 700 600 l 1
 400 600 l 1
 300 500 l 1
 300 300 l 1
100 200 m 1
 100 600 l 1
 300 800 l 1
 700 800 l 1
 700 1200 l 1
 900 1200 l 1
 900 0 l 1
 300 0 l 1
 100 200 l 1
1100 900 m 1
 1100 1200 l 1
 1300 1200 l 1
 1300 1050 l 1
 1150 900 l 1
 1100 900 l 1
EndSplineSet
Validated: 1
Substitution2: "'smcp' Lowercase to Small Capitals lookup 5-1" dcaron.sc
EndChar

StartChar: Dcroat
Encoding: 207 272 208
Width: 1100
VWidth: 1000
Flags: HMW
LayerCount: 2
Fore
SplineSet
400 200 m 1
 650 200 l 1
 800 350 l 1
 800 850 l 1
 650 1000 l 1
 400 1000 l 1
 400 700 l 1
 600 700 l 1
 600 500 l 1
 400 500 l 1
 400 200 l 1
100 500 m 1
 100 700 l 1
 200 700 l 1
 200 1200 l 1
 750 1200 l 1
 1000 950 l 1
 1000 250 l 1
 750 0 l 1
 200 0 l 1
 200 500 l 1
 100 500 l 1
EndSplineSet
Validated: 1
EndChar

StartChar: dcroat
Encoding: 208 273 209
Width: 1100
VWidth: 1000
Flags: HMW
LayerCount: 2
Fore
SplineSet
300 300 m 1
 400 200 l 1
 700 200 l 1
 700 600 l 1
 400 600 l 1
 300 500 l 1
 300 300 l 1
100 200 m 1
 100 600 l 1
 300 800 l 1
 700 800 l 1
 700 900 l 1
 400 900 l 1
 400 1100 l 1
 700 1100 l 1
 700 1200 l 1
 900 1200 l 1
 900 1100 l 1
 1000 1100 l 1
 1000 900 l 1
 900 900 l 1
 900 0 l 1
 300 0 l 1
 100 200 l 1
EndSplineSet
Validated: 1
Substitution2: "'smcp' Lowercase to Small Capitals lookup 5-1" dcroat.sc
EndChar

StartChar: Emacron
Encoding: 209 274 210
Width: 1000
VWidth: 1000
Flags: HMW
LayerCount: 2
Fore
SplineSet
100 0 m 1
 100 1200 l 1
 900 1200 l 1
 900 1000 l 1
 300 1000 l 1
 300 700 l 1
 700 700 l 1
 700 500 l 1
 300 500 l 1
 300 200 l 1
 900 200 l 1
 900 0 l 1
 100 0 l 1
200 1400 m 1
 200 1600 l 1
 800 1600 l 1
 800 1400 l 1
 200 1400 l 1
EndSplineSet
Validated: 1
EndChar

StartChar: emacron
Encoding: 210 275 211
Width: 1000
VWidth: 1000
Flags: HMW
LayerCount: 2
Fore
SplineSet
300 500 m 1
 700 500 l 1
 600 600 l 1
 400 600 l 1
 300 500 l 1
100 200 m 1
 100 600 l 1
 300 800 l 1
 700 800 l 1
 900 600 l 1
 900 300 l 1
 300 300 l 1
 400 200 l 1
 900 200 l 1
 900 0 l 1
 300 0 l 1
 100 200 l 1
200 1000 m 1
 200 1200 l 1
 800 1200 l 1
 800 1000 l 1
 200 1000 l 1
EndSplineSet
Validated: 1
Substitution2: "'smcp' Lowercase to Small Capitals lookup 5-1" emacron.sc
EndChar

StartChar: Ebreve
Encoding: 211 276 212
Width: 1000
VWidth: 1000
Flags: HMW
LayerCount: 2
Fore
SplineSet
100 0 m 1
 100 1200 l 1
 900 1200 l 1
 900 1000 l 1
 300 1000 l 1
 300 700 l 1
 700 700 l 1
 700 500 l 1
 300 500 l 1
 300 200 l 1
 900 200 l 1
 900 0 l 1
 100 0 l 1
100 1500 m 1
 100 1600 l 1
 300 1600 l 1
 400 1500 l 1
 600 1500 l 1
 700 1600 l 1
 900 1600 l 1
 900 1500 l 1
 700 1300 l 1
 300 1300 l 1
 100 1500 l 1
EndSplineSet
Validated: 1
EndChar

StartChar: ebreve
Encoding: 212 277 213
Width: 1000
VWidth: 1000
Flags: HMW
LayerCount: 2
Fore
SplineSet
300 500 m 1
 700 500 l 1
 600 600 l 1
 400 600 l 1
 300 500 l 1
100 200 m 1
 100 600 l 1
 300 800 l 1
 700 800 l 1
 900 600 l 1
 900 300 l 1
 300 300 l 1
 400 200 l 1
 900 200 l 1
 900 0 l 1
 300 0 l 1
 100 200 l 1
100 1100 m 1
 100 1200 l 1
 300 1200 l 1
 400 1100 l 1
 600 1100 l 1
 700 1200 l 1
 900 1200 l 1
 900 1100 l 1
 700 900 l 1
 300 900 l 1
 100 1100 l 1
EndSplineSet
Validated: 1
Substitution2: "'smcp' Lowercase to Small Capitals lookup 5-1" ebreve.sc
EndChar

StartChar: Edotaccent
Encoding: 213 278 214
Width: 1000
VWidth: 1000
Flags: HMW
LayerCount: 2
Fore
SplineSet
100 0 m 1
 100 1200 l 1
 900 1200 l 1
 900 1000 l 1
 300 1000 l 1
 300 700 l 1
 700 700 l 1
 700 500 l 1
 300 500 l 1
 300 200 l 1
 900 200 l 1
 900 0 l 1
 100 0 l 1
400 1400 m 1
 400 1600 l 1
 600 1600 l 1
 600 1400 l 1
 400 1400 l 1
EndSplineSet
Validated: 1
EndChar

StartChar: edotaccent
Encoding: 214 279 215
Width: 1000
VWidth: 1000
Flags: HMW
LayerCount: 2
Fore
SplineSet
300 500 m 1
 700 500 l 1
 600 600 l 1
 400 600 l 1
 300 500 l 1
100 200 m 1
 100 600 l 1
 300 800 l 1
 700 800 l 1
 900 600 l 1
 900 300 l 1
 300 300 l 1
 400 200 l 1
 900 200 l 1
 900 0 l 1
 300 0 l 1
 100 200 l 1
400 1000 m 1
 400 1200 l 1
 600 1200 l 1
 600 1000 l 1
 400 1000 l 1
EndSplineSet
Validated: 1
Substitution2: "'smcp' Lowercase to Small Capitals lookup 5-1" edotaccent.sc
EndChar

StartChar: Eogonek
Encoding: 215 280 216
Width: 1000
VWidth: 1000
Flags: HMW
LayerCount: 2
Fore
SplineSet
100 0 m 1
 100 1200 l 1
 900 1200 l 1
 900 1000 l 1
 300 1000 l 1
 300 700 l 1
 700 700 l 1
 700 500 l 1
 300 500 l 1
 300 200 l 1
 900 200 l 1
 900 0 l 1
 850 0 l 1
 700 -150 l 1
 750 -200 l 1
 900 -200 l 1
 900 -400 l 1
 650 -400 l 1
 500 -250 l 1
 500 -100 l 1
 600 0 l 1
 100 0 l 1
EndSplineSet
Validated: 1
EndChar

StartChar: eogonek
Encoding: 216 281 217
Width: 1000
VWidth: 1000
Flags: HMW
LayerCount: 2
Fore
SplineSet
300 500 m 1
 700 500 l 1
 600 600 l 1
 400 600 l 1
 300 500 l 1
100 200 m 1
 100 600 l 1
 300 800 l 1
 700 800 l 1
 900 600 l 1
 900 300 l 1
 300 300 l 1
 400 200 l 1
 900 200 l 1
 900 0 l 1
 850 0 l 1
 700 -150 l 1
 750 -200 l 1
 900 -200 l 1
 900 -400 l 1
 650 -400 l 1
 500 -250 l 1
 500 -100 l 1
 600 0 l 1
 300 0 l 1
 100 200 l 1
EndSplineSet
Validated: 1
Substitution2: "'smcp' Lowercase to Small Capitals lookup 5-1" eogonek.sc
EndChar

StartChar: Ecaron
Encoding: 217 282 218
Width: 1000
VWidth: 1000
Flags: HMW
LayerCount: 2
Fore
SplineSet
100 0 m 1
 100 1200 l 1
 900 1200 l 1
 900 1000 l 1
 300 1000 l 1
 300 700 l 1
 700 700 l 1
 700 500 l 1
 300 500 l 1
 300 200 l 1
 900 200 l 1
 900 0 l 1
 100 0 l 1
200 1500 m 1
 200 1600 l 1
 400 1600 l 1
 500 1500 l 1
 600 1600 l 1
 800 1600 l 1
 800 1500 l 1
 600 1300 l 1
 400 1300 l 1
 200 1500 l 1
EndSplineSet
Validated: 1
EndChar

StartChar: ecaron
Encoding: 218 283 219
Width: 1000
VWidth: 1000
Flags: HMW
LayerCount: 2
Fore
SplineSet
300 500 m 1
 700 500 l 1
 600 600 l 1
 400 600 l 1
 300 500 l 1
100 200 m 1
 100 600 l 1
 300 800 l 1
 700 800 l 1
 900 600 l 1
 900 300 l 1
 300 300 l 1
 400 200 l 1
 900 200 l 1
 900 0 l 1
 300 0 l 1
 100 200 l 1
200 1100 m 1
 200 1200 l 1
 400 1200 l 1
 500 1100 l 1
 600 1200 l 1
 800 1200 l 1
 800 1100 l 1
 600 900 l 1
 400 900 l 1
 200 1100 l 1
EndSplineSet
Validated: 1
Substitution2: "'smcp' Lowercase to Small Capitals lookup 5-1" ecaron.sc
EndChar

StartChar: Gcircumflex
Encoding: 219 284 220
Width: 1000
VWidth: 1000
Flags: HMW
LayerCount: 2
Fore
SplineSet
100 300 m 1
 100 900 l 1
 400 1200 l 1
 700 1200 l 1
 900 1000 l 1
 900 900 l 1
 700 900 l 1
 600 1000 l 1
 500 1000 l 1
 300 800 l 1
 300 400 l 1
 500 200 l 1
 700 200 l 1
 700 500 l 1
 500 500 l 1
 500 700 l 1
 900 700 l 1
 900 0 l 1
 400 0 l 1
 100 300 l 1
200 1300 m 1
 200 1400 l 1
 400 1600 l 1
 600 1600 l 1
 800 1400 l 1
 800 1300 l 1
 600 1300 l 1
 500 1400 l 1
 400 1300 l 1
 200 1300 l 1
EndSplineSet
Validated: 1
EndChar

StartChar: gcircumflex
Encoding: 220 285 221
Width: 1200
VWidth: 1000
Flags: HMW
LayerCount: 2
Fore
SplineSet
300 550 m 1
 350 500 l 1
 600 500 l 1
 600 550 l 1
 550 600 l 1
 350 600 l 1
 300 550 l 1
100 -50 m 1
 250 100 l 1
 400 100 l 1
 400 -100 l 1
 350 -100 l 1
 300 -150 l 1
 350 -200 l 1
 850 -200 l 1
 900 -150 l 1
 850 -100 l 1
 500 -100 l 1
 500 100 l 1
 600 100 l 1
 600 300 l 1
 250 300 l 1
 100 450 l 1
 100 650 l 1
 250 800 l 1
 650 800 l 1
 800 650 l 1
 800 500 l 1
 850 500 l 1
 900 550 l 1
 900 800 l 1
 1100 800 l 1
 1100 450 l 1
 950 300 l 1
 800 300 l 1
 800 100 l 1
 950 100 l 1
 1100 -50 l 1
 1100 -250 l 1
 950 -400 l 1
 250 -400 l 1
 100 -250 l 1
 100 -50 l 1
300 900 m 1
 300 1000 l 1
 500 1200 l 1
 700 1200 l 1
 900 1000 l 1
 900 900 l 1
 700 900 l 1
 600 1000 l 1
 500 900 l 1
 300 900 l 1
EndSplineSet
Validated: 1
Substitution2: "'smcp' Lowercase to Small Capitals lookup 5-1" gcircumflex.sc
EndChar

StartChar: Gbreve
Encoding: 221 286 222
Width: 1000
VWidth: 1000
Flags: HMW
LayerCount: 2
Fore
SplineSet
100 300 m 1
 100 900 l 1
 400 1200 l 1
 700 1200 l 1
 900 1000 l 1
 900 900 l 1
 700 900 l 1
 600 1000 l 1
 500 1000 l 1
 300 800 l 1
 300 400 l 1
 500 200 l 1
 700 200 l 1
 700 500 l 1
 500 500 l 1
 500 700 l 1
 900 700 l 1
 900 0 l 1
 400 0 l 1
 100 300 l 1
100 1500 m 1
 100 1600 l 1
 300 1600 l 1
 400 1500 l 1
 600 1500 l 1
 700 1600 l 1
 900 1600 l 1
 900 1500 l 1
 700 1300 l 1
 300 1300 l 1
 100 1500 l 1
EndSplineSet
Validated: 1
EndChar

StartChar: gbreve
Encoding: 222 287 223
Width: 1200
VWidth: 1000
Flags: HMW
LayerCount: 2
Fore
SplineSet
300 550 m 1
 350 500 l 1
 600 500 l 1
 600 550 l 1
 550 600 l 1
 350 600 l 1
 300 550 l 1
100 -50 m 1
 250 100 l 1
 400 100 l 1
 400 -100 l 1
 350 -100 l 1
 300 -150 l 1
 350 -200 l 1
 850 -200 l 1
 900 -150 l 1
 850 -100 l 1
 500 -100 l 1
 500 100 l 1
 600 100 l 1
 600 300 l 1
 250 300 l 1
 100 450 l 1
 100 650 l 1
 250 800 l 1
 650 800 l 1
 800 650 l 1
 800 500 l 1
 850 500 l 1
 900 550 l 1
 900 800 l 1
 1100 800 l 1
 1100 450 l 1
 950 300 l 1
 800 300 l 1
 800 100 l 1
 950 100 l 1
 1100 -50 l 1
 1100 -250 l 1
 950 -400 l 1
 250 -400 l 1
 100 -250 l 1
 100 -50 l 1
200 1100 m 1
 200 1200 l 1
 400 1200 l 1
 500 1100 l 1
 700 1100 l 1
 800 1200 l 1
 1000 1200 l 1
 1000 1100 l 1
 800 900 l 1
 400 900 l 1
 200 1100 l 1
EndSplineSet
Validated: 1
Substitution2: "'smcp' Lowercase to Small Capitals lookup 5-1" gbreve.sc
EndChar

StartChar: Gdotaccent
Encoding: 223 288 224
Width: 1000
VWidth: 1000
Flags: HMW
LayerCount: 2
Fore
SplineSet
100 300 m 1
 100 900 l 1
 400 1200 l 1
 700 1200 l 1
 900 1000 l 1
 900 900 l 1
 700 900 l 1
 600 1000 l 1
 500 1000 l 1
 300 800 l 1
 300 400 l 1
 500 200 l 1
 700 200 l 1
 700 500 l 1
 500 500 l 1
 500 700 l 1
 900 700 l 1
 900 0 l 1
 400 0 l 1
 100 300 l 1
400 1400 m 1
 400 1600 l 1
 600 1600 l 1
 600 1400 l 1
 400 1400 l 1
EndSplineSet
Validated: 1
EndChar

StartChar: gdotaccent
Encoding: 224 289 225
Width: 1200
VWidth: 1000
Flags: HMW
LayerCount: 2
Fore
SplineSet
300 550 m 1
 350 500 l 1
 600 500 l 1
 600 550 l 1
 550 600 l 1
 350 600 l 1
 300 550 l 1
100 -50 m 1
 250 100 l 1
 400 100 l 1
 400 -100 l 1
 350 -100 l 1
 300 -150 l 1
 350 -200 l 1
 850 -200 l 1
 900 -150 l 1
 850 -100 l 1
 500 -100 l 1
 500 100 l 1
 600 100 l 1
 600 300 l 1
 250 300 l 1
 100 450 l 1
 100 650 l 1
 250 800 l 1
 650 800 l 1
 800 650 l 1
 800 500 l 1
 850 500 l 1
 900 550 l 1
 900 800 l 1
 1100 800 l 1
 1100 450 l 1
 950 300 l 1
 800 300 l 1
 800 100 l 1
 950 100 l 1
 1100 -50 l 1
 1100 -250 l 1
 950 -400 l 1
 250 -400 l 1
 100 -250 l 1
 100 -50 l 1
500 1000 m 1
 500 1200 l 1
 700 1200 l 1
 700 1000 l 1
 500 1000 l 1
EndSplineSet
Validated: 1
Substitution2: "'smcp' Lowercase to Small Capitals lookup 5-1" gdotaccent.sc
EndChar

StartChar: uni122
Encoding: 225 290 226
Width: 1000
VWidth: 1000
Flags: HMW
LayerCount: 2
Fore
SplineSet
400 -100 m 1
 600 -100 l 1
 600 -250 l 1
 450 -400 l 1
 400 -400 l 1
 400 -100 l 1
100 300 m 1
 100 900 l 1
 400 1200 l 1
 700 1200 l 1
 900 1000 l 1
 900 900 l 1
 700 900 l 1
 600 1000 l 1
 500 1000 l 1
 300 800 l 1
 300 400 l 1
 500 200 l 1
 700 200 l 1
 700 500 l 1
 500 500 l 1
 500 700 l 1
 900 700 l 1
 900 0 l 1
 400 0 l 1
 100 300 l 1
EndSplineSet
Validated: 1
EndChar

StartChar: uni123
Encoding: 226 291 227
Width: 1200
VWidth: 1000
Flags: HMW
LayerCount: 2
Fore
SplineSet
300 550 m 1
 350 500 l 1
 600 500 l 1
 600 550 l 1
 550 600 l 1
 350 600 l 1
 300 550 l 1
100 -50 m 1
 250 100 l 1
 400 100 l 1
 400 -100 l 1
 350 -100 l 1
 300 -150 l 1
 350 -200 l 1
 850 -200 l 1
 900 -150 l 1
 850 -100 l 1
 500 -100 l 1
 500 100 l 1
 600 100 l 1
 600 300 l 1
 250 300 l 1
 100 450 l 1
 100 650 l 1
 250 800 l 1
 650 800 l 1
 800 650 l 1
 800 500 l 1
 850 500 l 1
 900 550 l 1
 900 800 l 1
 1100 800 l 1
 1100 450 l 1
 950 300 l 1
 800 300 l 1
 800 100 l 1
 950 100 l 1
 1100 -50 l 1
 1100 -250 l 1
 950 -400 l 1
 250 -400 l 1
 100 -250 l 1
 100 -50 l 1
500 900 m 1
 500 1050 l 1
 650 1200 l 1
 700 1200 l 1
 700 900 l 1
 500 900 l 1
EndSplineSet
Validated: 1
Substitution2: "'smcp' Lowercase to Small Capitals lookup 5-1" uni123.sc
EndChar

StartChar: Hcircumflex
Encoding: 227 292 228
Width: 1000
VWidth: 1000
Flags: HMW
LayerCount: 2
Fore
SplineSet
100 0 m 1
 100 1200 l 1
 300 1200 l 1
 300 700 l 1
 700 700 l 1
 700 1200 l 1
 900 1200 l 1
 900 0 l 1
 700 0 l 1
 700 500 l 1
 300 500 l 1
 300 0 l 1
 100 0 l 1
200 1300 m 1
 200 1400 l 1
 400 1600 l 1
 600 1600 l 1
 800 1400 l 1
 800 1300 l 1
 600 1300 l 1
 500 1400 l 1
 400 1300 l 1
 200 1300 l 1
EndSplineSet
Validated: 1
EndChar

StartChar: hcircumflex
Encoding: 228 293 229
Width: 1000
VWidth: 1000
Flags: HMW
LayerCount: 2
Fore
SplineSet
100 0 m 1
 100 1200 l 1
 300 1200 l 1
 300 800 l 1
 700 800 l 1
 900 600 l 1
 900 0 l 1
 700 0 l 1
 700 500 l 1
 600 600 l 1
 300 600 l 1
 300 0 l 1
 100 0 l 1
200 1300 m 1
 200 1400 l 1
 400 1600 l 1
 600 1600 l 1
 800 1400 l 1
 800 1300 l 1
 600 1300 l 1
 500 1400 l 1
 400 1300 l 1
 200 1300 l 1
EndSplineSet
Validated: 1
Substitution2: "'smcp' Lowercase to Small Capitals lookup 5-1" hcircumflex.sc
EndChar

StartChar: Hbar
Encoding: 229 294 230
Width: 1200
VWidth: 1000
Flags: HMW
LayerCount: 2
Fore
SplineSet
400 700 m 1
 800 700 l 1
 800 800 l 1
 400 800 l 1
 400 700 l 1
100 800 m 1
 100 1000 l 1
 200 1000 l 1
 200 1200 l 1
 400 1200 l 1
 400 1000 l 1
 800 1000 l 1
 800 1200 l 1
 1000 1200 l 1
 1000 1000 l 1
 1100 1000 l 1
 1100 800 l 1
 1000 800 l 1
 1000 0 l 1
 800 0 l 1
 800 500 l 1
 400 500 l 1
 400 0 l 1
 200 0 l 1
 200 800 l 1
 100 800 l 1
EndSplineSet
Validated: 1
EndChar

StartChar: hbar
Encoding: 230 295 231
Width: 1100
VWidth: 1000
Flags: HMW
LayerCount: 2
Fore
SplineSet
100 900 m 1
 100 1100 l 1
 200 1100 l 1
 200 1200 l 1
 400 1200 l 1
 400 1100 l 1
 700 1100 l 1
 700 900 l 1
 400 900 l 1
 400 800 l 1
 800 800 l 1
 1000 600 l 1
 1000 0 l 1
 800 0 l 1
 800 500 l 1
 700 600 l 1
 400 600 l 1
 400 0 l 1
 200 0 l 1
 200 900 l 1
 100 900 l 1
EndSplineSet
Validated: 1
Substitution2: "'smcp' Lowercase to Small Capitals lookup 5-1" hbar.sc
EndChar

StartChar: Itilde
Encoding: 231 296 232
Width: 1000
VWidth: 1000
Flags: HMW
LayerCount: 2
Fore
SplineSet
200 0 m 1
 200 200 l 1
 400 200 l 1
 400 1000 l 1
 200 1000 l 1
 200 1200 l 1
 800 1200 l 1
 800 1000 l 1
 600 1000 l 1
 600 200 l 1
 800 200 l 1
 800 0 l 1
 200 0 l 1
100 1300 m 1
 100 1400 l 1
 300 1600 l 1
 500 1600 l 1
 600 1500 l 1
 700 1600 l 1
 900 1600 l 1
 900 1500 l 1
 700 1300 l 1
 500 1300 l 1
 400 1400 l 1
 300 1300 l 1
 100 1300 l 1
EndSplineSet
Validated: 1
EndChar

StartChar: itilde
Encoding: 232 297 233
Width: 1000
VWidth: 1000
Flags: HMW
LayerCount: 2
Fore
SplineSet
400 0 m 1
 400 800 l 1
 600 800 l 1
 600 0 l 1
 400 0 l 1
100 900 m 1
 100 1000 l 1
 300 1200 l 1
 500 1200 l 1
 600 1100 l 1
 700 1200 l 1
 900 1200 l 1
 900 1100 l 1
 700 900 l 1
 500 900 l 1
 400 1000 l 1
 300 900 l 1
 100 900 l 1
EndSplineSet
Validated: 1
Substitution2: "'smcp' Lowercase to Small Capitals lookup 5-1" itilde.sc
EndChar

StartChar: Imacron
Encoding: 233 298 234
Width: 800
VWidth: 1000
Flags: HMW
LayerCount: 2
Fore
SplineSet
100 0 m 1
 100 200 l 1
 300 200 l 1
 300 1000 l 1
 100 1000 l 1
 100 1200 l 1
 700 1200 l 1
 700 1000 l 1
 500 1000 l 1
 500 200 l 1
 700 200 l 1
 700 0 l 1
 100 0 l 1
100 1400 m 1
 100 1600 l 1
 700 1600 l 1
 700 1400 l 1
 100 1400 l 1
EndSplineSet
Validated: 1
EndChar

StartChar: imacron
Encoding: 234 299 235
Width: 800
VWidth: 1000
Flags: HMW
LayerCount: 2
Fore
SplineSet
300 0 m 1
 300 800 l 1
 500 800 l 1
 500 0 l 1
 300 0 l 1
100 1000 m 1
 100 1200 l 1
 700 1200 l 1
 700 1000 l 1
 100 1000 l 1
EndSplineSet
Validated: 1
Substitution2: "'smcp' Lowercase to Small Capitals lookup 5-1" imacron.sc
EndChar

StartChar: Ibreve
Encoding: 235 300 236
Width: 1000
VWidth: 1000
Flags: HMW
LayerCount: 2
Fore
SplineSet
200 0 m 1
 200 200 l 1
 400 200 l 1
 400 1000 l 1
 200 1000 l 1
 200 1200 l 1
 800 1200 l 1
 800 1000 l 1
 600 1000 l 1
 600 200 l 1
 800 200 l 1
 800 0 l 1
 200 0 l 1
100 1500 m 1
 100 1600 l 1
 300 1600 l 1
 400 1500 l 1
 600 1500 l 1
 700 1600 l 1
 900 1600 l 1
 900 1500 l 1
 700 1300 l 1
 300 1300 l 1
 100 1500 l 1
EndSplineSet
Validated: 1
EndChar

StartChar: ibreve
Encoding: 236 301 237
Width: 1000
VWidth: 1000
Flags: HMW
LayerCount: 2
Fore
SplineSet
400 0 m 1
 400 800 l 1
 600 800 l 1
 600 0 l 1
 400 0 l 1
100 1100 m 1
 100 1200 l 1
 300 1200 l 1
 400 1100 l 1
 600 1100 l 1
 700 1200 l 1
 900 1200 l 1
 900 1100 l 1
 700 900 l 1
 300 900 l 1
 100 1100 l 1
EndSplineSet
Validated: 1
Substitution2: "'smcp' Lowercase to Small Capitals lookup 5-1" ibreve.sc
EndChar

StartChar: Iogonek
Encoding: 237 302 238
Width: 800
VWidth: 1000
Flags: HMW
LayerCount: 2
Fore
SplineSet
100 0 m 1
 100 200 l 1
 300 200 l 1
 300 1000 l 1
 100 1000 l 1
 100 1200 l 1
 700 1200 l 1
 700 1000 l 1
 500 1000 l 1
 500 200 l 1
 700 200 l 1
 700 0 l 1
 650 0 l 1
 500 -150 l 1
 550 -200 l 1
 700 -200 l 1
 700 -400 l 1
 450 -400 l 1
 300 -250 l 1
 300 -100 l 1
 400 0 l 1
 100 0 l 1
EndSplineSet
Validated: 1
EndChar

StartChar: iogonek
Encoding: 238 303 239
Width: 600
VWidth: 1000
Flags: HMW
LayerCount: 2
Fore
SplineSet
100 -100 m 1
 300 100 l 1
 300 800 l 1
 500 800 l 1
 500 0 l 1
 450 0 l 1
 300 -150 l 1
 350 -200 l 1
 500 -200 l 1
 500 -400 l 1
 250 -400 l 1
 100 -250 l 1
 100 -100 l 1
300 1000 m 1
 300 1200 l 1
 500 1200 l 1
 500 1000 l 1
 300 1000 l 1
EndSplineSet
Validated: 1
Substitution2: "'smcp' Lowercase to Small Capitals lookup 5-1" iogonek.sc
EndChar

StartChar: Idotaccent
Encoding: 239 304 240
Width: 800
VWidth: 1000
Flags: HMW
LayerCount: 2
Fore
SplineSet
100 0 m 1
 100 200 l 1
 300 200 l 1
 300 1000 l 1
 100 1000 l 1
 100 1200 l 1
 700 1200 l 1
 700 1000 l 1
 500 1000 l 1
 500 200 l 1
 700 200 l 1
 700 0 l 1
 100 0 l 1
300 1400 m 1
 300 1600 l 1
 500 1600 l 1
 500 1400 l 1
 300 1400 l 1
EndSplineSet
Validated: 1
EndChar

StartChar: dotlessi
Encoding: 240 305 241
Width: 400
VWidth: 1000
Flags: HMW
LayerCount: 2
Fore
SplineSet
100 0 m 1
 100 800 l 1
 300 800 l 1
 300 0 l 1
 100 0 l 1
EndSplineSet
Validated: 1
EndChar

StartChar: IJ
Encoding: 241 306 242
Width: 1800
VWidth: 1000
Flags: HMW
LayerCount: 2
Fore
SplineSet
100 0 m 1
 100 200 l 1
 300 200 l 1
 300 1000 l 1
 100 1000 l 1
 100 1200 l 1
 700 1200 l 1
 700 1000 l 1
 500 1000 l 1
 500 200 l 1
 700 200 l 1
 700 0 l 1
 100 0 l 1
900 200 m 1
 900 300 l 1
 1100 300 l 1
 1200 200 l 1
 1300 200 l 1
 1400 300 l 1
 1400 1000 l 1
 1200 1000 l 1
 1200 1200 l 1
 1700 1200 l 1
 1700 1000 l 1
 1600 1000 l 1
 1600 200 l 1
 1400 0 l 1
 1100 0 l 1
 900 200 l 1
EndSplineSet
Validated: 1
EndChar

StartChar: ij
Encoding: 242 307 243
Width: 800
VWidth: 1000
Flags: HMW
LayerCount: 2
Fore
SplineSet
100 0 m 1
 100 800 l 1
 300 800 l 1
 300 0 l 1
 100 0 l 1
500 -400 m 1
 500 800 l 1
 700 800 l 1
 700 -400 l 1
 500 -400 l 1
100 1000 m 1
 100 1200 l 1
 300 1200 l 1
 300 1000 l 1
 100 1000 l 1
500 1000 m 1
 500 1200 l 1
 700 1200 l 1
 700 1000 l 1
 500 1000 l 1
EndSplineSet
Validated: 1
Substitution2: "'smcp' Lowercase to Small Capitals lookup 5-1" ij.sc
EndChar

StartChar: Jcircumflex
Encoding: 243 308 244
Width: 1000
VWidth: 1000
Flags: HMW
LayerCount: 2
Fore
SplineSet
100 200 m 1
 100 300 l 1
 300 300 l 1
 400 200 l 1
 500 200 l 1
 600 300 l 1
 600 1000 l 1
 400 1000 l 1
 400 1200 l 1
 900 1200 l 1
 900 1000 l 1
 800 1000 l 1
 800 200 l 1
 600 0 l 1
 300 0 l 1
 100 200 l 1
200 1300 m 1
 200 1400 l 1
 400 1600 l 1
 600 1600 l 1
 800 1400 l 1
 800 1300 l 1
 600 1300 l 1
 500 1400 l 1
 400 1300 l 1
 200 1300 l 1
EndSplineSet
Validated: 1
EndChar

StartChar: jcircumflex
Encoding: 244 309 245
Width: 800
VWidth: 1000
Flags: HMW
LayerCount: 2
Fore
SplineSet
300 -400 m 1
 300 800 l 1
 500 800 l 1
 500 -400 l 1
 300 -400 l 1
100 900 m 1
 100 1000 l 1
 300 1200 l 1
 500 1200 l 1
 700 1000 l 1
 700 900 l 1
 500 900 l 1
 400 1000 l 1
 300 900 l 1
 100 900 l 1
EndSplineSet
Validated: 1
Substitution2: "'smcp' Lowercase to Small Capitals lookup 5-1" jcircumflex.sc
EndChar

StartChar: uni136
Encoding: 245 310 246
Width: 1000
VWidth: 1000
Flags: HMW
LayerCount: 2
Fore
SplineSet
400 -100 m 1
 600 -100 l 1
 600 -250 l 1
 450 -400 l 1
 400 -400 l 1
 400 -100 l 1
100 0 m 1
 100 1200 l 1
 300 1200 l 1
 300 800 l 1
 700 1200 l 1
 900 1200 l 1
 900 1100 l 1
 400 600 l 1
 900 100 l 1
 900 0 l 1
 700 0 l 1
 300 400 l 1
 300 0 l 1
 100 0 l 1
EndSplineSet
Validated: 1
EndChar

StartChar: uni137
Encoding: 246 311 247
Width: 1000
VWidth: 1000
Flags: HMW
LayerCount: 2
Fore
SplineSet
400 -100 m 1
 600 -100 l 1
 600 -250 l 1
 450 -400 l 1
 400 -400 l 1
 400 -100 l 1
100 0 m 1
 100 1200 l 1
 300 1200 l 1
 300 500 l 1
 400 500 l 1
 700 800 l 1
 900 800 l 1
 900 700 l 1
 600 400 l 1
 900 100 l 1
 900 0 l 1
 700 0 l 1
 400 300 l 1
 300 300 l 1
 300 0 l 1
 100 0 l 1
EndSplineSet
Validated: 1
Substitution2: "'smcp' Lowercase to Small Capitals lookup 5-1" uni137.sc
EndChar

StartChar: kgreenlandic
Encoding: 247 312 248
Width: 1000
VWidth: 1000
Flags: HMW
LayerCount: 2
Fore
SplineSet
100 0 m 1
 100 800 l 1
 300 800 l 1
 300 500 l 1
 400 500 l 1
 700 800 l 1
 900 800 l 1
 900 700 l 1
 600 400 l 1
 900 100 l 1
 900 0 l 1
 700 0 l 1
 400 300 l 1
 300 300 l 1
 300 0 l 1
 100 0 l 1
EndSplineSet
Validated: 1
EndChar

StartChar: Lacute
Encoding: 248 313 249
Width: 1000
VWidth: 1000
Flags: HMW
LayerCount: 2
Fore
SplineSet
100 0 m 1
 100 1200 l 1
 300 1200 l 1
 300 200 l 1
 900 200 l 1
 900 0 l 1
 100 0 l 1
100 1300 m 1
 100 1400 l 1
 300 1600 l 1
 500 1600 l 1
 500 1500 l 1
 300 1300 l 1
 100 1300 l 1
EndSplineSet
Validated: 1
EndChar

StartChar: lacute
Encoding: 249 314 250
Width: 600
VWidth: 1000
Flags: HMW
LayerCount: 2
Fore
SplineSet
100 0 m 1
 100 1200 l 1
 300 1200 l 1
 300 0 l 1
 100 0 l 1
100 1300 m 1
 100 1400 l 1
 300 1600 l 1
 500 1600 l 1
 500 1500 l 1
 300 1300 l 1
 100 1300 l 1
EndSplineSet
Validated: 1
Substitution2: "'smcp' Lowercase to Small Capitals lookup 5-1" lacute.sc
EndChar

StartChar: uni13B
Encoding: 250 315 251
Width: 1000
VWidth: 1000
Flags: HMW
LayerCount: 2
Fore
SplineSet
400 -100 m 1
 600 -100 l 1
 600 -250 l 1
 450 -400 l 1
 400 -400 l 1
 400 -100 l 1
100 0 m 1
 100 1200 l 1
 300 1200 l 1
 300 200 l 1
 900 200 l 1
 900 0 l 1
 100 0 l 1
EndSplineSet
Validated: 1
EndChar

StartChar: uni13C
Encoding: 251 316 252
Width: 400
VWidth: 1000
Flags: HMW
LayerCount: 2
Fore
SplineSet
100 -100 m 1
 300 -100 l 1
 300 -250 l 1
 150 -400 l 1
 100 -400 l 1
 100 -100 l 1
100 0 m 1
 100 1200 l 1
 300 1200 l 1
 300 0 l 1
 100 0 l 1
EndSplineSet
Validated: 1
EndChar

StartChar: Lcaron
Encoding: 252 317 253
Width: 1000
VWidth: 1000
Flags: HMW
LayerCount: 2
Fore
SplineSet
100 0 m 1
 100 1200 l 1
 300 1200 l 1
 300 200 l 1
 900 200 l 1
 900 0 l 1
 100 0 l 1
700 900 m 1
 700 1200 l 1
 900 1200 l 1
 900 1050 l 1
 750 900 l 1
 700 900 l 1
EndSplineSet
Validated: 1
EndChar

StartChar: lcaron
Encoding: 253 318 254
Width: 800
VWidth: 1000
Flags: HMW
LayerCount: 2
Fore
SplineSet
100 0 m 1
 100 1200 l 1
 300 1200 l 1
 300 0 l 1
 100 0 l 1
500 900 m 1
 500 1200 l 1
 700 1200 l 1
 700 1050 l 1
 550 900 l 1
 500 900 l 1
EndSplineSet
Validated: 1
Substitution2: "'smcp' Lowercase to Small Capitals lookup 5-1" lcaron.sc
EndChar

StartChar: Ldot
Encoding: 254 319 255
Width: 1000
VWidth: 1000
Flags: HMW
LayerCount: 2
Fore
SplineSet
600 600 m 1
 600 800 l 1
 800 800 l 1
 800 600 l 1
 600 600 l 1
100 0 m 1
 100 1200 l 1
 300 1200 l 1
 300 200 l 1
 900 200 l 1
 900 0 l 1
 100 0 l 1
EndSplineSet
Validated: 1
EndChar

StartChar: ldot
Encoding: 255 320 256
Width: 800
VWidth: 1000
Flags: HMW
LayerCount: 2
Fore
SplineSet
500 600 m 1
 500 800 l 1
 700 800 l 1
 700 600 l 1
 500 600 l 1
100 0 m 1
 100 1200 l 1
 300 1200 l 1
 300 0 l 1
 100 0 l 1
EndSplineSet
Validated: 1
Substitution2: "'smcp' Lowercase to Small Capitals lookup 5-1" ldot.sc
EndChar

StartChar: Lslash
Encoding: 256 321 257
Width: 1200
VWidth: 1000
Flags: HMW
LayerCount: 2
Fore
SplineSet
100 300 m 1
 100 500 l 1
 300 700 l 1
 300 1200 l 1
 500 1200 l 1
 500 900 l 1
 600 1000 l 1
 700 1000 l 1
 700 800 l 1
 500 600 l 1
 500 200 l 1
 1100 200 l 1
 1100 0 l 1
 300 0 l 1
 300 400 l 1
 200 300 l 1
 100 300 l 1
EndSplineSet
Validated: 1
EndChar

StartChar: lslash
Encoding: 257 322 258
Width: 800
VWidth: 1000
Flags: HMW
LayerCount: 2
Fore
SplineSet
100 300 m 1
 100 500 l 1
 300 700 l 1
 300 1200 l 1
 500 1200 l 1
 500 900 l 1
 600 1000 l 1
 700 1000 l 1
 700 800 l 1
 500 600 l 1
 500 0 l 1
 300 0 l 1
 300 400 l 1
 200 300 l 1
 100 300 l 1
EndSplineSet
Validated: 1
Substitution2: "'smcp' Lowercase to Small Capitals lookup 5-1" lslash.sc
EndChar

StartChar: Nacute
Encoding: 258 323 259
Width: 1000
VWidth: 1000
Flags: HMW
LayerCount: 2
Fore
SplineSet
100 0 m 1
 100 1200 l 1
 300 1200 l 1
 300 950 l 1
 700 550 l 1
 700 1200 l 1
 900 1200 l 1
 900 0 l 1
 700 0 l 1
 700 250 l 1
 300 650 l 1
 300 0 l 1
 100 0 l 1
400 1300 m 1
 400 1400 l 1
 600 1600 l 1
 800 1600 l 1
 800 1500 l 1
 600 1300 l 1
 400 1300 l 1
EndSplineSet
Validated: 1
EndChar

StartChar: nacute
Encoding: 259 324 260
Width: 1000
VWidth: 1000
Flags: HMW
LayerCount: 2
Fore
SplineSet
100 0 m 1
 100 800 l 1
 700 800 l 1
 900 600 l 1
 900 0 l 1
 700 0 l 1
 700 500 l 1
 600 600 l 1
 300 600 l 1
 300 0 l 1
 100 0 l 1
400 900 m 1
 400 1000 l 1
 600 1200 l 1
 800 1200 l 1
 800 1100 l 1
 600 900 l 1
 400 900 l 1
EndSplineSet
Validated: 1
Substitution2: "'smcp' Lowercase to Small Capitals lookup 5-1" nacute.sc
EndChar

StartChar: uni145
Encoding: 260 325 261
Width: 1000
VWidth: 1000
Flags: HMW
LayerCount: 2
Fore
SplineSet
400 -100 m 1
 600 -100 l 1
 600 -250 l 1
 450 -400 l 1
 400 -400 l 1
 400 -100 l 1
100 0 m 1
 100 1200 l 1
 300 1200 l 1
 300 950 l 1
 700 550 l 1
 700 1200 l 1
 900 1200 l 1
 900 0 l 1
 700 0 l 1
 700 250 l 1
 300 650 l 1
 300 0 l 1
 100 0 l 1
EndSplineSet
Validated: 1
EndChar

StartChar: uni146
Encoding: 261 326 262
Width: 1000
VWidth: 1000
Flags: HMW
LayerCount: 2
Fore
SplineSet
400 -100 m 1
 600 -100 l 1
 600 -250 l 1
 450 -400 l 1
 400 -400 l 1
 400 -100 l 1
100 0 m 1
 100 800 l 1
 700 800 l 1
 900 600 l 1
 900 0 l 1
 700 0 l 1
 700 500 l 1
 600 600 l 1
 300 600 l 1
 300 0 l 1
 100 0 l 1
EndSplineSet
Validated: 1
Substitution2: "'smcp' Lowercase to Small Capitals lookup 5-1" uni146.sc
EndChar

StartChar: Ncaron
Encoding: 262 327 263
Width: 1000
VWidth: 1000
Flags: HMW
LayerCount: 2
Fore
SplineSet
100 0 m 1
 100 1200 l 1
 300 1200 l 1
 300 950 l 1
 700 550 l 1
 700 1200 l 1
 900 1200 l 1
 900 0 l 1
 700 0 l 1
 700 250 l 1
 300 650 l 1
 300 0 l 1
 100 0 l 1
200 1500 m 1
 200 1600 l 1
 400 1600 l 1
 500 1500 l 1
 600 1600 l 1
 800 1600 l 1
 800 1500 l 1
 600 1300 l 1
 400 1300 l 1
 200 1500 l 1
EndSplineSet
Validated: 1
EndChar

StartChar: ncaron
Encoding: 263 328 264
Width: 1000
VWidth: 1000
Flags: HMW
LayerCount: 2
Fore
SplineSet
100 0 m 1
 100 800 l 1
 700 800 l 1
 900 600 l 1
 900 0 l 1
 700 0 l 1
 700 500 l 1
 600 600 l 1
 300 600 l 1
 300 0 l 1
 100 0 l 1
200 1100 m 1
 200 1200 l 1
 400 1200 l 1
 500 1100 l 1
 600 1200 l 1
 800 1200 l 1
 800 1100 l 1
 600 900 l 1
 400 900 l 1
 200 1100 l 1
EndSplineSet
Validated: 1
Substitution2: "'smcp' Lowercase to Small Capitals lookup 5-1" ncaron.sc
EndChar

StartChar: napostrophe
Encoding: 264 329 265
Width: 1200
VWidth: 1000
Flags: HMW
LayerCount: 2
Fore
SplineSet
300 0 m 1
 300 800 l 1
 900 800 l 1
 1100 600 l 1
 1100 0 l 1
 900 0 l 1
 900 500 l 1
 800 600 l 1
 500 600 l 1
 500 0 l 1
 300 0 l 1
100 900 m 1
 100 1200 l 1
 300 1200 l 1
 300 1050 l 1
 150 900 l 1
 100 900 l 1
EndSplineSet
Validated: 1
EndChar

StartChar: Eng
Encoding: 265 330 266
Width: 1000
VWidth: 1000
Flags: HMW
LayerCount: 2
Fore
SplineSet
100 0 m 1
 100 1200 l 1
 300 1200 l 1
 300 950 l 1
 700 550 l 1
 700 1200 l 1
 900 1200 l 1
 900 -200 l 1
 700 -400 l 1
 500 -400 l 1
 500 -200 l 1
 600 -200 l 1
 700 -100 l 1
 700 250 l 1
 300 650 l 1
 300 0 l 1
 100 0 l 1
EndSplineSet
Validated: 1
EndChar

StartChar: eng
Encoding: 266 331 267
Width: 1000
VWidth: 1000
Flags: HMW
LayerCount: 2
Fore
SplineSet
100 0 m 1
 100 800 l 1
 700 800 l 1
 900 600 l 1
 900 -200 l 1
 700 -400 l 1
 500 -400 l 1
 500 -200 l 1
 600 -200 l 1
 700 -100 l 1
 700 500 l 1
 600 600 l 1
 300 600 l 1
 300 0 l 1
 100 0 l 1
EndSplineSet
Validated: 1
Substitution2: "'smcp' Lowercase to Small Capitals lookup 5-1" eng.sc
EndChar

StartChar: Omacron
Encoding: 267 332 268
Width: 1000
VWidth: 1000
Flags: HMW
LayerCount: 2
Fore
SplineSet
300 300 m 1
 400 200 l 1
 600 200 l 1
 700 300 l 1
 700 900 l 1
 600 1000 l 1
 400 1000 l 1
 300 900 l 1
 300 300 l 1
100 200 m 1
 100 1000 l 1
 300 1200 l 1
 700 1200 l 1
 900 1000 l 1
 900 200 l 1
 700 0 l 1
 300 0 l 1
 100 200 l 1
200 1400 m 1
 200 1600 l 1
 800 1600 l 1
 800 1400 l 1
 200 1400 l 1
EndSplineSet
Validated: 1
EndChar

StartChar: omacron
Encoding: 268 333 269
Width: 1000
VWidth: 1000
Flags: HMW
LayerCount: 2
Fore
SplineSet
300 300 m 1
 400 200 l 1
 600 200 l 1
 700 300 l 1
 700 500 l 1
 600 600 l 1
 400 600 l 1
 300 500 l 1
 300 300 l 1
100 200 m 1
 100 600 l 1
 300 800 l 1
 700 800 l 1
 900 600 l 1
 900 200 l 1
 700 0 l 1
 300 0 l 1
 100 200 l 1
200 1000 m 1
 200 1200 l 1
 800 1200 l 1
 800 1000 l 1
 200 1000 l 1
EndSplineSet
Validated: 1
Substitution2: "'smcp' Lowercase to Small Capitals lookup 5-1" omacron.sc
EndChar

StartChar: Obreve
Encoding: 269 334 270
Width: 1000
VWidth: 1000
Flags: HMW
LayerCount: 2
Fore
SplineSet
300 300 m 1
 400 200 l 1
 600 200 l 1
 700 300 l 1
 700 900 l 1
 600 1000 l 1
 400 1000 l 1
 300 900 l 1
 300 300 l 1
100 200 m 1
 100 1000 l 1
 300 1200 l 1
 700 1200 l 1
 900 1000 l 1
 900 200 l 1
 700 0 l 1
 300 0 l 1
 100 200 l 1
100 1500 m 1
 100 1600 l 1
 300 1600 l 1
 400 1500 l 1
 600 1500 l 1
 700 1600 l 1
 900 1600 l 1
 900 1500 l 1
 700 1300 l 1
 300 1300 l 1
 100 1500 l 1
EndSplineSet
Validated: 1
EndChar

StartChar: obreve
Encoding: 270 335 271
Width: 1000
VWidth: 1000
Flags: HMW
LayerCount: 2
Fore
SplineSet
300 300 m 1
 400 200 l 1
 600 200 l 1
 700 300 l 1
 700 500 l 1
 600 600 l 1
 400 600 l 1
 300 500 l 1
 300 300 l 1
100 200 m 1
 100 600 l 1
 300 800 l 1
 700 800 l 1
 900 600 l 1
 900 200 l 1
 700 0 l 1
 300 0 l 1
 100 200 l 1
100 1100 m 1
 100 1200 l 1
 300 1200 l 1
 400 1100 l 1
 600 1100 l 1
 700 1200 l 1
 900 1200 l 1
 900 1100 l 1
 700 900 l 1
 300 900 l 1
 100 1100 l 1
EndSplineSet
Validated: 1
Substitution2: "'smcp' Lowercase to Small Capitals lookup 5-1" obreve.sc
EndChar

StartChar: Ohungarumlaut
Encoding: 271 336 272
Width: 1000
VWidth: 1000
Flags: HMW
LayerCount: 2
Fore
SplineSet
300 300 m 1
 400 200 l 1
 600 200 l 1
 700 300 l 1
 700 900 l 1
 600 1000 l 1
 400 1000 l 1
 300 900 l 1
 300 300 l 1
100 200 m 1
 100 1000 l 1
 300 1200 l 1
 700 1200 l 1
 900 1000 l 1
 900 200 l 1
 700 0 l 1
 300 0 l 1
 100 200 l 1
100 1300 m 1
 100 1400 l 1
 300 1600 l 1
 500 1600 l 1
 500 1500 l 1
 300 1300 l 1
 100 1300 l 1
500 1300 m 1
 500 1400 l 1
 700 1600 l 1
 900 1600 l 1
 900 1500 l 1
 700 1300 l 1
 500 1300 l 1
EndSplineSet
Validated: 1
EndChar

StartChar: ohungarumlaut
Encoding: 272 337 273
Width: 1000
VWidth: 1000
Flags: HMW
LayerCount: 2
Fore
SplineSet
300 300 m 1
 400 200 l 1
 600 200 l 1
 700 300 l 1
 700 500 l 1
 600 600 l 1
 400 600 l 1
 300 500 l 1
 300 300 l 1
100 200 m 1
 100 600 l 1
 300 800 l 1
 700 800 l 1
 900 600 l 1
 900 200 l 1
 700 0 l 1
 300 0 l 1
 100 200 l 1
100 900 m 1
 100 1000 l 1
 300 1200 l 1
 500 1200 l 1
 500 1100 l 1
 300 900 l 1
 100 900 l 1
500 900 m 1
 500 1000 l 1
 700 1200 l 1
 900 1200 l 1
 900 1100 l 1
 700 900 l 1
 500 900 l 1
EndSplineSet
Validated: 1
Substitution2: "'smcp' Lowercase to Small Capitals lookup 5-1" ohungarumlaut.sc
EndChar

StartChar: OE
Encoding: 273 338 274
Width: 1200
VWidth: 1000
Flags: HMW
LayerCount: 2
Fore
SplineSet
300 300 m 1
 400 200 l 1
 500 200 l 1
 500 1000 l 1
 400 1000 l 1
 300 900 l 1
 300 300 l 1
100 200 m 1
 100 1000 l 1
 300 1200 l 1
 1100 1200 l 1
 1100 1000 l 1
 700 1000 l 1
 700 700 l 1
 900 700 l 1
 900 500 l 1
 700 500 l 1
 700 200 l 1
 1100 200 l 1
 1100 0 l 1
 300 0 l 1
 100 200 l 1
EndSplineSet
Validated: 1
EndChar

StartChar: oe
Encoding: 274 339 275
Width: 1200
VWidth: 1000
Flags: HMW
LayerCount: 2
Fore
SplineSet
300 300 m 1
 400 200 l 1
 500 200 l 1
 500 600 l 1
 400 600 l 1
 300 500 l 1
 300 300 l 1
700 500 m 1
 900 500 l 1
 800 600 l 1
 700 600 l 1
 700 500 l 1
100 200 m 1
 100 600 l 1
 300 800 l 1
 900 800 l 1
 1100 600 l 1
 1100 300 l 1
 700 300 l 1
 700 200 l 1
 1100 200 l 1
 1100 0 l 1
 300 0 l 1
 100 200 l 1
EndSplineSet
Validated: 1
Substitution2: "'smcp' Lowercase to Small Capitals lookup 5-1" oe.sc
EndChar

StartChar: Racute
Encoding: 275 340 276
Width: 1000
VWidth: 1000
Flags: HMW
LayerCount: 2
Fore
SplineSet
300 700 m 1
 600 700 l 1
 700 800 l 1
 700 900 l 1
 600 1000 l 1
 300 1000 l 1
 300 700 l 1
100 0 m 1
 100 1200 l 1
 700 1200 l 1
 900 1000 l 1
 900 700 l 1
 700 500 l 1
 500 500 l 1
 900 100 l 1
 900 0 l 1
 700 0 l 1
 300 400 l 1
 300 0 l 1
 100 0 l 1
400 1300 m 1
 400 1400 l 1
 600 1600 l 1
 800 1600 l 1
 800 1500 l 1
 600 1300 l 1
 400 1300 l 1
EndSplineSet
Validated: 1
EndChar

StartChar: racute
Encoding: 276 341 277
Width: 700
VWidth: 1000
Flags: HMW
LayerCount: 2
Fore
SplineSet
100 0 m 1
 100 800 l 1
 500 800 l 1
 500 600 l 1
 300 600 l 1
 300 0 l 1
 100 0 l 1
200 900 m 1
 200 1000 l 1
 400 1200 l 1
 600 1200 l 1
 600 1100 l 1
 400 900 l 1
 200 900 l 1
EndSplineSet
Validated: 1
Substitution2: "'smcp' Lowercase to Small Capitals lookup 5-1" racute.sc
EndChar

StartChar: uni156
Encoding: 277 342 278
Width: 1000
VWidth: 1000
Flags: HMW
LayerCount: 2
Fore
SplineSet
400 -100 m 1
 600 -100 l 1
 600 -250 l 1
 450 -400 l 1
 400 -400 l 1
 400 -100 l 1
300 700 m 1
 600 700 l 1
 700 800 l 1
 700 900 l 1
 600 1000 l 1
 300 1000 l 1
 300 700 l 1
100 0 m 1
 100 1200 l 1
 700 1200 l 1
 900 1000 l 1
 900 700 l 1
 700 500 l 1
 500 500 l 1
 900 100 l 1
 900 0 l 1
 700 0 l 1
 300 400 l 1
 300 0 l 1
 100 0 l 1
EndSplineSet
Validated: 1
EndChar

StartChar: uni157
Encoding: 278 343 279
Width: 600
VWidth: 1000
Flags: HMW
LayerCount: 2
Fore
SplineSet
200 -100 m 1
 400 -100 l 1
 400 -250 l 1
 250 -400 l 1
 200 -400 l 1
 200 -100 l 1
100 0 m 1
 100 800 l 1
 500 800 l 1
 500 600 l 1
 300 600 l 1
 300 0 l 1
 100 0 l 1
EndSplineSet
Validated: 1
Substitution2: "'smcp' Lowercase to Small Capitals lookup 5-1" uni157.sc
EndChar

StartChar: Rcaron
Encoding: 279 344 280
Width: 1000
VWidth: 1000
Flags: HMW
LayerCount: 2
Fore
SplineSet
300 700 m 1
 600 700 l 1
 700 800 l 1
 700 900 l 1
 600 1000 l 1
 300 1000 l 1
 300 700 l 1
100 0 m 1
 100 1200 l 1
 700 1200 l 1
 900 1000 l 1
 900 700 l 1
 700 500 l 1
 500 500 l 1
 900 100 l 1
 900 0 l 1
 700 0 l 1
 300 400 l 1
 300 0 l 1
 100 0 l 1
200 1500 m 1
 200 1600 l 1
 400 1600 l 1
 500 1500 l 1
 600 1600 l 1
 800 1600 l 1
 800 1500 l 1
 600 1300 l 1
 400 1300 l 1
 200 1500 l 1
EndSplineSet
Validated: 1
EndChar

StartChar: rcaron
Encoding: 280 345 281
Width: 800
VWidth: 1000
Flags: HMW
LayerCount: 2
Fore
SplineSet
200 0 m 1
 200 800 l 1
 600 800 l 1
 600 600 l 1
 400 600 l 1
 400 0 l 1
 200 0 l 1
100 1100 m 1
 100 1200 l 1
 300 1200 l 1
 400 1100 l 1
 500 1200 l 1
 700 1200 l 1
 700 1100 l 1
 500 900 l 1
 300 900 l 1
 100 1100 l 1
EndSplineSet
Validated: 1
Substitution2: "'smcp' Lowercase to Small Capitals lookup 5-1" rcaron.sc
EndChar

StartChar: Sacute
Encoding: 281 346 282
Width: 1000
VWidth: 1000
Flags: HMW
LayerCount: 2
Fore
SplineSet
100 200 m 1
 100 300 l 1
 300 300 l 1
 400 200 l 1
 600 200 l 1
 700 300 l 1
 700 400 l 1
 600 500 l 1
 300 500 l 1
 100 700 l 1
 100 1000 l 1
 300 1200 l 1
 700 1200 l 1
 900 1000 l 1
 900 900 l 1
 700 900 l 1
 600 1000 l 1
 400 1000 l 1
 300 900 l 1
 300 800 l 1
 400 700 l 1
 700 700 l 1
 900 500 l 1
 900 200 l 1
 700 0 l 1
 300 0 l 1
 100 200 l 1
400 1300 m 1
 400 1400 l 1
 600 1600 l 1
 800 1600 l 1
 800 1500 l 1
 600 1300 l 1
 400 1300 l 1
EndSplineSet
Validated: 1
EndChar

StartChar: sacute
Encoding: 282 347 283
Width: 800
VWidth: 1000
Flags: HMW
LayerCount: 2
Fore
SplineSet
100 0 m 1
 100 200 l 1
 450 200 l 1
 500 250 l 1
 450 300 l 1
 250 300 l 1
 100 450 l 1
 100 650 l 1
 250 800 l 1
 700 800 l 1
 700 600 l 1
 350 600 l 1
 300 550 l 1
 350 500 l 1
 550 500 l 1
 700 350 l 1
 700 150 l 1
 550 0 l 1
 100 0 l 1
300 900 m 1
 300 1000 l 1
 500 1200 l 1
 700 1200 l 1
 700 1100 l 1
 500 900 l 1
 300 900 l 1
EndSplineSet
Validated: 1
Substitution2: "'smcp' Lowercase to Small Capitals lookup 5-1" sacute.sc
EndChar

StartChar: Scircumflex
Encoding: 283 348 284
Width: 1000
VWidth: 1000
Flags: HMW
LayerCount: 2
Fore
SplineSet
100 200 m 1
 100 300 l 1
 300 300 l 1
 400 200 l 1
 600 200 l 1
 700 300 l 1
 700 400 l 1
 600 500 l 1
 300 500 l 1
 100 700 l 1
 100 1000 l 1
 300 1200 l 1
 700 1200 l 1
 900 1000 l 1
 900 900 l 1
 700 900 l 1
 600 1000 l 1
 400 1000 l 1
 300 900 l 1
 300 800 l 1
 400 700 l 1
 700 700 l 1
 900 500 l 1
 900 200 l 1
 700 0 l 1
 300 0 l 1
 100 200 l 1
200 1300 m 1
 200 1400 l 1
 400 1600 l 1
 600 1600 l 1
 800 1400 l 1
 800 1300 l 1
 600 1300 l 1
 500 1400 l 1
 400 1300 l 1
 200 1300 l 1
EndSplineSet
Validated: 1
EndChar

StartChar: scircumflex
Encoding: 284 349 285
Width: 800
VWidth: 1000
Flags: HMW
LayerCount: 2
Fore
SplineSet
100 0 m 1
 100 200 l 1
 450 200 l 1
 500 250 l 1
 450 300 l 1
 250 300 l 1
 100 450 l 1
 100 650 l 1
 250 800 l 1
 700 800 l 1
 700 600 l 1
 350 600 l 1
 300 550 l 1
 350 500 l 1
 550 500 l 1
 700 350 l 1
 700 150 l 1
 550 0 l 1
 100 0 l 1
100 900 m 1
 100 1000 l 1
 300 1200 l 1
 500 1200 l 1
 700 1000 l 1
 700 900 l 1
 500 900 l 1
 400 1000 l 1
 300 900 l 1
 100 900 l 1
EndSplineSet
Validated: 1
Substitution2: "'smcp' Lowercase to Small Capitals lookup 5-1" scircumflex.sc
EndChar

StartChar: Scedilla
Encoding: 285 350 286
Width: 1000
VWidth: 1000
Flags: HMW
LayerCount: 2
Fore
SplineSet
100 200 m 1
 100 300 l 1
 300 300 l 1
 400 200 l 1
 600 200 l 1
 700 300 l 1
 700 400 l 1
 600 500 l 1
 300 500 l 1
 100 700 l 1
 100 1000 l 1
 300 1200 l 1
 700 1200 l 1
 900 1000 l 1
 900 900 l 1
 700 900 l 1
 600 1000 l 1
 400 1000 l 1
 300 900 l 1
 300 800 l 1
 400 700 l 1
 700 700 l 1
 900 500 l 1
 900 200 l 1
 700 0 l 1
 600 0 l 1
 700 -100 l 1
 700 -250 l 1
 550 -400 l 1
 300 -400 l 1
 300 -200 l 1
 450 -200 l 1
 500 -150 l 1
 400 -50 l 1
 400 0 l 1
 300 0 l 1
 100 200 l 1
EndSplineSet
Validated: 1
Substitution2: "'locl' Localized Forms in Latin lookup 3-1" uni219
EndChar

StartChar: scedilla
Encoding: 286 351 287
Width: 800
VWidth: 1000
Flags: HMW
LayerCount: 2
Fore
SplineSet
100 0 m 1
 100 200 l 1
 450 200 l 1
 500 250 l 1
 450 300 l 1
 250 300 l 1
 100 450 l 1
 100 650 l 1
 250 800 l 1
 700 800 l 1
 700 600 l 1
 350 600 l 1
 300 550 l 1
 350 500 l 1
 550 500 l 1
 700 350 l 1
 700 150 l 1
 550 0 l 1
 500 0 l 1
 600 -100 l 1
 600 -250 l 1
 450 -400 l 1
 200 -400 l 1
 200 -200 l 1
 350 -200 l 1
 400 -150 l 1
 300 -50 l 1
 300 0 l 1
 100 0 l 1
EndSplineSet
Validated: 1
Substitution2: "'smcp' Lowercase to Small Capitals lookup 5-1" scedilla.sc
Substitution2: "'locl' Localized Forms in Latin lookup 3-1" uni219
EndChar

StartChar: Scaron
Encoding: 287 352 288
Width: 1000
VWidth: 1000
Flags: HMW
LayerCount: 2
Fore
SplineSet
100 200 m 1
 100 300 l 1
 300 300 l 1
 400 200 l 1
 600 200 l 1
 700 300 l 1
 700 400 l 1
 600 500 l 1
 300 500 l 1
 100 700 l 1
 100 1000 l 1
 300 1200 l 1
 700 1200 l 1
 900 1000 l 1
 900 900 l 1
 700 900 l 1
 600 1000 l 1
 400 1000 l 1
 300 900 l 1
 300 800 l 1
 400 700 l 1
 700 700 l 1
 900 500 l 1
 900 200 l 1
 700 0 l 1
 300 0 l 1
 100 200 l 1
200 1500 m 1
 200 1600 l 1
 400 1600 l 1
 500 1500 l 1
 600 1600 l 1
 800 1600 l 1
 800 1500 l 1
 600 1300 l 1
 400 1300 l 1
 200 1500 l 1
EndSplineSet
Validated: 1
EndChar

StartChar: scaron
Encoding: 288 353 289
Width: 800
VWidth: 1000
Flags: HMW
LayerCount: 2
Fore
SplineSet
100 0 m 1
 100 200 l 1
 450 200 l 1
 500 250 l 1
 450 300 l 1
 250 300 l 1
 100 450 l 1
 100 650 l 1
 250 800 l 1
 700 800 l 1
 700 600 l 1
 350 600 l 1
 300 550 l 1
 350 500 l 1
 550 500 l 1
 700 350 l 1
 700 150 l 1
 550 0 l 1
 100 0 l 1
100 1100 m 1
 100 1200 l 1
 300 1200 l 1
 400 1100 l 1
 500 1200 l 1
 700 1200 l 1
 700 1100 l 1
 500 900 l 1
 300 900 l 1
 100 1100 l 1
EndSplineSet
Validated: 1
Substitution2: "'smcp' Lowercase to Small Capitals lookup 5-1" scaron.sc
EndChar

StartChar: uni162
Encoding: 289 354 290
Width: 1000
VWidth: 1000
Flags: HMW
LayerCount: 2
Fore
SplineSet
100 1000 m 1
 100 1200 l 1
 900 1200 l 1
 900 1000 l 1
 600 1000 l 1
 600 0 l 1
 700 -100 l 1
 700 -250 l 1
 550 -400 l 1
 300 -400 l 1
 300 -200 l 1
 450 -200 l 1
 500 -150 l 1
 400 -50 l 1
 400 1000 l 1
 100 1000 l 1
EndSplineSet
Validated: 1
Substitution2: "'locl' Localized Forms in Latin lookup 3-1" uni21A
EndChar

StartChar: uni163
Encoding: 290 355 291
Width: 800
VWidth: 1000
Flags: HMW
LayerCount: 2
Fore
SplineSet
100 600 m 1
 100 800 l 1
 300 800 l 1
 300 1200 l 1
 500 1200 l 1
 500 800 l 1
 700 800 l 1
 700 600 l 1
 500 600 l 1
 500 0 l 1
 600 -100 l 1
 600 -250 l 1
 450 -400 l 1
 200 -400 l 1
 200 -200 l 1
 350 -200 l 1
 400 -150 l 1
 300 -50 l 1
 300 600 l 1
 100 600 l 1
EndSplineSet
Validated: 1
Substitution2: "'smcp' Lowercase to Small Capitals lookup 5-1" uni163.sc
Substitution2: "'locl' Localized Forms in Latin lookup 3-1" uni21B
EndChar

StartChar: Tcaron
Encoding: 291 356 292
Width: 1000
VWidth: 1000
Flags: HMW
LayerCount: 2
Fore
SplineSet
100 1000 m 1
 100 1200 l 1
 900 1200 l 1
 900 1000 l 1
 600 1000 l 1
 600 0 l 1
 400 0 l 1
 400 1000 l 1
 100 1000 l 1
200 1500 m 1
 200 1600 l 1
 400 1600 l 1
 500 1500 l 1
 600 1600 l 1
 800 1600 l 1
 800 1500 l 1
 600 1300 l 1
 400 1300 l 1
 200 1500 l 1
EndSplineSet
Validated: 1
EndChar

StartChar: tcaron
Encoding: 292 357 293
Width: 1000
VWidth: 1000
Flags: HMW
LayerCount: 2
Fore
SplineSet
100 600 m 1
 100 800 l 1
 300 800 l 1
 300 1200 l 1
 500 1200 l 1
 500 800 l 1
 700 800 l 1
 700 600 l 1
 500 600 l 1
 500 0 l 1
 300 0 l 1
 300 600 l 1
 100 600 l 1
700 900 m 1
 700 1200 l 1
 900 1200 l 1
 900 1050 l 1
 750 900 l 1
 700 900 l 1
EndSplineSet
Validated: 1
Substitution2: "'smcp' Lowercase to Small Capitals lookup 5-1" tcaron.sc
EndChar

StartChar: Tbar
Encoding: 293 358 294
Width: 1000
VWidth: 1000
Flags: HMW
LayerCount: 2
Fore
SplineSet
100 1000 m 1
 100 1200 l 1
 900 1200 l 1
 900 1000 l 1
 600 1000 l 1
 600 600 l 1
 800 600 l 1
 800 400 l 1
 600 400 l 1
 600 0 l 1
 400 0 l 1
 400 400 l 1
 200 400 l 1
 200 600 l 1
 400 600 l 1
 400 1000 l 1
 100 1000 l 1
EndSplineSet
Validated: 1
EndChar

StartChar: tbar
Encoding: 294 359 295
Width: 800
VWidth: 1000
Flags: HMW
LayerCount: 2
Fore
SplineSet
100 400 m 1
 100 600 l 1
 300 600 l 1
 300 700 l 1
 100 700 l 1
 100 900 l 1
 300 900 l 1
 300 1200 l 1
 500 1200 l 1
 500 900 l 1
 700 900 l 1
 700 700 l 1
 500 700 l 1
 500 600 l 1
 700 600 l 1
 700 400 l 1
 500 400 l 1
 500 0 l 1
 300 0 l 1
 300 400 l 1
 100 400 l 1
EndSplineSet
Validated: 1
Substitution2: "'smcp' Lowercase to Small Capitals lookup 5-1" tbar.sc
EndChar

StartChar: Utilde
Encoding: 295 360 296
Width: 1000
VWidth: 1000
Flags: HMW
LayerCount: 2
Fore
SplineSet
100 200 m 1
 100 1200 l 1
 300 1200 l 1
 300 300 l 1
 400 200 l 1
 600 200 l 1
 700 300 l 1
 700 1200 l 1
 900 1200 l 1
 900 200 l 1
 700 0 l 1
 300 0 l 1
 100 200 l 1
100 1300 m 1
 100 1400 l 1
 300 1600 l 1
 500 1600 l 1
 600 1500 l 1
 700 1600 l 1
 900 1600 l 1
 900 1500 l 1
 700 1300 l 1
 500 1300 l 1
 400 1400 l 1
 300 1300 l 1
 100 1300 l 1
EndSplineSet
Validated: 1
EndChar

StartChar: utilde
Encoding: 296 361 297
Width: 1000
VWidth: 1000
Flags: HMW
LayerCount: 2
Fore
SplineSet
100 200 m 1
 100 800 l 1
 300 800 l 1
 300 300 l 1
 400 200 l 1
 700 200 l 1
 700 800 l 1
 900 800 l 1
 900 0 l 1
 300 0 l 1
 100 200 l 1
100 900 m 1
 100 1000 l 1
 300 1200 l 1
 500 1200 l 1
 600 1100 l 1
 700 1200 l 1
 900 1200 l 1
 900 1100 l 1
 700 900 l 1
 500 900 l 1
 400 1000 l 1
 300 900 l 1
 100 900 l 1
EndSplineSet
Validated: 1
Substitution2: "'smcp' Lowercase to Small Capitals lookup 5-1" utilde.sc
EndChar

StartChar: Umacron
Encoding: 297 362 298
Width: 1000
VWidth: 1000
Flags: HMW
LayerCount: 2
Fore
SplineSet
100 200 m 1
 100 1200 l 1
 300 1200 l 1
 300 300 l 1
 400 200 l 1
 600 200 l 1
 700 300 l 1
 700 1200 l 1
 900 1200 l 1
 900 200 l 1
 700 0 l 1
 300 0 l 1
 100 200 l 1
200 1400 m 1
 200 1600 l 1
 800 1600 l 1
 800 1400 l 1
 200 1400 l 1
EndSplineSet
Validated: 1
EndChar

StartChar: umacron
Encoding: 298 363 299
Width: 1000
VWidth: 1000
Flags: HMW
LayerCount: 2
Fore
SplineSet
100 200 m 1
 100 800 l 1
 300 800 l 1
 300 300 l 1
 400 200 l 1
 700 200 l 1
 700 800 l 1
 900 800 l 1
 900 0 l 1
 300 0 l 1
 100 200 l 1
200 1000 m 1
 200 1200 l 1
 800 1200 l 1
 800 1000 l 1
 200 1000 l 1
EndSplineSet
Validated: 1
Substitution2: "'smcp' Lowercase to Small Capitals lookup 5-1" umacron.sc
EndChar

StartChar: Ubreve
Encoding: 299 364 300
Width: 1000
VWidth: 1000
Flags: HMW
LayerCount: 2
Fore
SplineSet
100 200 m 1
 100 1200 l 1
 300 1200 l 1
 300 300 l 1
 400 200 l 1
 600 200 l 1
 700 300 l 1
 700 1200 l 1
 900 1200 l 1
 900 200 l 1
 700 0 l 1
 300 0 l 1
 100 200 l 1
100 1500 m 1
 100 1600 l 1
 300 1600 l 1
 400 1500 l 1
 600 1500 l 1
 700 1600 l 1
 900 1600 l 1
 900 1500 l 1
 700 1300 l 1
 300 1300 l 1
 100 1500 l 1
EndSplineSet
Validated: 1
EndChar

StartChar: ubreve
Encoding: 300 365 301
Width: 1000
VWidth: 1000
Flags: HMW
LayerCount: 2
Fore
SplineSet
100 200 m 1
 100 800 l 1
 300 800 l 1
 300 300 l 1
 400 200 l 1
 700 200 l 1
 700 800 l 1
 900 800 l 1
 900 0 l 1
 300 0 l 1
 100 200 l 1
100 1100 m 1
 100 1200 l 1
 300 1200 l 1
 400 1100 l 1
 600 1100 l 1
 700 1200 l 1
 900 1200 l 1
 900 1100 l 1
 700 900 l 1
 300 900 l 1
 100 1100 l 1
EndSplineSet
Validated: 1
Substitution2: "'smcp' Lowercase to Small Capitals lookup 5-1" ubreve.sc
EndChar

StartChar: Uring
Encoding: 301 366 302
Width: 1000
VWidth: 1000
Flags: HMW
LayerCount: 2
Fore
SplineSet
100 200 m 1
 100 1200 l 1
 300 1200 l 1
 300 300 l 1
 400 200 l 1
 600 200 l 1
 700 300 l 1
 700 1200 l 1
 900 1200 l 1
 900 200 l 1
 700 0 l 1
 300 0 l 1
 100 200 l 1
400 1400 m 1
 500 1300 l 1
 600 1400 l 1
 500 1500 l 1
 400 1400 l 1
200 1300 m 1
 200 1500 l 1
 300 1600 l 1
 700 1600 l 1
 800 1500 l 1
 800 1300 l 1
 700 1200 l 1
 300 1200 l 1
 200 1300 l 1
EndSplineSet
Validated: 5
EndChar

StartChar: uring
Encoding: 302 367 303
Width: 1000
VWidth: 1000
Flags: HMW
LayerCount: 2
Fore
SplineSet
100 200 m 1
 100 800 l 1
 300 800 l 1
 300 300 l 1
 400 200 l 1
 700 200 l 1
 700 800 l 1
 900 800 l 1
 900 0 l 1
 300 0 l 1
 100 200 l 1
400 1000 m 1
 500 900 l 1
 600 1000 l 1
 500 1100 l 1
 400 1000 l 1
200 900 m 1
 200 1100 l 1
 300 1200 l 1
 700 1200 l 1
 800 1100 l 1
 800 900 l 1
 700 800 l 1
 300 800 l 1
 200 900 l 1
EndSplineSet
Validated: 5
Substitution2: "'smcp' Lowercase to Small Capitals lookup 5-1" uring.sc
EndChar

StartChar: Uhungarumlaut
Encoding: 303 368 304
Width: 1000
VWidth: 1000
Flags: HMW
LayerCount: 2
Fore
SplineSet
100 200 m 1
 100 1200 l 1
 300 1200 l 1
 300 300 l 1
 400 200 l 1
 600 200 l 1
 700 300 l 1
 700 1200 l 1
 900 1200 l 1
 900 200 l 1
 700 0 l 1
 300 0 l 1
 100 200 l 1
100 1300 m 1
 100 1400 l 1
 300 1600 l 1
 500 1600 l 1
 500 1500 l 1
 300 1300 l 1
 100 1300 l 1
500 1300 m 1
 500 1400 l 1
 700 1600 l 1
 900 1600 l 1
 900 1500 l 1
 700 1300 l 1
 500 1300 l 1
EndSplineSet
Validated: 1
EndChar

StartChar: uhungarumlaut
Encoding: 304 369 305
Width: 1000
VWidth: 1000
Flags: HMW
LayerCount: 2
Fore
SplineSet
100 200 m 1
 100 800 l 1
 300 800 l 1
 300 300 l 1
 400 200 l 1
 700 200 l 1
 700 800 l 1
 900 800 l 1
 900 0 l 1
 300 0 l 1
 100 200 l 1
100 900 m 1
 100 1000 l 1
 300 1200 l 1
 500 1200 l 1
 500 1100 l 1
 300 900 l 1
 100 900 l 1
500 900 m 1
 500 1000 l 1
 700 1200 l 1
 900 1200 l 1
 900 1100 l 1
 700 900 l 1
 500 900 l 1
EndSplineSet
Validated: 1
Substitution2: "'smcp' Lowercase to Small Capitals lookup 5-1" uhungarumlaut.sc
EndChar

StartChar: Uogonek
Encoding: 305 370 306
Width: 1000
VWidth: 1000
Flags: HMW
LayerCount: 2
Fore
SplineSet
100 200 m 1
 100 1200 l 1
 300 1200 l 1
 300 300 l 1
 400 200 l 1
 600 200 l 1
 700 300 l 1
 700 1200 l 1
 900 1200 l 1
 900 200 l 1
 700 0 l 1
 650 0 l 1
 500 -150 l 1
 550 -200 l 1
 700 -200 l 1
 700 -400 l 1
 450 -400 l 1
 300 -250 l 1
 300 -100 l 1
 400 0 l 1
 300 0 l 1
 100 200 l 1
EndSplineSet
Validated: 1
EndChar

StartChar: uogonek
Encoding: 306 371 307
Width: 1000
VWidth: 1000
Flags: HMW
LayerCount: 2
Fore
SplineSet
100 200 m 1
 100 800 l 1
 300 800 l 1
 300 300 l 1
 400 200 l 1
 700 200 l 1
 700 800 l 1
 900 800 l 1
 900 0 l 1
 850 0 l 1
 700 -150 l 1
 750 -200 l 1
 900 -200 l 1
 900 -400 l 1
 650 -400 l 1
 500 -250 l 1
 500 -100 l 1
 600 0 l 1
 300 0 l 1
 100 200 l 1
EndSplineSet
Validated: 1
Substitution2: "'smcp' Lowercase to Small Capitals lookup 5-1" uogonek.sc
EndChar

StartChar: Wcircumflex
Encoding: 307 372 308
Width: 1200
VWidth: 1000
Flags: HMW
LayerCount: 2
Fore
SplineSet
100 0 m 1
 100 1200 l 1
 300 1200 l 1
 300 300 l 1
 500 500 l 1
 500 700 l 1
 700 700 l 1
 700 500 l 1
 900 300 l 1
 900 1200 l 1
 1100 1200 l 1
 1100 0 l 1
 900 0 l 1
 600 300 l 1
 300 0 l 1
 100 0 l 1
300 1300 m 1
 300 1400 l 1
 500 1600 l 1
 700 1600 l 1
 900 1400 l 1
 900 1300 l 1
 700 1300 l 1
 600 1400 l 1
 500 1300 l 1
 300 1300 l 1
EndSplineSet
Validated: 1
EndChar

StartChar: wcircumflex
Encoding: 308 373 309
Width: 1200
VWidth: 1000
Flags: HMW
LayerCount: 2
Fore
SplineSet
100 200 m 1
 100 800 l 1
 300 800 l 1
 300 300 l 1
 400 200 l 1
 500 200 l 1
 500 800 l 1
 700 800 l 1
 700 200 l 1
 800 200 l 1
 900 300 l 1
 900 800 l 1
 1100 800 l 1
 1100 200 l 1
 900 0 l 1
 300 0 l 1
 100 200 l 1
300 900 m 1
 300 1000 l 1
 500 1200 l 1
 700 1200 l 1
 900 1000 l 1
 900 900 l 1
 700 900 l 1
 600 1000 l 1
 500 900 l 1
 300 900 l 1
EndSplineSet
Validated: 1
Substitution2: "'smcp' Lowercase to Small Capitals lookup 5-1" wcircumflex.sc
EndChar

StartChar: Ycircumflex
Encoding: 309 374 310
Width: 1000
VWidth: 1000
Flags: HMW
LayerCount: 2
Fore
SplineSet
100 750 m 1
 100 1200 l 1
 300 1200 l 1
 300 850 l 1
 500 650 l 1
 700 850 l 1
 700 1200 l 1
 900 1200 l 1
 900 750 l 1
 600 450 l 1
 600 0 l 1
 400 0 l 1
 400 450 l 1
 100 750 l 1
200 1300 m 1
 200 1400 l 1
 400 1600 l 1
 600 1600 l 1
 800 1400 l 1
 800 1300 l 1
 600 1300 l 1
 500 1400 l 1
 400 1300 l 1
 200 1300 l 1
EndSplineSet
Validated: 1
EndChar

StartChar: ycircumflex
Encoding: 310 375 311
Width: 1000
VWidth: 1000
Flags: HMW
LayerCount: 2
Fore
SplineSet
100 200 m 1
 100 800 l 1
 300 800 l 1
 300 300 l 1
 400 200 l 1
 700 200 l 1
 700 800 l 1
 900 800 l 1
 900 -200 l 1
 700 -400 l 1
 300 -400 l 1
 300 -200 l 1
 600 -200 l 1
 700 -100 l 1
 700 0 l 1
 300 0 l 1
 100 200 l 1
200 900 m 1
 200 1000 l 1
 400 1200 l 1
 600 1200 l 1
 800 1000 l 1
 800 900 l 1
 600 900 l 1
 500 1000 l 1
 400 900 l 1
 200 900 l 1
EndSplineSet
Validated: 1
Substitution2: "'smcp' Lowercase to Small Capitals lookup 5-1" ycircumflex.sc
EndChar

StartChar: Ydieresis
Encoding: 311 376 312
Width: 1000
VWidth: 1000
Flags: HMW
LayerCount: 2
Fore
SplineSet
100 750 m 1
 100 1200 l 1
 300 1200 l 1
 300 850 l 1
 500 650 l 1
 700 850 l 1
 700 1200 l 1
 900 1200 l 1
 900 750 l 1
 600 450 l 1
 600 0 l 1
 400 0 l 1
 400 450 l 1
 100 750 l 1
200 1400 m 1
 200 1600 l 1
 400 1600 l 1
 400 1400 l 1
 200 1400 l 1
600 1400 m 1
 600 1600 l 1
 800 1600 l 1
 800 1400 l 1
 600 1400 l 1
EndSplineSet
Validated: 1
EndChar

StartChar: Zacute
Encoding: 312 377 313
Width: 1000
VWidth: 1000
Flags: HMW
LayerCount: 2
Fore
SplineSet
100 0 m 1
 100 350 l 1
 700 950 l 1
 700 1000 l 1
 100 1000 l 1
 100 1200 l 1
 900 1200 l 1
 900 850 l 1
 300 250 l 1
 300 200 l 1
 900 200 l 1
 900 0 l 1
 100 0 l 1
400 1300 m 1
 400 1400 l 1
 600 1600 l 1
 800 1600 l 1
 800 1500 l 1
 600 1300 l 1
 400 1300 l 1
EndSplineSet
Validated: 1
EndChar

StartChar: zacute
Encoding: 313 378 314
Width: 1000
VWidth: 1000
Flags: HMW
LayerCount: 2
Fore
SplineSet
100 0 m 1
 100 150 l 1
 550 600 l 1
 100 600 l 1
 100 800 l 1
 900 800 l 1
 900 650 l 1
 450 200 l 1
 900 200 l 1
 900 0 l 1
 100 0 l 1
400 900 m 1
 400 1000 l 1
 600 1200 l 1
 800 1200 l 1
 800 1100 l 1
 600 900 l 1
 400 900 l 1
EndSplineSet
Validated: 1
Substitution2: "'smcp' Lowercase to Small Capitals lookup 5-1" zacute.sc
EndChar

StartChar: Zdotaccent
Encoding: 314 379 315
Width: 1000
VWidth: 1000
Flags: HMW
LayerCount: 2
Fore
SplineSet
100 0 m 1
 100 350 l 1
 700 950 l 1
 700 1000 l 1
 100 1000 l 1
 100 1200 l 1
 900 1200 l 1
 900 850 l 1
 300 250 l 1
 300 200 l 1
 900 200 l 1
 900 0 l 1
 100 0 l 1
400 1400 m 1
 400 1600 l 1
 600 1600 l 1
 600 1400 l 1
 400 1400 l 1
EndSplineSet
Validated: 1
EndChar

StartChar: zdotaccent
Encoding: 315 380 316
Width: 1000
VWidth: 1000
Flags: HMW
LayerCount: 2
Fore
SplineSet
100 0 m 1
 100 150 l 1
 550 600 l 1
 100 600 l 1
 100 800 l 1
 900 800 l 1
 900 650 l 1
 450 200 l 1
 900 200 l 1
 900 0 l 1
 100 0 l 1
400 1000 m 1
 400 1200 l 1
 600 1200 l 1
 600 1000 l 1
 400 1000 l 1
EndSplineSet
Validated: 1
Substitution2: "'smcp' Lowercase to Small Capitals lookup 5-1" zdotaccent.sc
EndChar

StartChar: Zcaron
Encoding: 316 381 317
Width: 1000
VWidth: 1000
Flags: HMW
LayerCount: 2
Fore
SplineSet
100 0 m 1
 100 350 l 1
 700 950 l 1
 700 1000 l 1
 100 1000 l 1
 100 1200 l 1
 900 1200 l 1
 900 850 l 1
 300 250 l 1
 300 200 l 1
 900 200 l 1
 900 0 l 1
 100 0 l 1
200 1500 m 1
 200 1600 l 1
 400 1600 l 1
 500 1500 l 1
 600 1600 l 1
 800 1600 l 1
 800 1500 l 1
 600 1300 l 1
 400 1300 l 1
 200 1500 l 1
EndSplineSet
Validated: 1
EndChar

StartChar: zcaron
Encoding: 317 382 318
Width: 1000
VWidth: 1000
Flags: HMW
LayerCount: 2
Fore
SplineSet
100 0 m 1
 100 150 l 1
 550 600 l 1
 100 600 l 1
 100 800 l 1
 900 800 l 1
 900 650 l 1
 450 200 l 1
 900 200 l 1
 900 0 l 1
 100 0 l 1
200 1100 m 1
 200 1200 l 1
 400 1200 l 1
 500 1100 l 1
 600 1200 l 1
 800 1200 l 1
 800 1100 l 1
 600 900 l 1
 400 900 l 1
 200 1100 l 1
EndSplineSet
Validated: 1
Substitution2: "'smcp' Lowercase to Small Capitals lookup 5-1" zcaron.sc
EndChar

StartChar: longs
Encoding: 318 383 319
Width: 800
VWidth: 1000
Flags: HMW
LayerCount: 2
Fore
SplineSet
100 0 m 1
 100 200 l 1
 300 200 l 1
 300 600 l 1
 100 600 l 1
 100 800 l 1
 300 800 l 1
 300 1000 l 1
 500 1200 l 1
 700 1200 l 1
 700 1000 l 1
 600 1000 l 1
 500 900 l 1
 500 200 l 1
 700 200 l 1
 700 0 l 1
 100 0 l 1
EndSplineSet
Validated: 1
EndChar

StartChar: florin
Encoding: 319 402 320
Width: 800
VWidth: 1000
Flags: HMW
LayerCount: 2
Fore
SplineSet
100 -200 m 1
 200 -200 l 1
 300 -100 l 1
 300 600 l 1
 100 600 l 1
 100 800 l 1
 300 800 l 1
 300 1000 l 1
 500 1200 l 1
 700 1200 l 1
 700 1000 l 1
 600 1000 l 1
 500 900 l 1
 500 800 l 1
 700 800 l 1
 700 600 l 1
 500 600 l 1
 500 -200 l 1
 300 -400 l 1
 100 -400 l 1
 100 -200 l 1
EndSplineSet
Validated: 1
EndChar

StartChar: Ohorn
Encoding: 320 416 321
Width: 1400
VWidth: 1000
Flags: HMW
LayerCount: 2
Fore
SplineSet
300 300 m 1
 400 200 l 1
 600 200 l 1
 700 300 l 1
 700 900 l 1
 600 1000 l 1
 400 1000 l 1
 300 900 l 1
 300 300 l 1
100 200 m 1
 100 1000 l 1
 300 1200 l 1
 700 1200 l 1
 900 1000 l 1
 1000 1000 l 1
 1100 1100 l 1
 1100 1200 l 1
 1300 1200 l 1
 1300 1000 l 1
 1100 800 l 1
 900 800 l 1
 900 200 l 1
 700 0 l 1
 300 0 l 1
 100 200 l 1
EndSplineSet
Validated: 1
EndChar

StartChar: ohorn
Encoding: 321 417 322
Width: 1400
VWidth: 1000
Flags: HMW
LayerCount: 2
Fore
SplineSet
300 300 m 1
 400 200 l 1
 600 200 l 1
 700 300 l 1
 700 500 l 1
 600 600 l 1
 400 600 l 1
 300 500 l 1
 300 300 l 1
100 200 m 1
 100 600 l 1
 300 800 l 1
 700 800 l 1
 900 600 l 1
 1000 600 l 1
 1100 700 l 1
 1100 800 l 1
 1300 800 l 1
 1300 600 l 1
 1100 400 l 1
 900 400 l 1
 900 200 l 1
 700 0 l 1
 300 0 l 1
 100 200 l 1
EndSplineSet
Validated: 1
Substitution2: "'smcp' Lowercase to Small Capitals lookup 5-1" ohorn.sc
EndChar

StartChar: Uhorn
Encoding: 322 431 323
Width: 1400
VWidth: 1000
Flags: HMW
LayerCount: 2
Fore
SplineSet
100 200 m 1
 100 1200 l 1
 300 1200 l 1
 300 300 l 1
 400 200 l 1
 600 200 l 1
 700 300 l 1
 700 1200 l 1
 900 1200 l 1
 900 1000 l 1
 1000 1000 l 1
 1100 1100 l 1
 1100 1200 l 1
 1300 1200 l 1
 1300 1000 l 1
 1100 800 l 1
 900 800 l 1
 900 200 l 1
 700 0 l 1
 300 0 l 1
 100 200 l 1
EndSplineSet
Validated: 1
EndChar

StartChar: uhorn
Encoding: 323 432 324
Width: 1400
VWidth: 1000
Flags: HMW
LayerCount: 2
Fore
SplineSet
100 200 m 1
 100 800 l 1
 300 800 l 1
 300 300 l 1
 400 200 l 1
 700 200 l 1
 700 800 l 1
 900 800 l 1
 900 600 l 1
 1000 600 l 1
 1100 700 l 1
 1100 800 l 1
 1300 800 l 1
 1300 600 l 1
 1100 400 l 1
 900 400 l 1
 900 0 l 1
 300 0 l 1
 100 200 l 1
EndSplineSet
Validated: 1
Substitution2: "'smcp' Lowercase to Small Capitals lookup 5-1" uhorn.sc
EndChar

StartChar: uni1C4
Encoding: 324 452 325
Width: 2000
VWidth: 1000
Flags: HMW
LayerCount: 2
Fore
SplineSet
300 200 m 1
 550 200 l 1
 700 350 l 1
 700 850 l 1
 550 1000 l 1
 300 1000 l 1
 300 200 l 1
100 0 m 1
 100 1200 l 1
 650 1200 l 1
 900 950 l 1
 900 250 l 1
 650 0 l 1
 100 0 l 1
1100 0 m 1
 1100 350 l 1
 1700 950 l 1
 1700 1000 l 1
 1100 1000 l 1
 1100 1200 l 1
 1900 1200 l 1
 1900 850 l 1
 1300 250 l 1
 1300 200 l 1
 1900 200 l 1
 1900 0 l 1
 1100 0 l 1
1200 1500 m 1
 1200 1600 l 1
 1400 1600 l 1
 1500 1500 l 1
 1600 1600 l 1
 1800 1600 l 1
 1800 1500 l 1
 1600 1300 l 1
 1400 1300 l 1
 1200 1500 l 1
EndSplineSet
Validated: 1
EndChar

StartChar: uni1C5
Encoding: 325 453 326
Width: 2000
VWidth: 1000
Flags: HMW
LayerCount: 2
Fore
SplineSet
1100 0 m 1
 1100 150 l 1
 1550 600 l 1
 1100 600 l 1
 1100 800 l 1
 1900 800 l 1
 1900 650 l 1
 1450 200 l 1
 1900 200 l 1
 1900 0 l 1
 1100 0 l 1
300 200 m 1
 550 200 l 1
 700 350 l 1
 700 850 l 1
 550 1000 l 1
 300 1000 l 1
 300 200 l 1
100 0 m 1
 100 1200 l 1
 650 1200 l 1
 900 950 l 1
 900 250 l 1
 650 0 l 1
 100 0 l 1
1200 1100 m 1
 1200 1200 l 1
 1400 1200 l 1
 1500 1100 l 1
 1600 1200 l 1
 1800 1200 l 1
 1800 1100 l 1
 1600 900 l 1
 1400 900 l 1
 1200 1100 l 1
EndSplineSet
Validated: 1
Substitution2: "'smcp' Lowercase to Small Capitals lookup 5-1" uni1C5.sc
EndChar

StartChar: uni1C6
Encoding: 326 454 327
Width: 2000
VWidth: 1000
Flags: HMW
LayerCount: 2
Fore
SplineSet
300 300 m 1
 400 200 l 1
 700 200 l 1
 700 600 l 1
 400 600 l 1
 300 500 l 1
 300 300 l 1
1100 0 m 1
 1100 150 l 1
 1550 600 l 1
 1100 600 l 1
 1100 800 l 1
 1900 800 l 1
 1900 650 l 1
 1450 200 l 1
 1900 200 l 1
 1900 0 l 1
 1100 0 l 1
100 200 m 1
 100 600 l 1
 300 800 l 1
 700 800 l 1
 700 1200 l 1
 900 1200 l 1
 900 0 l 1
 300 0 l 1
 100 200 l 1
1200 1100 m 1
 1200 1200 l 1
 1400 1200 l 1
 1500 1100 l 1
 1600 1200 l 1
 1800 1200 l 1
 1800 1100 l 1
 1600 900 l 1
 1400 900 l 1
 1200 1100 l 1
EndSplineSet
Validated: 1
Substitution2: "'smcp' Lowercase to Small Capitals lookup 5-1" uni1C6.sc
EndChar

StartChar: uni1C7
Encoding: 327 455 328
Width: 2000
VWidth: 1000
Flags: HMW
LayerCount: 2
Fore
SplineSet
100 0 m 1
 100 1200 l 1
 300 1200 l 1
 300 200 l 1
 900 200 l 1
 900 0 l 1
 100 0 l 1
1100 200 m 1
 1100 300 l 1
 1300 300 l 1
 1400 200 l 1
 1500 200 l 1
 1600 300 l 1
 1600 1000 l 1
 1400 1000 l 1
 1400 1200 l 1
 1900 1200 l 1
 1900 1000 l 1
 1800 1000 l 1
 1800 200 l 1
 1600 0 l 1
 1300 0 l 1
 1100 200 l 1
EndSplineSet
Validated: 1
EndChar

StartChar: uni1C8
Encoding: 328 456 329
Width: 1400
VWidth: 1000
Flags: HMW
LayerCount: 2
Fore
SplineSet
1100 -400 m 1
 1100 800 l 1
 1300 800 l 1
 1300 -400 l 1
 1100 -400 l 1
100 0 m 1
 100 1200 l 1
 300 1200 l 1
 300 200 l 1
 900 200 l 1
 900 0 l 1
 100 0 l 1
1100 1000 m 1
 1100 1200 l 1
 1300 1200 l 1
 1300 1000 l 1
 1100 1000 l 1
EndSplineSet
Validated: 1
Substitution2: "'smcp' Lowercase to Small Capitals lookup 5-1" uni1C8.sc
EndChar

StartChar: uni1C9
Encoding: 329 457 330
Width: 800
VWidth: 1000
Flags: HMW
LayerCount: 2
Fore
SplineSet
500 -400 m 1
 500 800 l 1
 700 800 l 1
 700 -400 l 1
 500 -400 l 1
100 0 m 1
 100 1200 l 1
 300 1200 l 1
 300 0 l 1
 100 0 l 1
500 1000 m 1
 500 1200 l 1
 700 1200 l 1
 700 1000 l 1
 500 1000 l 1
EndSplineSet
Validated: 1
Substitution2: "'smcp' Lowercase to Small Capitals lookup 5-1" uni1C9.sc
EndChar

StartChar: uni1CA
Encoding: 330 458 331
Width: 2000
VWidth: 1000
Flags: HMW
LayerCount: 2
Fore
SplineSet
100 0 m 1
 100 1200 l 1
 300 1200 l 1
 300 950 l 1
 700 550 l 1
 700 1200 l 1
 900 1200 l 1
 900 0 l 1
 700 0 l 1
 700 250 l 1
 300 650 l 1
 300 0 l 1
 100 0 l 1
1100 200 m 1
 1100 300 l 1
 1300 300 l 1
 1400 200 l 1
 1500 200 l 1
 1600 300 l 1
 1600 1000 l 1
 1400 1000 l 1
 1400 1200 l 1
 1900 1200 l 1
 1900 1000 l 1
 1800 1000 l 1
 1800 200 l 1
 1600 0 l 1
 1300 0 l 1
 1100 200 l 1
EndSplineSet
Validated: 1
EndChar

StartChar: uni1CB
Encoding: 331 459 332
Width: 1400
VWidth: 1000
Flags: HMW
LayerCount: 2
Fore
SplineSet
1100 -400 m 1
 1100 800 l 1
 1300 800 l 1
 1300 -400 l 1
 1100 -400 l 1
100 0 m 1
 100 1200 l 1
 300 1200 l 1
 300 950 l 1
 700 550 l 1
 700 1200 l 1
 900 1200 l 1
 900 0 l 1
 700 0 l 1
 700 250 l 1
 300 650 l 1
 300 0 l 1
 100 0 l 1
1100 1000 m 1
 1100 1200 l 1
 1300 1200 l 1
 1300 1000 l 1
 1100 1000 l 1
EndSplineSet
Validated: 1
Substitution2: "'smcp' Lowercase to Small Capitals lookup 5-1" uni1CB.sc
EndChar

StartChar: uni1CC
Encoding: 332 460 333
Width: 1400
VWidth: 1000
Flags: HMW
LayerCount: 2
Fore
SplineSet
100 0 m 1
 100 800 l 1
 700 800 l 1
 900 600 l 1
 900 0 l 1
 700 0 l 1
 700 500 l 1
 600 600 l 1
 300 600 l 1
 300 0 l 1
 100 0 l 1
1100 -400 m 1
 1100 800 l 1
 1300 800 l 1
 1300 -400 l 1
 1100 -400 l 1
1100 1000 m 1
 1100 1200 l 1
 1300 1200 l 1
 1300 1000 l 1
 1100 1000 l 1
EndSplineSet
Validated: 1
Substitution2: "'smcp' Lowercase to Small Capitals lookup 5-1" uni1CC.sc
EndChar

StartChar: uni1CD
Encoding: 333 461 334
Width: 1000
VWidth: 1000
Flags: HMW
LayerCount: 2
Fore
SplineSet
300 600 m 1
 700 600 l 1
 700 800 l 1
 500 1000 l 1
 300 800 l 1
 300 600 l 1
100 0 m 1
 100 900 l 1
 400 1200 l 1
 600 1200 l 1
 900 900 l 1
 900 0 l 1
 700 0 l 1
 700 400 l 1
 300 400 l 1
 300 0 l 1
 100 0 l 1
200 1500 m 1
 200 1600 l 1
 400 1600 l 1
 500 1500 l 1
 600 1600 l 1
 800 1600 l 1
 800 1500 l 1
 600 1300 l 1
 400 1300 l 1
 200 1500 l 1
EndSplineSet
Validated: 1
EndChar

StartChar: uni1CE
Encoding: 334 462 335
Width: 1000
VWidth: 1000
Flags: HMW
LayerCount: 2
Fore
SplineSet
300 250 m 1
 350 200 l 1
 700 200 l 1
 700 300 l 1
 350 300 l 1
 300 250 l 1
100 150 m 1
 100 350 l 1
 250 500 l 1
 700 500 l 1
 600 600 l 1
 300 600 l 1
 300 800 l 1
 700 800 l 1
 900 600 l 1
 900 0 l 1
 250 0 l 1
 100 150 l 1
200 1100 m 1
 200 1200 l 1
 400 1200 l 1
 500 1100 l 1
 600 1200 l 1
 800 1200 l 1
 800 1100 l 1
 600 900 l 1
 400 900 l 1
 200 1100 l 1
EndSplineSet
Validated: 1
Substitution2: "'smcp' Lowercase to Small Capitals lookup 5-1" uni1CE.sc
EndChar

StartChar: uni1CF
Encoding: 335 463 336
Width: 800
VWidth: 1000
Flags: HMW
LayerCount: 2
Fore
SplineSet
100 0 m 1
 100 200 l 1
 300 200 l 1
 300 1000 l 1
 100 1000 l 1
 100 1200 l 1
 700 1200 l 1
 700 1000 l 1
 500 1000 l 1
 500 200 l 1
 700 200 l 1
 700 0 l 1
 100 0 l 1
100 1500 m 1
 100 1600 l 1
 300 1600 l 1
 400 1500 l 1
 500 1600 l 1
 700 1600 l 1
 700 1500 l 1
 500 1300 l 1
 300 1300 l 1
 100 1500 l 1
EndSplineSet
Validated: 1
EndChar

StartChar: uni1D0
Encoding: 336 464 337
Width: 800
VWidth: 1000
Flags: HMW
LayerCount: 2
Fore
SplineSet
300 0 m 1
 300 800 l 1
 500 800 l 1
 500 0 l 1
 300 0 l 1
100 1100 m 1
 100 1200 l 1
 300 1200 l 1
 400 1100 l 1
 500 1200 l 1
 700 1200 l 1
 700 1100 l 1
 500 900 l 1
 300 900 l 1
 100 1100 l 1
EndSplineSet
Validated: 1
Substitution2: "'smcp' Lowercase to Small Capitals lookup 5-1" uni1D0.sc
EndChar

StartChar: uni1D1
Encoding: 337 465 338
Width: 1000
VWidth: 1000
Flags: HMW
LayerCount: 2
Fore
SplineSet
300 300 m 1
 400 200 l 1
 600 200 l 1
 700 300 l 1
 700 900 l 1
 600 1000 l 1
 400 1000 l 1
 300 900 l 1
 300 300 l 1
100 200 m 1
 100 1000 l 1
 300 1200 l 1
 700 1200 l 1
 900 1000 l 1
 900 200 l 1
 700 0 l 1
 300 0 l 1
 100 200 l 1
200 1500 m 1
 200 1600 l 1
 400 1600 l 1
 500 1500 l 1
 600 1600 l 1
 800 1600 l 1
 800 1500 l 1
 600 1300 l 1
 400 1300 l 1
 200 1500 l 1
EndSplineSet
Validated: 1
EndChar

StartChar: uni1D2
Encoding: 338 466 339
Width: 1000
VWidth: 1000
Flags: HMW
LayerCount: 2
Fore
SplineSet
300 300 m 1
 400 200 l 1
 600 200 l 1
 700 300 l 1
 700 500 l 1
 600 600 l 1
 400 600 l 1
 300 500 l 1
 300 300 l 1
100 200 m 1
 100 600 l 1
 300 800 l 1
 700 800 l 1
 900 600 l 1
 900 200 l 1
 700 0 l 1
 300 0 l 1
 100 200 l 1
200 1100 m 1
 200 1200 l 1
 400 1200 l 1
 500 1100 l 1
 600 1200 l 1
 800 1200 l 1
 800 1100 l 1
 600 900 l 1
 400 900 l 1
 200 1100 l 1
EndSplineSet
Validated: 1
Substitution2: "'smcp' Lowercase to Small Capitals lookup 5-1" uni1D2.sc
EndChar

StartChar: uni1D3
Encoding: 339 467 340
Width: 1000
VWidth: 1000
Flags: HMW
LayerCount: 2
Fore
SplineSet
100 200 m 1
 100 1200 l 1
 300 1200 l 1
 300 300 l 1
 400 200 l 1
 600 200 l 1
 700 300 l 1
 700 1200 l 1
 900 1200 l 1
 900 200 l 1
 700 0 l 1
 300 0 l 1
 100 200 l 1
200 1500 m 1
 200 1600 l 1
 400 1600 l 1
 500 1500 l 1
 600 1600 l 1
 800 1600 l 1
 800 1500 l 1
 600 1300 l 1
 400 1300 l 1
 200 1500 l 1
EndSplineSet
Validated: 1
EndChar

StartChar: uni1D4
Encoding: 340 468 341
Width: 1000
VWidth: 1000
Flags: HMW
LayerCount: 2
Fore
SplineSet
100 200 m 1
 100 800 l 1
 300 800 l 1
 300 300 l 1
 400 200 l 1
 700 200 l 1
 700 800 l 1
 900 800 l 1
 900 0 l 1
 300 0 l 1
 100 200 l 1
200 1100 m 1
 200 1200 l 1
 400 1200 l 1
 500 1100 l 1
 600 1200 l 1
 800 1200 l 1
 800 1100 l 1
 600 900 l 1
 400 900 l 1
 200 1100 l 1
EndSplineSet
Validated: 1
Substitution2: "'smcp' Lowercase to Small Capitals lookup 5-1" uni1D4.sc
EndChar

StartChar: uni1D5
Encoding: 341 469 342
Width: 1000
VWidth: 1000
Flags: HMW
LayerCount: 2
Fore
SplineSet
100 200 m 1
 100 1000 l 1
 300 1000 l 1
 300 300 l 1
 400 200 l 1
 600 200 l 1
 700 300 l 1
 700 1000 l 1
 900 1000 l 1
 900 200 l 1
 700 0 l 1
 300 0 l 1
 100 200 l 1
200 1100 m 1
 200 1300 l 1
 400 1300 l 1
 400 1100 l 1
 200 1100 l 1
600 1100 m 1
 600 1300 l 1
 800 1300 l 1
 800 1100 l 1
 600 1100 l 1
200 1400 m 1
 200 1600 l 1
 800 1600 l 1
 800 1400 l 1
 200 1400 l 1
EndSplineSet
Validated: 1
EndChar

StartChar: uni1D6
Encoding: 342 470 343
Width: 1000
VWidth: 1000
Flags: HMW
LayerCount: 2
Fore
SplineSet
100 200 m 1
 100 800 l 1
 300 800 l 1
 300 300 l 1
 400 200 l 1
 700 200 l 1
 700 800 l 1
 900 800 l 1
 900 0 l 1
 300 0 l 1
 100 200 l 1
200 1000 m 1
 200 1200 l 1
 400 1200 l 1
 400 1000 l 1
 200 1000 l 1
600 1000 m 1
 600 1200 l 1
 800 1200 l 1
 800 1000 l 1
 600 1000 l 1
200 1400 m 1
 200 1600 l 1
 800 1600 l 1
 800 1400 l 1
 200 1400 l 1
EndSplineSet
Validated: 1
Substitution2: "'smcp' Lowercase to Small Capitals lookup 5-1" uni1D6.sc
EndChar

StartChar: uni1D7
Encoding: 343 471 344
Width: 1000
VWidth: 1000
Flags: HMW
LayerCount: 2
Fore
SplineSet
100 200 m 1
 100 900 l 1
 300 900 l 1
 300 300 l 1
 400 200 l 1
 600 200 l 1
 700 300 l 1
 700 900 l 1
 900 900 l 1
 900 200 l 1
 700 0 l 1
 300 0 l 1
 100 200 l 1
200 1000 m 1
 200 1200 l 1
 400 1200 l 1
 400 1000 l 1
 200 1000 l 1
600 1000 m 1
 600 1200 l 1
 800 1200 l 1
 800 1000 l 1
 600 1000 l 1
400 1300 m 1
 400 1400 l 1
 600 1600 l 1
 800 1600 l 1
 800 1500 l 1
 600 1300 l 1
 400 1300 l 1
EndSplineSet
Validated: 1
EndChar

StartChar: uni1D8
Encoding: 344 472 345
Width: 1000
VWidth: 1000
Flags: HMW
LayerCount: 2
Fore
SplineSet
100 200 m 1
 100 800 l 1
 300 800 l 1
 300 300 l 1
 400 200 l 1
 700 200 l 1
 700 800 l 1
 900 800 l 1
 900 0 l 1
 300 0 l 1
 100 200 l 1
200 1000 m 1
 200 1200 l 1
 400 1200 l 1
 400 1000 l 1
 200 1000 l 1
600 1000 m 1
 600 1200 l 1
 800 1200 l 1
 800 1000 l 1
 600 1000 l 1
400 1300 m 1
 400 1400 l 1
 600 1600 l 1
 800 1600 l 1
 800 1500 l 1
 600 1300 l 1
 400 1300 l 1
EndSplineSet
Validated: 1
Substitution2: "'smcp' Lowercase to Small Capitals lookup 5-1" uni1D8.sc
EndChar

StartChar: uni1D9
Encoding: 345 473 346
Width: 1000
VWidth: 1000
Flags: HMW
LayerCount: 2
Fore
SplineSet
100 200 m 1
 100 900 l 1
 300 900 l 1
 300 300 l 1
 400 200 l 1
 600 200 l 1
 700 300 l 1
 700 900 l 1
 900 900 l 1
 900 200 l 1
 700 0 l 1
 300 0 l 1
 100 200 l 1
200 1000 m 1
 200 1200 l 1
 400 1200 l 1
 400 1000 l 1
 200 1000 l 1
600 1000 m 1
 600 1200 l 1
 800 1200 l 1
 800 1000 l 1
 600 1000 l 1
200 1500 m 1
 200 1600 l 1
 400 1600 l 1
 500 1500 l 1
 600 1600 l 1
 800 1600 l 1
 800 1500 l 1
 600 1300 l 1
 400 1300 l 1
 200 1500 l 1
EndSplineSet
Validated: 1
EndChar

StartChar: uni1DA
Encoding: 346 474 347
Width: 1000
VWidth: 1000
Flags: HMW
LayerCount: 2
Fore
SplineSet
100 200 m 1
 100 800 l 1
 300 800 l 1
 300 300 l 1
 400 200 l 1
 700 200 l 1
 700 800 l 1
 900 800 l 1
 900 0 l 1
 300 0 l 1
 100 200 l 1
200 1000 m 1
 200 1200 l 1
 400 1200 l 1
 400 1000 l 1
 200 1000 l 1
600 1000 m 1
 600 1200 l 1
 800 1200 l 1
 800 1000 l 1
 600 1000 l 1
200 1500 m 1
 200 1600 l 1
 400 1600 l 1
 500 1500 l 1
 600 1600 l 1
 800 1600 l 1
 800 1500 l 1
 600 1300 l 1
 400 1300 l 1
 200 1500 l 1
EndSplineSet
Validated: 1
Substitution2: "'smcp' Lowercase to Small Capitals lookup 5-1" uni1DA.sc
EndChar

StartChar: uni1DB
Encoding: 347 475 348
Width: 1000
VWidth: 1000
Flags: HMW
LayerCount: 2
Fore
SplineSet
100 200 m 1
 100 900 l 1
 300 900 l 1
 300 300 l 1
 400 200 l 1
 600 200 l 1
 700 300 l 1
 700 900 l 1
 900 900 l 1
 900 200 l 1
 700 0 l 1
 300 0 l 1
 100 200 l 1
200 1000 m 1
 200 1200 l 1
 400 1200 l 1
 400 1000 l 1
 200 1000 l 1
600 1000 m 1
 600 1200 l 1
 800 1200 l 1
 800 1000 l 1
 600 1000 l 1
200 1500 m 1
 200 1600 l 1
 400 1600 l 1
 600 1400 l 1
 600 1300 l 1
 400 1300 l 1
 200 1500 l 1
EndSplineSet
Validated: 1
EndChar

StartChar: uni1DC
Encoding: 348 476 349
Width: 1000
VWidth: 1000
Flags: HMW
LayerCount: 2
Fore
SplineSet
100 200 m 1
 100 800 l 1
 300 800 l 1
 300 300 l 1
 400 200 l 1
 700 200 l 1
 700 800 l 1
 900 800 l 1
 900 0 l 1
 300 0 l 1
 100 200 l 1
200 1000 m 1
 200 1200 l 1
 400 1200 l 1
 400 1000 l 1
 200 1000 l 1
600 1000 m 1
 600 1200 l 1
 800 1200 l 1
 800 1000 l 1
 600 1000 l 1
200 1500 m 1
 200 1600 l 1
 400 1600 l 1
 600 1400 l 1
 600 1300 l 1
 400 1300 l 1
 200 1500 l 1
EndSplineSet
Validated: 1
Substitution2: "'smcp' Lowercase to Small Capitals lookup 5-1" uni1DC.sc
EndChar

StartChar: uni1E2
Encoding: 349 482 350
Width: 1200
VWidth: 1000
Flags: HMW
LayerCount: 2
Fore
SplineSet
300 600 m 1
 500 600 l 1
 500 1000 l 1
 300 800 l 1
 300 600 l 1
100 0 m 1
 100 900 l 1
 400 1200 l 1
 1100 1200 l 1
 1100 1000 l 1
 700 1000 l 1
 700 700 l 1
 900 700 l 1
 900 500 l 1
 700 500 l 1
 700 200 l 1
 1100 200 l 1
 1100 0 l 1
 500 0 l 1
 500 400 l 1
 300 400 l 1
 300 0 l 1
 100 0 l 1
300 1400 m 1
 300 1600 l 1
 900 1600 l 1
 900 1400 l 1
 300 1400 l 1
EndSplineSet
Validated: 1
EndChar

StartChar: uni1E3
Encoding: 350 483 351
Width: 1200
VWidth: 1000
Flags: HMW
LayerCount: 2
Fore
SplineSet
300 250 m 1
 350 200 l 1
 500 200 l 1
 500 300 l 1
 350 300 l 1
 300 250 l 1
700 500 m 1
 900 500 l 1
 800 600 l 1
 700 600 l 1
 700 500 l 1
100 150 m 1
 100 350 l 1
 250 500 l 1
 500 500 l 1
 500 600 l 1
 300 600 l 1
 300 800 l 1
 900 800 l 1
 1100 600 l 1
 1100 300 l 1
 700 300 l 1
 700 200 l 1
 1100 200 l 1
 1100 0 l 1
 250 0 l 1
 100 150 l 1
300 1000 m 1
 300 1200 l 1
 900 1200 l 1
 900 1000 l 1
 300 1000 l 1
EndSplineSet
Validated: 1
Substitution2: "'smcp' Lowercase to Small Capitals lookup 5-1" uni1E3.sc
EndChar

StartChar: uni1F1
Encoding: 351 497 352
Width: 2000
VWidth: 1000
Flags: HMW
LayerCount: 2
Fore
SplineSet
300 200 m 1
 550 200 l 1
 700 350 l 1
 700 850 l 1
 550 1000 l 1
 300 1000 l 1
 300 200 l 1
100 0 m 1
 100 1200 l 1
 650 1200 l 1
 900 950 l 1
 900 250 l 1
 650 0 l 1
 100 0 l 1
1100 0 m 1
 1100 350 l 1
 1700 950 l 1
 1700 1000 l 1
 1100 1000 l 1
 1100 1200 l 1
 1900 1200 l 1
 1900 850 l 1
 1300 250 l 1
 1300 200 l 1
 1900 200 l 1
 1900 0 l 1
 1100 0 l 1
EndSplineSet
Validated: 1
EndChar

StartChar: uni1F2
Encoding: 352 498 353
Width: 2000
VWidth: 1000
Flags: HMW
LayerCount: 2
Fore
SplineSet
1100 0 m 1
 1100 150 l 1
 1550 600 l 1
 1100 600 l 1
 1100 800 l 1
 1900 800 l 1
 1900 650 l 1
 1450 200 l 1
 1900 200 l 1
 1900 0 l 1
 1100 0 l 1
300 200 m 1
 550 200 l 1
 700 350 l 1
 700 850 l 1
 550 1000 l 1
 300 1000 l 1
 300 200 l 1
100 0 m 1
 100 1200 l 1
 650 1200 l 1
 900 950 l 1
 900 250 l 1
 650 0 l 1
 100 0 l 1
EndSplineSet
Validated: 1
Substitution2: "'smcp' Lowercase to Small Capitals lookup 5-1" uni1F2.sc
EndChar

StartChar: uni1F3
Encoding: 353 499 354
Width: 2000
VWidth: 1000
Flags: HMW
LayerCount: 2
Fore
SplineSet
300 300 m 1
 400 200 l 1
 700 200 l 1
 700 600 l 1
 400 600 l 1
 300 500 l 1
 300 300 l 1
1100 0 m 1
 1100 150 l 1
 1550 600 l 1
 1100 600 l 1
 1100 800 l 1
 1900 800 l 1
 1900 650 l 1
 1450 200 l 1
 1900 200 l 1
 1900 0 l 1
 1100 0 l 1
100 200 m 1
 100 600 l 1
 300 800 l 1
 700 800 l 1
 700 1200 l 1
 900 1200 l 1
 900 0 l 1
 300 0 l 1
 100 200 l 1
EndSplineSet
Validated: 1
Substitution2: "'smcp' Lowercase to Small Capitals lookup 5-1" uni1F3.sc
EndChar

StartChar: Aringacute
Encoding: 354 506 355
Width: 1000
VWidth: 1000
Flags: HMW
LayerCount: 2
Fore
SplineSet
300 300 m 1
 700 300 l 1
 700 400 l 1
 500 600 l 1
 300 400 l 1
 300 300 l 1
400 1000 m 1
 500 900 l 1
 600 1000 l 1
 500 1100 l 1
 400 1000 l 1
100 0 m 1
 100 500 l 1
 400 800 l 1
 300 800 l 1
 200 900 l 1
 200 1100 l 1
 300 1200 l 1
 700 1200 l 1
 800 1100 l 1
 800 900 l 1
 700 800 l 1
 600 800 l 1
 900 500 l 1
 900 0 l 1
 700 0 l 1
 700 100 l 1
 300 100 l 1
 300 0 l 1
 100 0 l 1
400 1300 m 1
 400 1400 l 1
 600 1600 l 1
 800 1600 l 1
 800 1500 l 1
 600 1300 l 1
 400 1300 l 1
EndSplineSet
Validated: 1
EndChar

StartChar: aringacute
Encoding: 355 507 356
Width: 1000
VWidth: 1000
Flags: HMW
LayerCount: 2
Fore
SplineSet
300 250 m 1
 350 200 l 1
 700 200 l 1
 700 300 l 1
 350 300 l 1
 300 250 l 1
400 1000 m 1
 500 900 l 1
 600 1000 l 1
 500 1100 l 1
 400 1000 l 1
100 150 m 1
 100 350 l 1
 250 500 l 1
 700 500 l 1
 600 600 l 1
 300 600 l 1
 300 800 l 1
 200 900 l 1
 200 1100 l 1
 300 1200 l 1
 700 1200 l 1
 800 1100 l 1
 800 900 l 1
 700 800 l 1
 900 600 l 1
 900 0 l 1
 250 0 l 1
 100 150 l 1
400 1300 m 1
 400 1400 l 1
 600 1600 l 1
 800 1600 l 1
 800 1500 l 1
 600 1300 l 1
 400 1300 l 1
EndSplineSet
Validated: 1
Substitution2: "'smcp' Lowercase to Small Capitals lookup 5-1" aringacute.sc
EndChar

StartChar: AEacute
Encoding: 356 508 357
Width: 1200
VWidth: 1000
Flags: HMW
LayerCount: 2
Fore
SplineSet
300 600 m 1
 500 600 l 1
 500 1000 l 1
 300 800 l 1
 300 600 l 1
100 0 m 1
 100 900 l 1
 400 1200 l 1
 1100 1200 l 1
 1100 1000 l 1
 700 1000 l 1
 700 700 l 1
 900 700 l 1
 900 500 l 1
 700 500 l 1
 700 200 l 1
 1100 200 l 1
 1100 0 l 1
 500 0 l 1
 500 400 l 1
 300 400 l 1
 300 0 l 1
 100 0 l 1
500 1300 m 1
 500 1400 l 1
 700 1600 l 1
 900 1600 l 1
 900 1500 l 1
 700 1300 l 1
 500 1300 l 1
EndSplineSet
Validated: 1
EndChar

StartChar: aeacute
Encoding: 357 509 358
Width: 1200
VWidth: 1000
Flags: HMW
LayerCount: 2
Fore
SplineSet
300 250 m 1
 350 200 l 1
 500 200 l 1
 500 300 l 1
 350 300 l 1
 300 250 l 1
700 500 m 1
 900 500 l 1
 800 600 l 1
 700 600 l 1
 700 500 l 1
100 150 m 1
 100 350 l 1
 250 500 l 1
 500 500 l 1
 500 600 l 1
 300 600 l 1
 300 800 l 1
 900 800 l 1
 1100 600 l 1
 1100 300 l 1
 700 300 l 1
 700 200 l 1
 1100 200 l 1
 1100 0 l 1
 250 0 l 1
 100 150 l 1
500 900 m 1
 500 1000 l 1
 700 1200 l 1
 900 1200 l 1
 900 1100 l 1
 700 900 l 1
 500 900 l 1
EndSplineSet
Validated: 1
Substitution2: "'smcp' Lowercase to Small Capitals lookup 5-1" aeacute.sc
EndChar

StartChar: Oslashacute
Encoding: 358 510 359
Width: 1000
VWidth: 1000
Flags: HMW
LayerCount: 2
Fore
SplineSet
325 275 m 1
 400 200 l 1
 600 200 l 1
 700 300 l 1
 700 650 l 1
 325 275 l 1
300 550 m 1
 675 925 l 1
 600 1000 l 1
 400 1000 l 1
 300 900 l 1
 300 550 l 1
100 200 m 1
 100 1000 l 1
 300 1200 l 1
 700 1200 l 1
 900 1000 l 1
 900 200 l 1
 700 0 l 1
 300 0 l 1
 100 200 l 1
400 1300 m 1
 400 1400 l 1
 600 1600 l 1
 800 1600 l 1
 800 1500 l 1
 600 1300 l 1
 400 1300 l 1
EndSplineSet
Validated: 1
EndChar

StartChar: oslashacute
Encoding: 359 511 360
Width: 1000
VWidth: 1000
Flags: HMW
LayerCount: 2
Fore
SplineSet
450 200 m 1
 600 200 l 1
 700 300 l 1
 700 450 l 1
 450 200 l 1
300 350 m 1
 550 600 l 1
 400 600 l 1
 300 500 l 1
 300 350 l 1
100 200 m 1
 100 600 l 1
 300 800 l 1
 700 800 l 1
 900 600 l 1
 900 200 l 1
 700 0 l 1
 300 0 l 1
 100 200 l 1
400 900 m 1
 400 1000 l 1
 600 1200 l 1
 800 1200 l 1
 800 1100 l 1
 600 900 l 1
 400 900 l 1
EndSplineSet
Validated: 1
Substitution2: "'smcp' Lowercase to Small Capitals lookup 5-1" oslashacute.sc
EndChar

StartChar: uni218
Encoding: 360 536 361
Width: 1000
VWidth: 1000
Flags: HMW
LayerCount: 2
Fore
SplineSet
400 -100 m 1
 600 -100 l 1
 600 -250 l 1
 450 -400 l 1
 400 -400 l 1
 400 -100 l 1
100 200 m 1
 100 300 l 1
 300 300 l 1
 400 200 l 1
 600 200 l 1
 700 300 l 1
 700 400 l 1
 600 500 l 1
 300 500 l 1
 100 700 l 1
 100 1000 l 1
 300 1200 l 1
 700 1200 l 1
 900 1000 l 1
 900 900 l 1
 700 900 l 1
 600 1000 l 1
 400 1000 l 1
 300 900 l 1
 300 800 l 1
 400 700 l 1
 700 700 l 1
 900 500 l 1
 900 200 l 1
 700 0 l 1
 300 0 l 1
 100 200 l 1
EndSplineSet
Validated: 1
EndChar

StartChar: uni219
Encoding: 361 537 362
Width: 800
VWidth: 1000
Flags: HMW
LayerCount: 2
Fore
SplineSet
300 -100 m 1
 500 -100 l 1
 500 -250 l 1
 350 -400 l 1
 300 -400 l 1
 300 -100 l 1
100 0 m 1
 100 200 l 1
 450 200 l 1
 500 250 l 1
 450 300 l 1
 250 300 l 1
 100 450 l 1
 100 650 l 1
 250 800 l 1
 700 800 l 1
 700 600 l 1
 350 600 l 1
 300 550 l 1
 350 500 l 1
 550 500 l 1
 700 350 l 1
 700 150 l 1
 550 0 l 1
 100 0 l 1
EndSplineSet
Validated: 1
Substitution2: "'smcp' Lowercase to Small Capitals lookup 5-1" uni219.sc
EndChar

StartChar: uni21A
Encoding: 362 538 363
Width: 1000
VWidth: 1000
Flags: HMW
LayerCount: 2
Fore
SplineSet
400 -100 m 1
 600 -100 l 1
 600 -250 l 1
 450 -400 l 1
 400 -400 l 1
 400 -100 l 1
100 1000 m 1
 100 1200 l 1
 900 1200 l 1
 900 1000 l 1
 600 1000 l 1
 600 0 l 1
 400 0 l 1
 400 1000 l 1
 100 1000 l 1
EndSplineSet
Validated: 1
EndChar

StartChar: uni21B
Encoding: 363 539 364
Width: 800
VWidth: 1000
Flags: HMW
LayerCount: 2
Fore
SplineSet
300 -100 m 1
 500 -100 l 1
 500 -250 l 1
 350 -400 l 1
 300 -400 l 1
 300 -100 l 1
100 600 m 1
 100 800 l 1
 300 800 l 1
 300 1200 l 1
 500 1200 l 1
 500 800 l 1
 700 800 l 1
 700 600 l 1
 500 600 l 1
 500 0 l 1
 300 0 l 1
 300 600 l 1
 100 600 l 1
EndSplineSet
Validated: 1
Substitution2: "'smcp' Lowercase to Small Capitals lookup 5-1" uni21B.sc
EndChar

StartChar: uni237
Encoding: 364 567 365
Width: 400
VWidth: 1000
Flags: HMW
LayerCount: 2
Fore
SplineSet
100 -400 m 1
 100 800 l 1
 300 800 l 1
 300 -400 l 1
 100 -400 l 1
EndSplineSet
Validated: 1
EndChar

StartChar: circumflex
Encoding: 365 710 366
Width: 800
VWidth: 1000
Flags: HMW
LayerCount: 2
Fore
SplineSet
100 900 m 1
 100 1000 l 1
 300 1200 l 1
 500 1200 l 1
 700 1000 l 1
 700 900 l 1
 500 900 l 1
 400 1000 l 1
 300 900 l 1
 100 900 l 1
EndSplineSet
Validated: 1
EndChar

StartChar: caron
Encoding: 366 711 367
Width: 800
VWidth: 1000
Flags: HMW
LayerCount: 2
Fore
SplineSet
100 1100 m 1
 100 1200 l 1
 300 1200 l 1
 400 1100 l 1
 500 1200 l 1
 700 1200 l 1
 700 1100 l 1
 500 900 l 1
 300 900 l 1
 100 1100 l 1
EndSplineSet
Validated: 1
EndChar

StartChar: uni2C8
Encoding: 367 712 368
Width: 400
VWidth: 1000
Flags: HMW
LayerCount: 2
Fore
SplineSet
100 900 m 1
 100 1200 l 1
 300 1200 l 1
 300 900 l 1
 100 900 l 1
EndSplineSet
Validated: 1
EndChar

StartChar: uni2C9
Encoding: 368 713 369
Width: 800
VWidth: 1000
Flags: HMW
LayerCount: 2
Fore
SplineSet
100 1000 m 1
 100 1200 l 1
 700 1200 l 1
 700 1000 l 1
 100 1000 l 1
EndSplineSet
Validated: 1
EndChar

StartChar: uni2CA
Encoding: 369 714 370
Width: 600
VWidth: 1000
Flags: HMW
LayerCount: 2
Fore
SplineSet
100 900 m 1
 100 1000 l 1
 300 1200 l 1
 500 1200 l 1
 500 1100 l 1
 300 900 l 1
 100 900 l 1
EndSplineSet
Validated: 1
EndChar

StartChar: uni2CB
Encoding: 370 715 371
Width: 600
VWidth: 1000
Flags: HMW
LayerCount: 2
Fore
SplineSet
100 1100 m 1
 100 1200 l 1
 300 1200 l 1
 500 1000 l 1
 500 900 l 1
 300 900 l 1
 100 1100 l 1
EndSplineSet
Validated: 1
EndChar

StartChar: uni2CC
Encoding: 371 716 372
Width: 400
VWidth: 1000
Flags: HMW
LayerCount: 2
Fore
SplineSet
100 0 m 1
 300 0 l 1
 300 -300 l 1
 100 -300 l 1
 100 0 l 1
EndSplineSet
Validated: 1
EndChar

StartChar: uni2CD
Encoding: 372 717 373
Width: 800
VWidth: 1000
Flags: HMW
LayerCount: 2
Fore
SplineSet
100 0 m 1
 700 0 l 1
 700 -200 l 1
 100 -200 l 1
 100 0 l 1
EndSplineSet
Validated: 1
EndChar

StartChar: uni2CE
Encoding: 373 718 374
Width: 600
VWidth: 1000
Flags: HMW
LayerCount: 2
Fore
SplineSet
100 0 m 1
 300 0 l 1
 500 -200 l 1
 500 -300 l 1
 300 -300 l 1
 100 -100 l 1
 100 0 l 1
EndSplineSet
Validated: 1
EndChar

StartChar: uni2CF
Encoding: 374 719 375
Width: 600
VWidth: 1000
Flags: HMW
LayerCount: 2
Fore
SplineSet
100 -200 m 1
 300 0 l 1
 500 0 l 1
 500 -100 l 1
 300 -300 l 1
 100 -300 l 1
 100 -200 l 1
EndSplineSet
Validated: 1
EndChar

StartChar: breve
Encoding: 375 728 376
Width: 1000
VWidth: 1000
Flags: HMW
LayerCount: 2
Fore
SplineSet
100 1100 m 1
 100 1200 l 1
 300 1200 l 1
 400 1100 l 1
 600 1100 l 1
 700 1200 l 1
 900 1200 l 1
 900 1100 l 1
 700 900 l 1
 300 900 l 1
 100 1100 l 1
EndSplineSet
Validated: 1
EndChar

StartChar: dotaccent
Encoding: 376 729 377
Width: 400
VWidth: 1000
Flags: HMW
LayerCount: 2
Fore
SplineSet
100 1000 m 1
 100 1200 l 1
 300 1200 l 1
 300 1000 l 1
 100 1000 l 1
EndSplineSet
Validated: 1
EndChar

StartChar: ring
Encoding: 377 730 378
Width: 800
VWidth: 1000
Flags: HMW
LayerCount: 2
Fore
SplineSet
300 1000 m 1
 400 900 l 1
 500 1000 l 1
 400 1100 l 1
 300 1000 l 1
100 900 m 1
 100 1100 l 1
 200 1200 l 1
 600 1200 l 1
 700 1100 l 1
 700 900 l 1
 600 800 l 1
 200 800 l 1
 100 900 l 1
EndSplineSet
Validated: 1
EndChar

StartChar: ogonek
Encoding: 378 731 379
Width: 600
VWidth: 1000
Flags: HMW
LayerCount: 2
Fore
SplineSet
100 -100 m 1
 200 0 l 1
 400 0 l 1
 400 -50 l 1
 300 -150 l 1
 350 -200 l 1
 500 -200 l 1
 500 -400 l 1
 250 -400 l 1
 100 -250 l 1
 100 -100 l 1
EndSplineSet
Validated: 1
EndChar

StartChar: tilde
Encoding: 379 732 380
Width: 1000
VWidth: 1000
Flags: HMW
LayerCount: 2
Fore
SplineSet
100 900 m 1
 100 1000 l 1
 300 1200 l 1
 500 1200 l 1
 600 1100 l 1
 700 1200 l 1
 900 1200 l 1
 900 1100 l 1
 700 900 l 1
 500 900 l 1
 400 1000 l 1
 300 900 l 1
 100 900 l 1
EndSplineSet
Validated: 1
EndChar

StartChar: hungarumlaut
Encoding: 380 733 381
Width: 1000
VWidth: 1000
Flags: HMW
LayerCount: 2
Fore
SplineSet
100 900 m 1
 100 1000 l 1
 300 1200 l 1
 500 1200 l 1
 500 1100 l 1
 300 900 l 1
 100 900 l 1
500 900 m 1
 500 1000 l 1
 700 1200 l 1
 900 1200 l 1
 900 1100 l 1
 700 900 l 1
 500 900 l 1
EndSplineSet
Validated: 1
EndChar

StartChar: uni2E5
Encoding: 381 741 382
Width: 800
VWidth: 1000
Flags: HMW
LayerCount: 2
Fore
SplineSet
100 1100 m 1
 100 1300 l 1
 700 1300 l 1
 700 -100 l 1
 500 -100 l 1
 500 1100 l 1
 100 1100 l 1
EndSplineSet
Validated: 1
EndChar

StartChar: uni2E6
Encoding: 382 742 383
Width: 800
VWidth: 1000
Flags: HMW
LayerCount: 2
Fore
SplineSet
100 800 m 1
 100 1000 l 1
 500 1000 l 1
 500 1300 l 1
 700 1300 l 1
 700 -100 l 1
 500 -100 l 1
 500 800 l 1
 100 800 l 1
EndSplineSet
Validated: 1
EndChar

StartChar: uni2E7
Encoding: 383 743 384
Width: 800
VWidth: 1000
Flags: HMW
LayerCount: 2
Fore
SplineSet
100 500 m 1
 100 700 l 1
 500 700 l 1
 500 1300 l 1
 700 1300 l 1
 700 -100 l 1
 500 -100 l 1
 500 500 l 1
 100 500 l 1
EndSplineSet
Validated: 1
EndChar

StartChar: uni2E8
Encoding: 384 744 385
Width: 800
VWidth: 1000
Flags: HMW
LayerCount: 2
Fore
SplineSet
100 200 m 1
 100 400 l 1
 500 400 l 1
 500 1300 l 1
 700 1300 l 1
 700 -100 l 1
 500 -100 l 1
 500 200 l 1
 100 200 l 1
EndSplineSet
Validated: 1
EndChar

StartChar: uni2E9
Encoding: 385 745 386
Width: 800
VWidth: 1000
Flags: HMW
LayerCount: 2
Fore
SplineSet
100 -100 m 1
 100 100 l 1
 500 100 l 1
 500 1300 l 1
 700 1300 l 1
 700 -100 l 1
 100 -100 l 1
EndSplineSet
Validated: 1
EndChar

StartChar: uni2EC
Encoding: 386 748 387
Width: 800
VWidth: 1000
Flags: HMW
LayerCount: 2
Fore
SplineSet
100 0 m 1
 300 0 l 1
 400 -100 l 1
 500 0 l 1
 700 0 l 1
 700 -100 l 1
 500 -300 l 1
 300 -300 l 1
 100 -100 l 1
 100 0 l 1
EndSplineSet
Validated: 1
EndChar

StartChar: uni2F3
Encoding: 387 755 388
Width: 800
VWidth: 1000
Flags: HMW
LayerCount: 2
Fore
SplineSet
300 -200 m 1
 400 -300 l 1
 500 -200 l 1
 400 -100 l 1
 300 -200 l 1
100 -100 m 1
 200 0 l 1
 600 0 l 1
 700 -100 l 1
 700 -300 l 1
 600 -400 l 1
 200 -400 l 1
 100 -300 l 1
 100 -100 l 1
EndSplineSet
Validated: 1
EndChar

StartChar: uni2F7
Encoding: 388 759 389
Width: 1000
VWidth: 1000
Flags: HMW
LayerCount: 2
Fore
SplineSet
100 -200 m 1
 300 0 l 1
 500 0 l 1
 600 -100 l 1
 700 0 l 1
 900 0 l 1
 900 -100 l 1
 700 -300 l 1
 500 -300 l 1
 400 -200 l 1
 300 -300 l 1
 100 -300 l 1
 100 -200 l 1
EndSplineSet
Validated: 1
EndChar

StartChar: tonos
Encoding: 389 900 390
Width: 400
VWidth: 1000
Flags: HMW
LayerCount: 2
Fore
SplineSet
100 900 m 1
 100 1200 l 1
 300 1200 l 1
 300 900 l 1
 100 900 l 1
EndSplineSet
Validated: 1
EndChar

StartChar: dieresistonos
Encoding: 390 901 391
Width: 1000
VWidth: 1000
Flags: HMW
LayerCount: 2
Fore
SplineSet
100 900 m 1
 100 1100 l 1
 300 1100 l 1
 300 900 l 1
 100 900 l 1
700 900 m 1
 700 1100 l 1
 900 1100 l 1
 900 900 l 1
 700 900 l 1
400 900 m 1
 400 1200 l 1
 600 1200 l 1
 600 900 l 1
 400 900 l 1
EndSplineSet
Validated: 1
EndChar

StartChar: Alphatonos
Encoding: 391 902 392
Width: 1400
VWidth: 1000
Flags: HMW
LayerCount: 2
Fore
SplineSet
700 600 m 1
 1100 600 l 1
 1100 800 l 1
 900 1000 l 1
 700 800 l 1
 700 600 l 1
100 900 m 1
 100 1200 l 1
 300 1200 l 1
 300 900 l 1
 100 900 l 1
500 0 m 1
 500 900 l 1
 800 1200 l 1
 1000 1200 l 1
 1300 900 l 1
 1300 0 l 1
 1100 0 l 1
 1100 400 l 1
 700 400 l 1
 700 0 l 1
 500 0 l 1
EndSplineSet
Validated: 1
EndChar

StartChar: anoteleia
Encoding: 392 903 393
Width: 400
VWidth: 1000
Flags: HMW
LayerCount: 2
Fore
SplineSet
100 500 m 1
 100 700 l 1
 300 700 l 1
 300 500 l 1
 100 500 l 1
EndSplineSet
Validated: 1
EndChar

StartChar: Epsilontonos
Encoding: 393 904 394
Width: 1400
VWidth: 1000
Flags: HMW
LayerCount: 2
Fore
SplineSet
100 900 m 1
 100 1200 l 1
 300 1200 l 1
 300 900 l 1
 100 900 l 1
500 0 m 1
 500 1200 l 1
 1300 1200 l 1
 1300 1000 l 1
 700 1000 l 1
 700 700 l 1
 1100 700 l 1
 1100 500 l 1
 700 500 l 1
 700 200 l 1
 1300 200 l 1
 1300 0 l 1
 500 0 l 1
EndSplineSet
Validated: 1
EndChar

StartChar: Etatonos
Encoding: 394 905 395
Width: 1400
VWidth: 1000
Flags: HMW
LayerCount: 2
Fore
SplineSet
100 900 m 1
 100 1200 l 1
 300 1200 l 1
 300 900 l 1
 100 900 l 1
500 0 m 1
 500 1200 l 1
 700 1200 l 1
 700 700 l 1
 1100 700 l 1
 1100 1200 l 1
 1300 1200 l 1
 1300 0 l 1
 1100 0 l 1
 1100 500 l 1
 700 500 l 1
 700 0 l 1
 500 0 l 1
EndSplineSet
Validated: 1
EndChar

StartChar: Iotatonos
Encoding: 395 906 396
Width: 1200
VWidth: 1000
Flags: HMW
LayerCount: 2
Fore
SplineSet
100 900 m 1
 100 1200 l 1
 300 1200 l 1
 300 900 l 1
 100 900 l 1
500 0 m 1
 500 200 l 1
 700 200 l 1
 700 1000 l 1
 500 1000 l 1
 500 1200 l 1
 1100 1200 l 1
 1100 1000 l 1
 900 1000 l 1
 900 200 l 1
 1100 200 l 1
 1100 0 l 1
 500 0 l 1
EndSplineSet
Validated: 1
EndChar

StartChar: Omicrontonos
Encoding: 396 908 397
Width: 1400
VWidth: 1000
Flags: HMW
LayerCount: 2
Fore
SplineSet
700 300 m 1
 800 200 l 1
 1000 200 l 1
 1100 300 l 1
 1100 900 l 1
 1000 1000 l 1
 800 1000 l 1
 700 900 l 1
 700 300 l 1
100 900 m 1
 100 1200 l 1
 300 1200 l 1
 300 900 l 1
 100 900 l 1
500 200 m 1
 500 1000 l 1
 700 1200 l 1
 1100 1200 l 1
 1300 1000 l 1
 1300 200 l 1
 1100 0 l 1
 700 0 l 1
 500 200 l 1
EndSplineSet
Validated: 1
EndChar

StartChar: Upsilontonos
Encoding: 397 910 398
Width: 1400
VWidth: 1000
Flags: HMW
LayerCount: 2
Fore
SplineSet
100 900 m 1
 100 1200 l 1
 300 1200 l 1
 300 900 l 1
 100 900 l 1
500 750 m 1
 500 1200 l 1
 700 1200 l 1
 700 850 l 1
 900 650 l 1
 1100 850 l 1
 1100 1200 l 1
 1300 1200 l 1
 1300 750 l 1
 1000 450 l 1
 1000 0 l 1
 800 0 l 1
 800 450 l 1
 500 750 l 1
EndSplineSet
Validated: 1
EndChar

StartChar: Omegatonos
Encoding: 398 911 399
Width: 1400
VWidth: 1000
Flags: HMW
LayerCount: 2
Fore
SplineSet
100 900 m 1
 100 1200 l 1
 300 1200 l 1
 300 900 l 1
 100 900 l 1
500 0 m 1
 500 200 l 1
 600 200 l 1
 500 300 l 1
 500 1000 l 1
 700 1200 l 1
 1100 1200 l 1
 1300 1000 l 1
 1300 300 l 1
 1200 200 l 1
 1300 200 l 1
 1300 0 l 1
 1000 0 l 1
 1000 300 l 1
 1100 400 l 1
 1100 900 l 1
 1000 1000 l 1
 800 1000 l 1
 700 900 l 1
 700 400 l 1
 800 300 l 1
 800 0 l 1
 500 0 l 1
EndSplineSet
Validated: 1
EndChar

StartChar: iotadieresistonos
Encoding: 399 912 400
Width: 1000
VWidth: 1000
Flags: HMW
LayerCount: 2
Fore
SplineSet
400 0 m 1
 400 800 l 1
 600 800 l 1
 600 0 l 1
 400 0 l 1
100 900 m 1
 100 1100 l 1
 300 1100 l 1
 300 900 l 1
 100 900 l 1
700 900 m 1
 700 1100 l 1
 900 1100 l 1
 900 900 l 1
 700 900 l 1
400 900 m 1
 400 1200 l 1
 600 1200 l 1
 600 900 l 1
 400 900 l 1
EndSplineSet
Validated: 1
EndChar

StartChar: Alpha
Encoding: 400 913 401
Width: 1000
VWidth: 1000
Flags: HMW
LayerCount: 2
Fore
SplineSet
300 600 m 1
 700 600 l 1
 700 800 l 1
 500 1000 l 1
 300 800 l 1
 300 600 l 1
100 0 m 1
 100 900 l 1
 400 1200 l 1
 600 1200 l 1
 900 900 l 1
 900 0 l 1
 700 0 l 1
 700 400 l 1
 300 400 l 1
 300 0 l 1
 100 0 l 1
EndSplineSet
Validated: 1
EndChar

StartChar: Beta
Encoding: 401 914 402
Width: 1000
VWidth: 1000
Flags: HMW
LayerCount: 2
Fore
SplineSet
300 200 m 1
 600 200 l 1
 700 300 l 1
 700 350 l 1
 550 500 l 1
 300 500 l 1
 300 200 l 1
300 700 m 1
 550 700 l 1
 700 850 l 1
 700 900 l 1
 600 1000 l 1
 300 1000 l 1
 300 700 l 1
100 0 m 1
 100 1200 l 1
 700 1200 l 1
 900 1000 l 1
 900 750 l 1
 750 600 l 1
 900 450 l 1
 900 200 l 1
 700 0 l 1
 100 0 l 1
EndSplineSet
Validated: 1
EndChar

StartChar: Gamma
Encoding: 402 915 403
Width: 1000
VWidth: 1000
Flags: HMW
LayerCount: 2
Fore
SplineSet
100 0 m 1
 100 1200 l 1
 900 1200 l 1
 900 1000 l 1
 300 1000 l 1
 300 0 l 1
 100 0 l 1
EndSplineSet
Validated: 1
EndChar

StartChar: uni394
Encoding: 403 916 404
Width: 1000
VWidth: 1000
Flags: HMW
LayerCount: 2
Fore
SplineSet
300 200 m 1
 700 200 l 1
 700 800 l 1
 500 1000 l 1
 300 800 l 1
 300 200 l 1
100 0 m 1
 100 900 l 1
 400 1200 l 1
 600 1200 l 1
 900 900 l 1
 900 0 l 1
 100 0 l 1
EndSplineSet
Validated: 1
EndChar

StartChar: Epsilon
Encoding: 404 917 405
Width: 1000
VWidth: 1000
Flags: HMW
LayerCount: 2
Fore
SplineSet
100 0 m 1
 100 1200 l 1
 900 1200 l 5
 900 1000 l 1
 300 1000 l 1
 300 700 l 1
 700 700 l 1
 700 500 l 1
 300 500 l 1
 300 200 l 1
 900 200 l 1
 900 0 l 1
 100 0 l 1
EndSplineSet
Validated: 1
EndChar

StartChar: Zeta
Encoding: 405 918 406
Width: 1000
VWidth: 1000
Flags: HMW
LayerCount: 2
Fore
SplineSet
100 0 m 1
 100 350 l 1
 700 950 l 1
 700 1000 l 1
 100 1000 l 1
 100 1200 l 1
 900 1200 l 1
 900 850 l 1
 300 250 l 1
 300 200 l 1
 900 200 l 1
 900 0 l 1
 100 0 l 1
EndSplineSet
Validated: 1
EndChar

StartChar: Eta
Encoding: 406 919 407
Width: 1000
VWidth: 1000
Flags: HMW
LayerCount: 2
Fore
SplineSet
100 0 m 1
 100 1200 l 1
 300 1200 l 1
 300 700 l 1
 700 700 l 1
 700 1200 l 1
 900 1200 l 1
 900 0 l 1
 700 0 l 1
 700 500 l 1
 300 500 l 1
 300 0 l 1
 100 0 l 1
EndSplineSet
Validated: 1
EndChar

StartChar: Theta
Encoding: 407 920 408
Width: 1000
VWidth: 1000
Flags: HMW
LayerCount: 2
Fore
SplineSet
400 500 m 1
 400 700 l 1
 600 700 l 1
 600 500 l 1
 400 500 l 1
300 300 m 1
 400 200 l 1
 600 200 l 1
 700 300 l 1
 700 900 l 1
 600 1000 l 1
 400 1000 l 1
 300 900 l 1
 300 300 l 1
100 200 m 1
 100 1000 l 1
 300 1200 l 1
 700 1200 l 1
 900 1000 l 1
 900 200 l 1
 700 0 l 1
 300 0 l 1
 100 200 l 1
EndSplineSet
Validated: 1
EndChar

StartChar: Iota
Encoding: 408 921 409
Width: 800
VWidth: 1000
Flags: HMW
LayerCount: 2
Fore
SplineSet
100 0 m 1
 100 200 l 1
 300 200 l 1
 300 1000 l 1
 100 1000 l 1
 100 1200 l 1
 700 1200 l 1
 700 1000 l 1
 500 1000 l 1
 500 200 l 1
 700 200 l 1
 700 0 l 1
 100 0 l 1
EndSplineSet
Validated: 1
EndChar

StartChar: Kappa
Encoding: 409 922 410
Width: 1000
VWidth: 1000
Flags: HMW
LayerCount: 2
Fore
SplineSet
100 0 m 1
 100 1200 l 1
 300 1200 l 1
 300 800 l 1
 700 1200 l 1
 900 1200 l 1
 900 1100 l 1
 400 600 l 1
 900 100 l 1
 900 0 l 1
 700 0 l 1
 300 400 l 1
 300 0 l 1
 100 0 l 1
EndSplineSet
Validated: 1
EndChar

StartChar: Lambda
Encoding: 410 923 411
Width: 1000
VWidth: 1000
Flags: HMW
LayerCount: 2
Fore
SplineSet
100 0 m 1
 100 900 l 1
 400 1200 l 1
 600 1200 l 1
 900 900 l 1
 900 0 l 1
 700 0 l 1
 700 800 l 1
 500 1000 l 1
 300 800 l 1
 300 0 l 1
 100 0 l 1
EndSplineSet
Validated: 1
EndChar

StartChar: Mu
Encoding: 411 924 412
Width: 1200
VWidth: 1000
Flags: HMW
LayerCount: 2
Fore
SplineSet
100 0 m 1
 100 1200 l 1
 300 1200 l 1
 600 900 l 1
 900 1200 l 1
 1100 1200 l 1
 1100 0 l 1
 900 0 l 1
 900 900 l 1
 700 700 l 1
 700 500 l 1
 500 500 l 1
 500 700 l 1
 300 900 l 1
 300 0 l 1
 100 0 l 1
EndSplineSet
Validated: 1
EndChar

StartChar: Nu
Encoding: 412 925 413
Width: 1000
VWidth: 1000
Flags: HMW
LayerCount: 2
Fore
SplineSet
100 0 m 1
 100 1200 l 1
 300 1200 l 5
 300 950 l 1
 700 550 l 1
 700 1200 l 1
 900 1200 l 1
 900 0 l 1
 700 0 l 1
 700 250 l 1
 300 650 l 1
 300 0 l 1
 100 0 l 1
EndSplineSet
Validated: 1
EndChar

StartChar: Xi
Encoding: 413 926 414
Width: 1000
VWidth: 1000
Flags: HMW
LayerCount: 2
Fore
SplineSet
100 0 m 1
 100 200 l 1
 900 200 l 1
 900 0 l 1
 100 0 l 1
200 500 m 1
 200 700 l 1
 800 700 l 1
 800 500 l 1
 200 500 l 1
100 1000 m 1
 100 1200 l 1
 900 1200 l 1
 900 1000 l 1
 100 1000 l 1
EndSplineSet
Validated: 1
EndChar

StartChar: Omicron
Encoding: 414 927 415
Width: 1000
VWidth: 1000
Flags: HMW
LayerCount: 2
Fore
SplineSet
300 300 m 1
 400 200 l 1
 600 200 l 1
 700 300 l 1
 700 900 l 1
 600 1000 l 1
 400 1000 l 1
 300 900 l 1
 300 300 l 1
100 200 m 1
 100 1000 l 1
 300 1200 l 1
 700 1200 l 1
 900 1000 l 1
 900 200 l 1
 700 0 l 1
 300 0 l 1
 100 200 l 1
EndSplineSet
Validated: 1
EndChar

StartChar: Pi
Encoding: 415 928 416
Width: 1200
VWidth: 1000
Flags: HMW
LayerCount: 2
Fore
SplineSet
100 1000 m 1
 100 1200 l 1
 1100 1200 l 1
 1100 1000 l 1
 1000 1000 l 1
 1000 0 l 1
 800 0 l 1
 800 1000 l 1
 400 1000 l 1
 400 0 l 1
 200 0 l 1
 200 1000 l 1
 100 1000 l 1
EndSplineSet
Validated: 1
EndChar

StartChar: Rho
Encoding: 416 929 417
Width: 1000
VWidth: 1000
Flags: HMW
LayerCount: 2
Fore
SplineSet
300 700 m 1
 600 700 l 1
 700 800 l 1
 700 900 l 1
 600 1000 l 1
 300 1000 l 1
 300 700 l 1
100 0 m 1
 100 1200 l 1
 700 1200 l 1
 900 1000 l 1
 900 700 l 1
 700 500 l 1
 300 500 l 1
 300 0 l 1
 100 0 l 1
EndSplineSet
Validated: 1
EndChar

StartChar: uni3A2
Encoding: 417 930 418
Width: 1000
VWidth: 1000
Flags: HMW
LayerCount: 2
Fore
SplineSet
100 0 m 1
 100 300 l 1
 400 600 l 1
 100 900 l 1
 100 1200 l 1
 900 1200 l 1
 900 1000 l 1
 300 1000 l 1
 600 700 l 1
 600 500 l 1
 300 200 l 1
 900 200 l 1
 900 -100 l 1
 600 -400 l 1
 400 -400 l 1
 400 -300 l 1
 700 0 l 1
 100 0 l 1
EndSplineSet
Validated: 1
EndChar

StartChar: Sigma
Encoding: 418 931 419
Width: 1000
VWidth: 1000
Flags: HMW
LayerCount: 2
Fore
SplineSet
100 0 m 1
 100 300 l 1
 400 600 l 1
 100 900 l 1
 100 1200 l 1
 900 1200 l 1
 900 1000 l 1
 300 1000 l 1
 600 700 l 1
 600 500 l 1
 300 200 l 1
 900 200 l 1
 900 0 l 1
 100 0 l 1
EndSplineSet
Validated: 1
EndChar

StartChar: Tau
Encoding: 419 932 420
Width: 1000
VWidth: 1000
Flags: HMW
LayerCount: 2
Fore
SplineSet
100 1000 m 1
 100 1200 l 1
 900 1200 l 1
 900 1000 l 1
 600 1000 l 1
 600 0 l 1
 400 0 l 1
 400 1000 l 1
 100 1000 l 1
EndSplineSet
Validated: 1
EndChar

StartChar: Upsilon
Encoding: 420 933 421
Width: 1000
VWidth: 1000
Flags: HMW
LayerCount: 2
Fore
SplineSet
100 750 m 1
 100 1200 l 1
 300 1200 l 1
 300 850 l 1
 500 650 l 1
 700 850 l 1
 700 1200 l 1
 900 1200 l 1
 900 750 l 1
 600 450 l 1
 600 0 l 1
 400 0 l 1
 400 450 l 1
 100 750 l 1
EndSplineSet
Validated: 1
EndChar

StartChar: Phi
Encoding: 421 934 422
Width: 1200
VWidth: 1000
Flags: HMW
LayerCount: 2
Fore
SplineSet
300 500 m 1
 400 400 l 1
 500 400 l 1
 500 800 l 1
 400 800 l 1
 300 700 l 1
 300 500 l 1
700 400 m 1
 800 400 l 1
 900 500 l 1
 900 700 l 1
 800 800 l 1
 700 800 l 1
 700 400 l 1
100 400 m 1
 100 800 l 1
 300 1000 l 1
 500 1000 l 1
 500 1200 l 1
 700 1200 l 1
 700 1000 l 1
 900 1000 l 1
 1100 800 l 1
 1100 400 l 1
 900 200 l 1
 700 200 l 1
 700 0 l 1
 500 0 l 1
 500 200 l 1
 300 200 l 1
 100 400 l 1
EndSplineSet
Validated: 1
EndChar

StartChar: Chi
Encoding: 422 935 423
Width: 1000
VWidth: 1000
Flags: HMW
LayerCount: 2
Fore
SplineSet
100 0 m 1
 100 350 l 1
 350 600 l 1
 100 850 l 1
 100 1200 l 1
 300 1200 l 1
 300 950 l 1
 500 750 l 1
 700 950 l 1
 700 1200 l 1
 900 1200 l 1
 900 850 l 1
 650 600 l 1
 900 350 l 1
 900 0 l 1
 700 0 l 1
 700 250 l 1
 500 450 l 1
 300 250 l 1
 300 0 l 1
 100 0 l 1
EndSplineSet
Validated: 1
EndChar

StartChar: Psi
Encoding: 423 936 424
Width: 1200
VWidth: 1000
Flags: HMW
LayerCount: 2
Fore
SplineSet
100 700 m 1
 100 1200 l 1
 300 1200 l 1
 300 800 l 1
 400 700 l 1
 500 700 l 1
 500 1200 l 1
 700 1200 l 1
 700 700 l 1
 800 700 l 1
 900 800 l 1
 900 1200 l 1
 1100 1200 l 1
 1100 700 l 1
 900 500 l 1
 700 500 l 1
 700 0 l 1
 500 0 l 1
 500 500 l 1
 300 500 l 1
 100 700 l 1
EndSplineSet
Validated: 1
EndChar

StartChar: uni3A9
Encoding: 424 937 425
Width: 1000
VWidth: 1000
Flags: HMW
LayerCount: 2
Fore
SplineSet
100 0 m 1
 100 200 l 1
 200 200 l 1
 100 300 l 1
 100 1000 l 1
 300 1200 l 1
 700 1200 l 1
 900 1000 l 1
 900 300 l 1
 800 200 l 1
 900 200 l 1
 900 0 l 1
 600 0 l 1
 600 300 l 1
 700 400 l 1
 700 900 l 1
 600 1000 l 1
 400 1000 l 1
 300 900 l 1
 300 400 l 1
 400 300 l 1
 400 0 l 1
 100 0 l 1
EndSplineSet
Validated: 1
EndChar

StartChar: Iotadieresis
Encoding: 425 938 426
Width: 800
VWidth: 1000
Flags: HMW
LayerCount: 2
Fore
SplineSet
100 0 m 1
 100 200 l 1
 300 200 l 1
 300 1000 l 1
 100 1000 l 1
 100 1200 l 1
 700 1200 l 1
 700 1000 l 1
 500 1000 l 1
 500 200 l 1
 700 200 l 1
 700 0 l 1
 100 0 l 1
100 1400 m 1
 100 1600 l 1
 300 1600 l 1
 300 1400 l 1
 100 1400 l 1
500 1400 m 1
 500 1600 l 1
 700 1600 l 1
 700 1400 l 1
 500 1400 l 1
EndSplineSet
Validated: 1
EndChar

StartChar: Upsilondieresis
Encoding: 426 939 427
Width: 1000
VWidth: 1000
Flags: HMW
LayerCount: 2
Fore
SplineSet
100 750 m 1
 100 1200 l 1
 300 1200 l 1
 300 850 l 1
 500 650 l 1
 700 850 l 1
 700 1200 l 1
 900 1200 l 1
 900 750 l 1
 600 450 l 1
 600 0 l 1
 400 0 l 1
 400 450 l 1
 100 750 l 1
200 1400 m 1
 200 1600 l 1
 400 1600 l 1
 400 1400 l 1
 200 1400 l 1
600 1400 m 1
 600 1600 l 1
 800 1600 l 1
 800 1400 l 1
 600 1400 l 1
EndSplineSet
Validated: 1
EndChar

StartChar: alphatonos
Encoding: 427 940 428
Width: 1000
VWidth: 1000
Flags: HMW
LayerCount: 2
Fore
SplineSet
300 300 m 1
 400 200 l 1
 700 200 l 1
 700 600 l 1
 400 600 l 1
 300 500 l 1
 300 300 l 1
100 200 m 1
 100 600 l 1
 300 800 l 1
 900 800 l 1
 900 0 l 1
 300 0 l 1
 100 200 l 1
400 900 m 1
 400 1200 l 1
 600 1200 l 1
 600 900 l 1
 400 900 l 1
EndSplineSet
Validated: 1
Substitution2: "'smcp' Lowercase to Small Capitals lookup 5-1" alphatonos.sc
EndChar

StartChar: epsilontonos
Encoding: 428 941 429
Width: 1000
VWidth: 1000
Flags: HMW
LayerCount: 2
Fore
SplineSet
100 200 m 1
 100 600 l 1
 300 800 l 1
 900 800 l 1
 900 600 l 1
 400 600 l 1
 300 500 l 1
 700 500 l 1
 700 300 l 1
 300 300 l 1
 400 200 l 1
 900 200 l 1
 900 0 l 1
 300 0 l 1
 100 200 l 1
400 900 m 1
 400 1200 l 1
 600 1200 l 1
 600 900 l 1
 400 900 l 1
EndSplineSet
Validated: 1
Substitution2: "'smcp' Lowercase to Small Capitals lookup 5-1" epsilontonos.sc
EndChar

StartChar: etatonos
Encoding: 429 942 430
Width: 1000
VWidth: 1000
Flags: HMW
LayerCount: 2
Fore
SplineSet
100 0 m 1
 100 800 l 1
 700 800 l 1
 900 600 l 1
 900 -400 l 1
 700 -400 l 1
 700 500 l 1
 600 600 l 1
 300 600 l 1
 300 0 l 1
 100 0 l 1
400 900 m 1
 400 1200 l 1
 600 1200 l 1
 600 900 l 1
 400 900 l 1
EndSplineSet
Validated: 1
Substitution2: "'smcp' Lowercase to Small Capitals lookup 5-1" etatonos.sc
EndChar

StartChar: iotatonos
Encoding: 430 943 431
Width: 400
VWidth: 1000
Flags: HMW
LayerCount: 2
Fore
SplineSet
100 0 m 1
 100 800 l 5
 300 800 l 5
 300 0 l 1
 100 0 l 1
100 900 m 1
 100 1200 l 1
 300 1200 l 1
 300 900 l 1
 100 900 l 1
EndSplineSet
Validated: 1
Substitution2: "'smcp' Lowercase to Small Capitals lookup 5-1" iotatonos.sc
EndChar

StartChar: upsilondieresistonos
Encoding: 431 944 432
Width: 1000
VWidth: 1000
Flags: HMW
LayerCount: 2
Fore
SplineSet
100 200 m 1
 100 800 l 1
 300 800 l 1
 300 300 l 1
 400 200 l 1
 600 200 l 1
 700 300 l 1
 700 800 l 1
 900 800 l 1
 900 200 l 1
 700 0 l 1
 300 0 l 1
 100 200 l 1
100 900 m 1
 100 1100 l 1
 300 1100 l 1
 300 900 l 1
 100 900 l 1
700 900 m 1
 700 1100 l 1
 900 1100 l 1
 900 900 l 1
 700 900 l 1
400 900 m 1
 400 1200 l 1
 600 1200 l 1
 600 900 l 1
 400 900 l 1
EndSplineSet
Validated: 1
EndChar

StartChar: alpha
Encoding: 432 945 433
Width: 1000
VWidth: 1000
Flags: HMW
LayerCount: 2
Fore
SplineSet
300 300 m 1
 400 200 l 1
 700 200 l 1
 700 600 l 1
 400 600 l 1
 300 500 l 1
 300 300 l 1
100 200 m 1
 100 600 l 1
 300 800 l 1
 900 800 l 1
 900 0 l 1
 300 0 l 1
 100 200 l 1
EndSplineSet
Validated: 1
Substitution2: "'smcp' Lowercase to Small Capitals lookup 5-1" alpha.sc
EndChar

StartChar: beta
Encoding: 433 946 434
Width: 1000
VWidth: 1000
Flags: HMW
LayerCount: 2
Fore
SplineSet
300 200 m 1
 600 200 l 1
 700 300 l 1
 700 350 l 1
 550 500 l 1
 500 500 l 1
 500 650 l 1
 700 850 l 1
 700 900 l 1
 600 1000 l 1
 400 1000 l 1
 300 900 l 1
 300 200 l 1
100 -400 m 1
 100 1000 l 1
 300 1200 l 1
 700 1200 l 1
 900 1000 l 1
 900 750 l 1
 750 600 l 1
 900 450 l 1
 900 200 l 1
 700 0 l 1
 300 0 l 1
 300 -400 l 1
 100 -400 l 1
EndSplineSet
Validated: 1
Substitution2: "'smcp' Lowercase to Small Capitals lookup 5-1" beta.sc
EndChar

StartChar: gamma
Encoding: 434 947 435
Width: 1000
VWidth: 1000
Flags: HMW
LayerCount: 2
Fore
SplineSet
400 -100 m 1
 500 -200 l 1
 600 -100 l 1
 500 0 l 1
 400 -100 l 1
100 500 m 1
 100 800 l 1
 300 800 l 1
 300 600 l 1
 500 400 l 1
 700 600 l 1
 700 800 l 1
 900 800 l 1
 900 500 l 1
 600 200 l 1
 800 0 l 1
 800 -200 l 1
 600 -400 l 1
 400 -400 l 1
 200 -200 l 1
 200 0 l 1
 400 200 l 1
 100 500 l 1
EndSplineSet
Validated: 1
Substitution2: "'smcp' Lowercase to Small Capitals lookup 5-1" gamma.sc
EndChar

StartChar: delta
Encoding: 435 948 436
Width: 1000
VWidth: 1000
Flags: HMW
LayerCount: 2
Fore
SplineSet
300 300 m 1
 400 200 l 1
 600 200 l 1
 700 300 l 1
 700 450 l 1
 550 600 l 1
 400 600 l 1
 300 500 l 1
 300 300 l 1
100 200 m 1
 100 600 l 1
 300 800 l 1
 350 800 l 1
 100 1050 l 1
 100 1200 l 1
 900 1200 l 1
 900 1000 l 1
 450 1000 l 1
 900 550 l 1
 900 200 l 1
 700 0 l 1
 300 0 l 1
 100 200 l 1
EndSplineSet
Validated: 1
Substitution2: "'smcp' Lowercase to Small Capitals lookup 5-1" delta.sc
EndChar

StartChar: epsilon
Encoding: 436 949 437
Width: 1000
VWidth: 1000
Flags: HMW
LayerCount: 2
Fore
SplineSet
100 200 m 1
 100 600 l 1
 300 800 l 1
 900 800 l 1
 900 600 l 1
 400 600 l 1
 300 500 l 1
 700 500 l 1
 700 300 l 1
 300 300 l 1
 400 200 l 1
 900 200 l 1
 900 0 l 1
 300 0 l 1
 100 200 l 1
EndSplineSet
Validated: 1
Substitution2: "'smcp' Lowercase to Small Capitals lookup 5-1" epsilon.sc
EndChar

StartChar: zeta
Encoding: 437 950 438
Width: 1000
VWidth: 1000
Flags: HMW
LayerCount: 2
Fore
SplineSet
100 200 m 1
 100 500 l 1
 600 1000 l 1
 100 1000 l 1
 100 1200 l 1
 900 1200 l 1
 900 1000 l 1
 300 400 l 1
 300 300 l 1
 400 200 l 1
 750 200 l 1
 900 50 l 1
 900 -250 l 1
 750 -400 l 1
 500 -400 l 1
 500 -200 l 1
 650 -200 l 1
 700 -150 l 1
 700 -50 l 1
 650 0 l 1
 300 0 l 1
 100 200 l 1
EndSplineSet
Validated: 1
Substitution2: "'smcp' Lowercase to Small Capitals lookup 5-1" zeta.sc
EndChar

StartChar: eta
Encoding: 438 951 439
Width: 1000
VWidth: 1000
Flags: HMW
LayerCount: 2
Fore
SplineSet
100 0 m 1
 100 800 l 1
 700 800 l 1
 900 600 l 1
 900 -400 l 1
 700 -400 l 1
 700 500 l 1
 600 600 l 1
 300 600 l 1
 300 0 l 1
 100 0 l 1
EndSplineSet
Validated: 1
Substitution2: "'smcp' Lowercase to Small Capitals lookup 5-1" eta.sc
EndChar

StartChar: theta
Encoding: 439 952 440
Width: 1000
VWidth: 1000
Flags: HMW
LayerCount: 2
Fore
SplineSet
300 350 m 1
 450 200 l 1
 550 200 l 1
 700 350 l 1
 700 500 l 1
 300 500 l 1
 300 350 l 1
300 700 m 1
 700 700 l 1
 700 850 l 1
 550 1000 l 1
 450 1000 l 1
 300 850 l 1
 300 700 l 1
100 250 m 1
 100 950 l 1
 350 1200 l 1
 650 1200 l 1
 900 950 l 1
 900 250 l 1
 650 0 l 1
 350 0 l 1
 100 250 l 1
EndSplineSet
Validated: 1
Substitution2: "'smcp' Lowercase to Small Capitals lookup 5-1" theta.sc
EndChar

StartChar: iota
Encoding: 440 953 441
Width: 400
VWidth: 1000
Flags: HMW
LayerCount: 2
Fore
SplineSet
100 0 m 1
 100 800 l 1
 300 800 l 1
 300 0 l 1
 100 0 l 1
EndSplineSet
Validated: 1
Substitution2: "'smcp' Lowercase to Small Capitals lookup 5-1" iota.sc
EndChar

StartChar: kappa
Encoding: 441 954 442
Width: 1000
VWidth: 1000
Flags: HMW
LayerCount: 2
Fore
SplineSet
100 0 m 1
 100 800 l 1
 300 800 l 1
 300 500 l 1
 400 500 l 1
 700 800 l 1
 900 800 l 1
 900 700 l 1
 600 400 l 1
 900 100 l 1
 900 0 l 1
 700 0 l 1
 400 300 l 1
 300 300 l 1
 300 0 l 1
 100 0 l 1
EndSplineSet
Validated: 1
Substitution2: "'smcp' Lowercase to Small Capitals lookup 5-1" kappa.sc
EndChar

StartChar: lambda
Encoding: 442 955 443
Width: 1000
VWidth: 1000
Flags: HMW
LayerCount: 2
Fore
SplineSet
100 0 m 1
 100 500 l 1
 400 800 l 1
 100 1100 l 1
 100 1200 l 1
 300 1200 l 1
 900 600 l 1
 900 0 l 1
 700 0 l 1
 700 500 l 1
 550 650 l 1
 300 400 l 1
 300 0 l 1
 100 0 l 1
EndSplineSet
Validated: 1
Substitution2: "'smcp' Lowercase to Small Capitals lookup 5-1" lambda.sc
EndChar

StartChar: uni3BC
Encoding: 443 956 444
Width: 1000
VWidth: 1000
Flags: HMW
LayerCount: 2
Fore
SplineSet
100 -400 m 1
 100 800 l 1
 300 800 l 1
 300 200 l 1
 500 200 l 1
 700 400 l 1
 700 800 l 1
 900 800 l 1
 900 0 l 1
 700 0 l 1
 700 100 l 1
 600 0 l 1
 300 0 l 1
 300 -400 l 1
 100 -400 l 1
EndSplineSet
Validated: 1
Substitution2: "'smcp' Lowercase to Small Capitals lookup 5-1" uni3BC.sc
EndChar

StartChar: nu
Encoding: 444 957 445
Width: 1000
VWidth: 1000
Flags: HMW
LayerCount: 2
Fore
SplineSet
100 300 m 1
 100 800 l 1
 300 800 l 1
 300 400 l 1
 500 200 l 1
 700 400 l 1
 700 800 l 1
 900 800 l 1
 900 300 l 1
 600 0 l 1
 400 0 l 1
 100 300 l 1
EndSplineSet
Validated: 1
Substitution2: "'smcp' Lowercase to Small Capitals lookup 5-1" nu.sc
EndChar

StartChar: xi
Encoding: 445 958 446
Width: 1000
VWidth: 1000
Flags: HMW
LayerCount: 2
Fore
SplineSet
100 200 m 1
 100 450 l 1
 250 600 l 1
 100 750 l 1
 100 1200 l 1
 900 1200 l 1
 900 1000 l 1
 300 1000 l 1
 300 850 l 1
 450 700 l 1
 700 700 l 1
 700 500 l 1
 450 500 l 1
 300 350 l 1
 300 300 l 1
 400 200 l 1
 750 200 l 1
 900 50 l 1
 900 -250 l 1
 750 -400 l 1
 500 -400 l 1
 500 -200 l 1
 650 -200 l 1
 700 -150 l 1
 700 -50 l 1
 650 0 l 1
 300 0 l 1
 100 200 l 1
EndSplineSet
Validated: 1
Substitution2: "'smcp' Lowercase to Small Capitals lookup 5-1" xi.sc
EndChar

StartChar: omicron
Encoding: 446 959 447
Width: 1000
VWidth: 1000
Flags: HMW
LayerCount: 2
Fore
SplineSet
300 300 m 1
 400 200 l 1
 600 200 l 1
 700 300 l 1
 700 500 l 1
 600 600 l 1
 400 600 l 1
 300 500 l 1
 300 300 l 1
100 200 m 1
 100 600 l 1
 300 800 l 1
 700 800 l 1
 900 600 l 1
 900 200 l 1
 700 0 l 1
 300 0 l 1
 100 200 l 1
EndSplineSet
Validated: 1
Substitution2: "'smcp' Lowercase to Small Capitals lookup 5-1" omicron.sc
EndChar

StartChar: pi
Encoding: 447 960 448
Width: 1000
VWidth: 1000
Flags: HMW
LayerCount: 2
Fore
SplineSet
100 600 m 1
 100 800 l 1
 900 800 l 1
 900 600 l 1
 800 600 l 1
 800 0 l 1
 600 0 l 1
 600 600 l 1
 400 600 l 1
 400 0 l 1
 200 0 l 1
 200 600 l 1
 100 600 l 1
EndSplineSet
Validated: 1
Substitution2: "'smcp' Lowercase to Small Capitals lookup 5-1" pi.sc
EndChar

StartChar: rho
Encoding: 448 961 449
Width: 1000
VWidth: 1000
Flags: HMW
LayerCount: 2
Fore
SplineSet
300 200 m 1
 600 200 l 1
 700 300 l 1
 700 500 l 1
 600 600 l 1
 400 600 l 1
 300 500 l 1
 300 200 l 1
100 -400 m 1
 100 600 l 1
 300 800 l 1
 700 800 l 1
 900 600 l 1
 900 200 l 1
 700 0 l 1
 300 0 l 1
 300 -400 l 1
 100 -400 l 1
EndSplineSet
Validated: 1
Substitution2: "'smcp' Lowercase to Small Capitals lookup 5-1" rho.sc
EndChar

StartChar: sigma1
Encoding: 449 962 450
Width: 1000
VWidth: 1000
Flags: HMW
LayerCount: 2
Fore
SplineSet
100 200 m 1
 100 600 l 1
 300 800 l 1
 900 800 l 1
 900 600 l 1
 400 600 l 1
 300 500 l 1
 300 300 l 1
 400 200 l 1
 750 200 l 1
 900 50 l 1
 900 -250 l 1
 750 -400 l 1
 500 -400 l 1
 500 -200 l 1
 650 -200 l 1
 700 -150 l 1
 700 -50 l 1
 650 0 l 1
 300 0 l 1
 100 200 l 1
EndSplineSet
Validated: 1
Substitution2: "'smcp' Lowercase to Small Capitals lookup 5-1" sigma1.sc
EndChar

StartChar: sigma
Encoding: 450 963 451
Width: 1200
VWidth: 1000
Flags: HMW
LayerCount: 2
Fore
SplineSet
300 300 m 1
 400 200 l 1
 600 200 l 1
 700 300 l 1
 700 600 l 1
 400 600 l 1
 300 500 l 1
 300 300 l 1
100 200 m 1
 100 600 l 1
 300 800 l 1
 1100 800 l 1
 1100 600 l 1
 900 600 l 1
 900 200 l 1
 700 0 l 1
 300 0 l 1
 100 200 l 1
EndSplineSet
Validated: 1
Substitution2: "'smcp' Lowercase to Small Capitals lookup 5-1" sigma.sc
EndChar

StartChar: tau
Encoding: 451 964 452
Width: 1000
VWidth: 1000
Flags: HMW
LayerCount: 2
Fore
SplineSet
100 600 m 1
 100 800 l 1
 900 800 l 1
 900 600 l 1
 600 600 l 1
 600 0 l 1
 400 0 l 1
 400 600 l 1
 100 600 l 1
EndSplineSet
Validated: 1
Substitution2: "'smcp' Lowercase to Small Capitals lookup 5-1" tau.sc
EndChar

StartChar: upsilon
Encoding: 452 965 453
Width: 1000
VWidth: 1000
Flags: HMW
LayerCount: 2
Fore
SplineSet
100 200 m 1
 100 800 l 1
 300 800 l 1
 300 300 l 1
 400 200 l 1
 600 200 l 1
 700 300 l 1
 700 800 l 1
 900 800 l 1
 900 200 l 1
 700 0 l 1
 300 0 l 1
 100 200 l 1
EndSplineSet
Validated: 1
Substitution2: "'smcp' Lowercase to Small Capitals lookup 5-1" upsilon.sc
EndChar

StartChar: phi
Encoding: 453 966 454
Width: 1200
VWidth: 1000
Flags: HMW
LayerCount: 2
Fore
SplineSet
700 200 m 1
 800 200 l 1
 900 300 l 1
 900 500 l 1
 800 600 l 1
 700 600 l 1
 700 200 l 1
100 200 m 1
 100 800 l 1
 300 800 l 1
 300 300 l 1
 400 200 l 1
 500 200 l 1
 500 800 l 1
 900 800 l 1
 1100 600 l 1
 1100 200 l 1
 900 0 l 1
 700 0 l 1
 700 -400 l 1
 500 -400 l 1
 500 0 l 1
 300 0 l 1
 100 200 l 1
EndSplineSet
Validated: 1
Substitution2: "'smcp' Lowercase to Small Capitals lookup 5-1" phi.sc
EndChar

StartChar: chi
Encoding: 454 967 455
Width: 1000
VWidth: 1000
Flags: HMW
LayerCount: 2
Fore
SplineSet
100 -50 m 1
 350 200 l 1
 100 450 l 1
 100 800 l 1
 300 800 l 1
 300 550 l 1
 500 350 l 1
 700 550 l 1
 700 800 l 1
 900 800 l 1
 900 450 l 1
 650 200 l 1
 900 -50 l 1
 900 -400 l 1
 700 -400 l 1
 700 -150 l 1
 500 50 l 1
 300 -150 l 1
 300 -400 l 1
 100 -400 l 1
 100 -50 l 1
EndSplineSet
Validated: 1
Substitution2: "'smcp' Lowercase to Small Capitals lookup 5-1" chi.sc
EndChar

StartChar: psi
Encoding: 455 968 456
Width: 1200
VWidth: 1000
Flags: HMW
LayerCount: 2
Fore
SplineSet
100 200 m 1
 100 600 l 1
 300 600 l 1
 300 300 l 1
 400 200 l 1
 500 200 l 1
 500 800 l 1
 700 800 l 1
 700 200 l 1
 800 200 l 1
 900 300 l 1
 900 600 l 1
 1100 600 l 1
 1100 200 l 1
 900 0 l 1
 700 0 l 1
 700 -400 l 1
 500 -400 l 1
 500 0 l 1
 300 0 l 1
 100 200 l 1
EndSplineSet
Validated: 1
Substitution2: "'smcp' Lowercase to Small Capitals lookup 5-1" psi.sc
EndChar

StartChar: omega
Encoding: 456 969 457
Width: 1200
VWidth: 1000
Flags: HMW
LayerCount: 2
Fore
SplineSet
100 200 m 1
 100 800 l 1
 300 800 l 1
 300 300 l 1
 400 200 l 1
 500 200 l 1
 500 600 l 1
 700 600 l 1
 700 200 l 1
 800 200 l 1
 900 300 l 1
 900 800 l 1
 1100 800 l 1
 1100 200 l 1
 900 0 l 1
 300 0 l 1
 100 200 l 1
EndSplineSet
Validated: 1
Substitution2: "'smcp' Lowercase to Small Capitals lookup 5-1" omega.sc
EndChar

StartChar: iotadieresis
Encoding: 457 970 458
Width: 800
VWidth: 1000
Flags: HMW
LayerCount: 2
Fore
SplineSet
300 0 m 1
 300 800 l 1
 500 800 l 1
 500 0 l 1
 300 0 l 1
100 1000 m 1
 100 1200 l 1
 300 1200 l 1
 300 1000 l 1
 100 1000 l 1
500 1000 m 1
 500 1200 l 1
 700 1200 l 1
 700 1000 l 1
 500 1000 l 1
EndSplineSet
Validated: 1
Substitution2: "'smcp' Lowercase to Small Capitals lookup 5-1" iotadieresis.sc
EndChar

StartChar: upsilondieresis
Encoding: 458 971 459
Width: 1000
VWidth: 1000
Flags: HMW
LayerCount: 2
Fore
SplineSet
100 200 m 1
 100 800 l 1
 300 800 l 1
 300 300 l 1
 400 200 l 1
 600 200 l 1
 700 300 l 1
 700 800 l 1
 900 800 l 1
 900 200 l 1
 700 0 l 1
 300 0 l 1
 100 200 l 1
200 1000 m 1
 200 1200 l 1
 400 1200 l 1
 400 1000 l 1
 200 1000 l 1
600 1000 m 1
 600 1200 l 1
 800 1200 l 1
 800 1000 l 1
 600 1000 l 1
EndSplineSet
Validated: 1
Substitution2: "'smcp' Lowercase to Small Capitals lookup 5-1" upsilondieresis.sc
EndChar

